ply
format ascii 1.0
comment Created by Blender 2.79 (sub 0) - www.blender.org, source file: 'woodbeams.blend'
element vertex 117
property float x
property float y
property float z
property float s
property float t
property uchar red
property uchar green
property uchar blue
element face 60
property list uchar uint vertex_indices
end_header
-0.500000 0.000000 0.200000 2.867188 0.726562 255 0 0
-0.250000 0.000000 -0.200000 2.468750 0.476562 255 0 0
-0.250000 0.000000 0.200000 2.867188 0.476562 255 0 0
-0.500000 0.500000 0.200000 1.546875 2.644531 255 0 0
-0.250000 0.000000 0.200000 1.796875 2.394531 255 0 0
-0.250000 0.500000 0.200000 1.796875 2.644531 255 0 0
-0.500000 0.000000 -0.200000 2.488281 2.472656 255 0 0
-0.250000 0.500000 -0.200000 2.730469 2.726562 255 0 0
-0.250000 0.000000 -0.200000 2.488281 2.726562 255 0 0
-0.250000 0.500000 0.200000 -0.003906 2.800781 255 0 0
-0.500000 0.500000 -0.200000 0.246094 2.394531 255 0 0
-0.500000 0.500000 0.200000 0.246094 2.800781 255 0 0
-0.250000 0.000000 0.200000 1.046875 2.000000 255 255 255
-0.250000 0.500000 -0.200000 0.792969 2.394531 255 255 255
-0.250000 0.500000 0.200000 0.792969 2.000000 255 255 255
-0.497869 0.000000 -0.150000 0.496094 2.058594 255 0 0
-0.250000 -0.672133 -0.150000 0.687500 1.687500 255 0 0
-0.922133 -0.000000 -0.150000 0.687500 2.441406 255 0 0
-0.497869 0.000000 -0.150000 2.593750 1.257812 255 0 0
-0.250000 -0.247868 0.150000 2.296875 1.000000 255 0 0
-0.250000 -0.247868 -0.150000 2.593750 1.000000 255 0 0
-0.250000 -0.672133 -0.150000 0.496094 1.000000 255 0 0
-0.922133 -0.000000 0.150000 0.792969 1.687500 255 0 0
-0.922133 -0.000000 -0.150000 0.496094 1.687500 255 0 0
-0.497869 0.000000 0.150000 2.304688 2.066406 255 0 0
-0.250000 -0.672133 0.150000 2.496094 2.433594 255 0 0
-0.250000 -0.247868 0.150000 2.304688 2.343750 255 0 0
-0.922133 -0.000000 0.150000 2.296875 1.675781 255 0 0
-0.922133 -0.000000 -0.150000 2.593750 1.675781 255 0 0
-0.250000 -0.247868 -0.150000 2.257812 2.000000 255 255 255
-0.250000 -0.672133 0.150000 2.046875 2.300781 255 255 255
-0.250000 -0.672133 -0.150000 2.046875 2.000000 255 255 255
0.500000 0.500000 -0.200000 1.296875 2.394531 255 255 255
0.500000 -0.000000 0.200000 1.546875 2.000000 255 255 255
0.500000 -0.000000 -0.200000 1.546875 2.394531 255 255 255
0.250000 0.000000 0.200000 1.621094 2.718750 255 0 0
0.500000 -0.000000 -0.200000 1.218750 2.472656 255 0 0
0.500000 -0.000000 0.200000 1.621094 2.472656 255 0 0
0.500000 0.500000 -0.200000 2.046875 2.394531 255 0 0
0.250000 0.000000 -0.200000 1.796875 2.644531 255 0 0
0.250000 0.500000 -0.200000 1.796875 2.394531 255 0 0
0.500000 0.500000 0.200000 2.730469 2.078125 255 0 0
0.250000 0.500000 -0.200000 2.488281 2.472656 255 0 0
0.250000 0.500000 0.200000 2.488281 2.078125 255 0 0
0.500000 -0.000000 0.200000 0.746094 2.441406 255 0 0
0.250000 0.500000 0.200000 0.496094 2.687500 255 0 0
0.250000 0.000000 0.200000 0.496094 2.441406 255 0 0
0.250000 0.000000 -0.200000 1.796875 2.394531 255 255 255
0.250000 0.500000 0.200000 2.046875 2.000000 255 255 255
0.250000 0.500000 -0.200000 2.046875 2.394531 255 255 255
0.497869 0.000000 0.150000 0.496094 2.058594 255 0 0
0.250000 -0.672133 0.150000 0.687500 1.687500 255 0 0
0.922133 -0.000000 0.150000 0.687500 2.441406 255 0 0
0.497869 0.000000 0.150000 2.593750 1.257812 255 0 0
0.250000 -0.247868 -0.150000 2.296875 1.000000 255 0 0
0.250000 -0.247868 0.150000 2.593750 1.000000 255 0 0
0.250000 -0.672133 0.150000 0.496094 1.000000 255 0 0
0.922132 0.000000 -0.150000 0.792969 1.687500 255 0 0
0.922133 -0.000000 0.150000 0.496094 1.687500 255 0 0
0.497868 0.000000 -0.150000 2.304688 2.066406 255 0 0
0.250000 -0.672133 -0.150000 2.496094 2.433594 255 0 0
0.250000 -0.247868 -0.150000 2.304688 2.343750 255 0 0
0.922132 0.000000 -0.150000 2.296875 1.675781 255 255 255
0.497869 0.000000 0.150000 2.593750 1.257812 255 255 255
0.922133 -0.000000 0.150000 2.593750 1.675781 255 255 255
0.250000 -0.247868 0.150000 2.257812 2.000000 255 255 255
0.250000 -0.672133 -0.150000 2.046875 2.300781 255 255 255
0.250000 -0.672133 0.150000 2.046875 2.000000 255 255 255
0.250000 -0.247868 0.150000 0.496094 1.781250 255 0 0
0.497868 0.000000 -0.150000 2.296875 1.257812 255 0 0
0.250000 -0.672133 -0.150000 0.792969 1.000000 255 0 0
0.922132 0.000000 -0.150000 2.496094 1.683594 255 0 0
0.497868 0.000000 -0.150000 2.296875 1.257812 255 255 255
0.250000 -0.247868 -0.150000 2.257812 2.300781 255 255 255
-0.250000 0.500000 -0.250000 1.804688 0.507812 255 0 0
0.250000 0.500000 0.250000 2.300781 1.007812 255 0 0
0.250000 0.500000 -0.250000 1.804688 1.007812 255 0 0
-0.250000 0.500000 0.250000 -0.003906 1.500000 255 0 0
0.250000 -0.500000 0.250000 0.496094 1.000000 255 0 0
0.250000 0.500000 0.250000 0.496094 1.500000 255 0 0
-0.250000 -0.500000 0.250000 1.796875 1.500000 255 255 255
0.250000 -0.500000 -0.250000 2.296875 1.000000 255 255 255
0.250000 -0.500000 0.250000 2.296875 1.500000 255 255 255
-0.250000 -0.500000 -0.250000 1.300781 1.003906 255 0 0
0.250000 0.500000 -0.250000 1.796875 0.503906 255 0 0
0.250000 -0.500000 -0.250000 1.796875 1.003906 255 0 0
0.250000 -0.500000 0.250000 0.496094 2.000000 255 0 0
0.250000 0.500000 -0.250000 -0.003906 1.500000 255 0 0
-0.250000 0.500000 0.250000 0.796875 1.500000 255 0 0
-0.250000 -0.500000 -0.250000 1.296875 2.003906 255 0 0
-0.250000 -0.500000 0.250000 0.796875 2.003906 255 0 0
-0.250000 0.500000 0.250000 2.300781 0.507812 255 0 0
-0.250000 -0.500000 0.250000 -0.003906 1.000000 255 0 0
-0.250000 -0.500000 -0.250000 1.796875 1.000000 255 255 255
-0.250000 0.500000 -0.250000 1.300781 0.503906 255 0 0
0.250000 -0.500000 -0.250000 -0.003906 2.000000 255 0 0
-0.250000 0.500000 -0.250000 1.296875 1.500000 255 0 0
0.500000 0.500000 0.200000 1.296875 2.000000 255 255 255
0.250000 0.000000 -0.200000 1.218750 2.718750 255 0 0
0.500000 -0.000000 -0.200000 2.046875 2.644531 255 0 0
0.500000 0.500000 -0.200000 2.730469 2.472656 255 0 0
0.500000 0.500000 0.200000 0.746094 2.687500 255 0 0
0.250000 0.000000 0.200000 1.796875 2.000000 255 255 255
-0.500000 0.000000 -0.200000 2.468750 0.726562 255 0 0
-0.500000 0.000000 0.200000 1.546875 2.394531 255 0 0
-0.500000 0.500000 -0.200000 2.730469 2.472656 255 0 0
-0.250000 0.500000 -0.200000 -0.003906 2.394531 255 0 0
-0.250000 0.000000 -0.200000 1.046875 2.394531 255 255 255
-0.250000 -0.247868 -0.150000 0.496094 1.781250 255 0 0
-0.497869 0.000000 0.150000 2.296875 1.257812 255 0 0
-0.250000 -0.672133 0.150000 0.792969 1.000000 255 0 0
-0.922133 -0.000000 0.150000 2.496094 1.683594 255 0 0
-0.250000 -0.247868 0.150000 2.257812 2.300781 255 255 255
-0.500000 0.500000 0.200000 2.222656 0.480469 255 0 0
-0.500000 0.000000 -0.200000 2.621094 0.726562 255 0 0
-0.500000 0.000000 0.200000 2.222656 0.726562 255 0 0
-0.500000 0.500000 -0.200000 2.621094 0.480469 255 0 0
3 0 1 2
3 3 4 5
3 6 7 8
3 9 10 11
3 12 13 14
3 15 16 17
3 18 19 20
3 21 22 23
3 24 25 26
3 27 18 28
3 29 30 31
3 32 33 34
3 35 36 37
3 38 39 40
3 41 42 43
3 44 45 46
3 47 48 49
3 50 51 52
3 53 54 55
3 56 57 58
3 59 60 61
3 62 63 64
3 65 66 67
3 50 68 51
3 53 69 54
3 56 70 57
3 59 71 60
3 62 72 63
3 65 73 66
3 74 75 76
3 77 78 79
3 80 81 82
3 83 84 85
3 86 87 79
3 88 89 90
3 74 91 75
3 77 92 78
3 80 93 81
3 83 94 84
3 86 95 87
3 88 96 89
3 32 97 33
3 35 98 36
3 38 99 39
3 41 100 42
3 44 101 45
3 47 102 48
3 0 103 1
3 3 104 4
3 6 105 7
3 9 106 10
3 12 107 13
3 15 108 16
3 18 109 19
3 21 110 22
3 24 111 25
3 27 109 18
3 29 112 30
3 113 114 115
3 113 116 114
