ply
format ascii 1.0
comment Created by Blender 2.79 (sub 0) - www.blender.org, source file: 'woodbeams.blend'
element vertex 117
property float x
property float y
property float z
property float s
property float t
property uchar red
property uchar green
property uchar blue
element face 60
property list uchar uint vertex_indices
end_header
0.500000 0.500000 -0.200000 1.296875 2.394531 255 255 255
0.500000 -0.000000 0.200000 1.546875 2.000000 255 255 255
0.500000 -0.000000 -0.200000 1.546875 2.394531 255 255 255
0.250000 0.000000 0.200000 1.621094 2.718750 255 0 0
0.500000 -0.000000 -0.200000 1.218750 2.472656 255 0 0
0.500000 -0.000000 0.200000 1.621094 2.472656 255 0 0
0.500000 0.500000 -0.200000 2.046875 2.394531 255 0 0
0.250000 0.000000 -0.200000 1.796875 2.644531 255 0 0
0.250000 0.500000 -0.200000 1.796875 2.394531 255 0 0
0.500000 0.500000 0.200000 2.730469 2.078125 255 0 0
0.250000 0.500000 -0.200000 2.488281 2.472656 255 0 0
0.250000 0.500000 0.200000 2.488281 2.078125 255 0 0
0.500000 -0.000000 0.200000 0.746094 2.441406 255 0 0
0.250000 0.500000 0.200000 0.496094 2.687500 255 0 0
0.250000 0.000000 0.200000 0.496094 2.441406 255 0 0
0.250000 0.000000 -0.200000 1.796875 2.394531 255 255 255
0.250000 0.500000 0.200000 2.046875 2.000000 255 255 255
0.250000 0.500000 -0.200000 2.046875 2.394531 255 255 255
0.497869 0.000000 0.150000 0.496094 2.058594 255 0 0
0.250000 -0.672133 0.150000 0.687500 1.687500 255 0 0
0.922133 -0.000000 0.150000 0.687500 2.441406 255 0 0
0.497869 0.000000 0.150000 2.593750 1.257812 255 0 0
0.250000 -0.247868 -0.150000 2.296875 1.000000 255 0 0
0.250000 -0.247868 0.150000 2.593750 1.000000 255 0 0
0.250000 -0.672133 0.150000 0.496094 1.000000 255 0 0
0.922132 0.000000 -0.150000 0.792969 1.687500 255 0 0
0.922133 -0.000000 0.150000 0.496094 1.687500 255 0 0
0.497868 0.000000 -0.150000 2.304688 2.066406 255 0 0
0.250000 -0.672133 -0.150000 2.496094 2.433594 255 0 0
0.250000 -0.247868 -0.150000 2.304688 2.343750 255 0 0
0.922132 0.000000 -0.150000 2.296875 1.675781 255 255 255
0.497869 0.000000 0.150000 2.593750 1.257812 255 255 255
0.922133 -0.000000 0.150000 2.593750 1.675781 255 255 255
0.250000 -0.247868 0.150000 2.257812 2.000000 255 255 255
0.250000 -0.672133 -0.150000 2.046875 2.300781 255 255 255
0.250000 -0.672133 0.150000 2.046875 2.000000 255 255 255
0.250000 -0.247868 0.150000 0.496094 1.781250 255 0 0
0.497868 0.000000 -0.150000 2.296875 1.257812 255 0 0
0.250000 -0.672133 -0.150000 0.792969 1.000000 255 0 0
0.922132 0.000000 -0.150000 2.496094 1.683594 255 0 0
0.497868 0.000000 -0.150000 2.296875 1.257812 255 255 255
0.250000 -0.247868 -0.150000 2.257812 2.300781 255 255 255
0.200000 0.500000 0.500000 1.542969 2.898438 255 0 0
0.200000 0.000000 0.250000 1.800781 2.648438 255 0 0
0.200000 0.500000 0.250000 1.800781 2.898438 255 0 0
-0.200000 0.500000 0.500000 2.796875 -0.003906 255 0 0
0.200000 0.500000 0.250000 2.542969 0.398438 255 0 0
-0.200000 0.500000 0.250000 2.542969 -0.003906 255 0 0
0.200000 0.000000 0.500000 0.320312 2.074219 255 0 0
-0.200000 0.500000 0.500000 -0.078125 2.324219 255 0 0
-0.200000 0.000000 0.500000 -0.078125 2.074219 255 0 0
0.200000 0.000000 0.500000 0.718750 2.468750 255 0 0
-0.200000 0.000000 0.250000 1.121094 2.722656 255 0 0
0.200000 0.000000 0.250000 0.718750 2.722656 255 0 0
-0.200000 0.000000 0.500000 2.597656 1.503906 255 0 0
-0.200000 0.500000 0.250000 2.843750 1.253906 255 0 0
-0.200000 0.000000 0.250000 2.843750 1.503906 255 0 0
0.200000 0.000000 0.250000 2.488281 2.078125 255 255 255
-0.200000 0.500000 0.250000 2.730469 1.675781 255 255 255
0.200000 0.500000 0.250000 2.730469 2.078125 255 255 255
-0.150000 0.000000 0.497869 0.496094 2.058594 255 0 0
-0.150000 -0.672133 0.250000 0.687500 1.687500 255 0 0
-0.150000 -0.000000 0.922133 0.687500 2.441406 255 0 0
-0.150000 0.000000 0.497869 2.593750 1.257812 255 0 0
0.150000 -0.247868 0.250000 2.296875 1.000000 255 0 0
-0.150000 -0.247868 0.250000 2.593750 1.000000 255 0 0
-0.150000 -0.672133 0.250000 0.496094 1.000000 255 0 0
0.150000 -0.000000 0.922133 0.792969 1.687500 255 0 0
-0.150000 -0.000000 0.922133 0.496094 1.687500 255 0 0
0.150000 0.000000 0.497869 2.304688 2.066406 255 0 0
0.150000 -0.672133 0.250000 2.496094 2.433594 255 0 0
0.150000 -0.247868 0.250000 2.304688 2.343750 255 0 0
0.150000 -0.000000 0.922133 2.296875 1.675781 255 0 0
-0.150000 -0.000000 0.922133 2.593750 1.675781 255 0 0
-0.150000 -0.247868 0.250000 2.257812 2.000000 255 255 255
0.150000 -0.672133 0.250000 2.046875 2.300781 255 255 255
-0.150000 -0.672133 0.250000 2.046875 2.000000 255 255 255
-0.250000 0.500000 -0.250000 1.804688 0.507812 255 0 0
0.250000 0.500000 0.250000 2.300781 1.007812 255 0 0
0.250000 0.500000 -0.250000 1.804688 1.007812 255 0 0
-0.250000 0.500000 0.250000 -0.003906 1.500000 255 0 0
0.250000 -0.500000 0.250000 0.496094 1.000000 255 0 0
0.250000 0.500000 0.250000 0.496094 1.500000 255 0 0
-0.250000 -0.500000 0.250000 1.796875 1.500000 255 255 255
0.250000 -0.500000 -0.250000 2.296875 1.000000 255 255 255
0.250000 -0.500000 0.250000 2.296875 1.500000 255 255 255
-0.250000 -0.500000 -0.250000 1.300781 1.003906 255 0 0
0.250000 0.500000 -0.250000 1.796875 0.503906 255 0 0
0.250000 -0.500000 -0.250000 1.796875 1.003906 255 0 0
0.250000 -0.500000 0.250000 0.496094 2.000000 255 0 0
0.250000 0.500000 -0.250000 -0.003906 1.500000 255 0 0
-0.250000 0.500000 0.250000 0.796875 1.500000 255 0 0
-0.250000 -0.500000 -0.250000 1.296875 2.003906 255 0 0
-0.250000 -0.500000 0.250000 0.796875 2.003906 255 0 0
-0.250000 0.500000 0.250000 2.300781 0.507812 255 0 0
-0.250000 -0.500000 0.250000 -0.003906 1.000000 255 0 0
-0.250000 -0.500000 -0.250000 1.796875 1.000000 255 255 255
-0.250000 0.500000 -0.250000 1.300781 0.503906 255 0 0
0.250000 -0.500000 -0.250000 -0.003906 2.000000 255 0 0
-0.250000 0.500000 -0.250000 1.296875 1.500000 255 0 0
0.200000 0.000000 0.500000 1.542969 2.648438 255 0 0
0.200000 0.500000 0.500000 2.796875 0.398438 255 0 0
0.200000 0.500000 0.500000 0.320312 2.324219 255 0 0
-0.200000 0.000000 0.500000 1.121094 2.468750 255 0 0
-0.200000 0.500000 0.500000 2.597656 1.253906 255 0 0
-0.200000 0.000000 0.250000 2.488281 1.675781 255 255 255
-0.150000 -0.247868 0.250000 0.496094 1.781250 255 0 0
0.150000 0.000000 0.497869 2.296875 1.257812 255 0 0
0.150000 -0.672133 0.250000 0.792969 1.000000 255 0 0
0.150000 -0.000000 0.922133 2.496094 1.683594 255 0 0
0.150000 -0.247868 0.250000 2.257812 2.300781 255 255 255
0.500000 0.500000 0.200000 1.296875 2.000000 255 255 255
0.250000 0.000000 -0.200000 1.218750 2.718750 255 0 0
0.500000 -0.000000 -0.200000 2.046875 2.644531 255 0 0
0.500000 0.500000 -0.200000 2.730469 2.472656 255 0 0
0.500000 0.500000 0.200000 0.746094 2.687500 255 0 0
0.250000 0.000000 0.200000 1.796875 2.000000 255 255 255
3 0 1 2
3 3 4 5
3 6 7 8
3 9 10 11
3 12 13 14
3 15 16 17
3 18 19 20
3 21 22 23
3 24 25 26
3 27 28 29
3 30 31 32
3 33 34 35
3 18 36 19
3 21 37 22
3 24 38 25
3 27 39 28
3 30 40 31
3 33 41 34
3 42 43 44
3 45 46 47
3 48 49 50
3 51 52 53
3 54 55 56
3 57 58 59
3 60 61 62
3 63 64 65
3 66 67 68
3 69 70 71
3 72 63 73
3 74 75 76
3 77 78 79
3 80 81 82
3 83 84 85
3 86 87 88
3 89 90 82
3 91 92 93
3 77 94 78
3 80 95 81
3 83 96 84
3 86 97 87
3 89 98 90
3 91 99 92
3 42 100 43
3 45 101 46
3 48 102 49
3 51 103 52
3 54 104 55
3 57 105 58
3 60 106 61
3 63 107 64
3 66 108 67
3 69 109 70
3 72 107 63
3 74 110 75
3 0 111 1
3 3 112 4
3 6 113 7
3 9 114 10
3 12 115 13
3 15 116 16
