ply
format ascii 1.0
comment Created by Blender 2.79 (sub 0) - www.blender.org, source file: 'woodbeams.blend'
element vertex 24
property float x
property float y
property float z
property float s
property float t
property uchar red
property uchar green
property uchar blue
element face 12
property list uchar uint vertex_indices
end_header
0.500000 0.500000 -0.200000 2.625000 0.324219 255 0 0
0.500000 -0.000000 0.200000 2.218750 0.078125 255 0 0
0.500000 -0.000000 -0.200000 2.625000 0.078125 255 0 0
0.500000 0.500000 0.200000 0.671875 0.375000 255 0 0
-0.500000 -0.000000 0.200000 1.675781 0.625000 255 0 0
0.500000 -0.000000 0.200000 0.671875 0.625000 255 0 0
-0.500000 0.500000 0.200000 1.796875 2.000000 255 255 255
-0.500000 -0.000000 -0.200000 1.546875 2.394531 255 255 255
-0.500000 -0.000000 0.200000 1.546875 2.000000 255 255 255
-0.500000 0.500000 -0.200000 0.417969 0.371094 255 0 0
0.500000 -0.000000 -0.200000 1.421875 0.625000 255 0 0
-0.500000 -0.000000 -0.200000 0.417969 0.625000 255 0 0
-0.500000 -0.000000 0.200000 0.792969 1.000000 255 0 0
0.500000 -0.000000 -0.200000 0.398438 -0.003906 255 0 0
0.500000 -0.000000 0.200000 0.792969 -0.003906 255 0 0
0.500000 0.500000 0.200000 -0.003906 -0.003906 255 0 0
-0.500000 0.500000 -0.200000 0.398438 1.000000 255 0 0
-0.500000 0.500000 0.200000 -0.003906 1.000000 255 0 0
0.500000 0.500000 0.200000 2.218750 0.324219 255 0 0
-0.500000 0.500000 0.200000 1.675781 0.375000 255 0 0
-0.500000 0.500000 -0.200000 1.796875 2.394531 255 255 255
0.500000 0.500000 -0.200000 1.421875 0.371094 255 0 0
-0.500000 -0.000000 -0.200000 0.398438 1.000000 255 0 0
0.500000 0.500000 -0.200000 0.398438 -0.003906 255 0 0
3 0 1 2
3 3 4 5
3 6 7 8
3 9 10 11
3 12 13 14
3 15 16 17
3 0 18 1
3 3 19 4
3 6 20 7
3 9 21 10
3 12 22 13
3 15 23 16
