ply
format ascii 1.0
comment Created by Blender 2.79 (sub 0) - www.blender.org, source file: 'woodbeams.blend'
element vertex 23
property float x
property float y
property float z
property float s
property float t
property uchar red
property uchar green
property uchar blue
element face 12
property list uchar uint vertex_indices
end_header
-0.250000 0.500000 -0.250000 1.804688 0.507812 255 0 0
0.250000 0.500000 0.250000 2.300781 1.007812 255 0 0
0.250000 0.500000 -0.250000 1.804688 1.007812 255 0 0
-0.250000 0.500000 0.250000 -0.003906 1.500000 255 0 0
0.250000 -0.500000 0.250000 0.496094 1.000000 255 0 0
0.250000 0.500000 0.250000 0.496094 1.500000 255 0 0
-0.250000 -0.500000 0.250000 1.796875 1.500000 255 255 255
0.250000 -0.500000 -0.250000 2.296875 1.000000 255 255 255
0.250000 -0.500000 0.250000 2.296875 1.500000 255 255 255
-0.250000 -0.500000 -0.250000 1.300781 1.003906 255 0 0
0.250000 0.500000 -0.250000 1.796875 0.503906 255 0 0
0.250000 -0.500000 -0.250000 1.796875 1.003906 255 0 0
0.250000 -0.500000 0.250000 0.496094 2.000000 255 0 0
0.250000 0.500000 -0.250000 -0.003906 1.500000 255 0 0
-0.250000 0.500000 0.250000 0.796875 1.500000 255 0 0
-0.250000 -0.500000 -0.250000 1.296875 2.003906 255 0 0
-0.250000 -0.500000 0.250000 0.796875 2.003906 255 0 0
-0.250000 0.500000 0.250000 2.300781 0.507812 255 0 0
-0.250000 -0.500000 0.250000 -0.003906 1.000000 255 0 0
-0.250000 -0.500000 -0.250000 1.796875 1.000000 255 255 255
-0.250000 0.500000 -0.250000 1.300781 0.503906 255 0 0
0.250000 -0.500000 -0.250000 -0.003906 2.000000 255 0 0
-0.250000 0.500000 -0.250000 1.296875 1.500000 255 0 0
3 0 1 2
3 3 4 5
3 6 7 8
3 9 10 11
3 12 13 5
3 14 15 16
3 0 17 1
3 3 18 4
3 6 19 7
3 9 20 10
3 12 21 13
3 14 22 15
