ply
format ascii 1.0
comment Created by Blender 2.79 (sub 0) - www.blender.org, source file: 'woodbeams.blend'
element vertex 209
property float x
property float y
property float z
property float s
property float t
property uchar red
property uchar green
property uchar blue
element face 107
property list uchar uint vertex_indices
end_header
-0.500000 0.000000 0.200000 2.867188 0.726562 255 0 0
-0.250000 0.000000 -0.200000 2.468750 0.476562 255 0 0
-0.250000 0.000000 0.200000 2.867188 0.476562 255 0 0
-0.500000 0.500000 0.200000 1.546875 2.644531 255 0 0
-0.250000 0.000000 0.200000 1.796875 2.394531 255 0 0
-0.250000 0.500000 0.200000 1.796875 2.644531 255 0 0
-0.500000 0.000000 -0.200000 2.488281 2.472656 255 0 0
-0.250000 0.500000 -0.200000 2.730469 2.726562 255 0 0
-0.250000 0.000000 -0.200000 2.488281 2.726562 255 0 0
-0.250000 0.500000 0.200000 -0.003906 2.800781 255 0 0
-0.500000 0.500000 -0.200000 0.246094 2.394531 255 0 0
-0.500000 0.500000 0.200000 0.246094 2.800781 255 0 0
-0.250000 0.000000 0.200000 1.046875 2.000000 255 255 255
-0.250000 0.500000 -0.200000 0.792969 2.394531 255 255 255
-0.250000 0.500000 0.200000 0.792969 2.000000 255 255 255
-0.497869 0.000000 -0.150000 0.496094 2.058594 255 0 0
-0.250000 -0.672133 -0.150000 0.687500 1.687500 255 0 0
-0.922133 -0.000000 -0.150000 0.687500 2.441406 255 0 0
-0.497869 0.000000 -0.150000 2.593750 1.257812 255 0 0
-0.250000 -0.247868 0.150000 2.296875 1.000000 255 0 0
-0.250000 -0.247868 -0.150000 2.593750 1.000000 255 0 0
-0.250000 -0.672133 -0.150000 0.496094 1.000000 255 0 0
-0.922133 -0.000000 0.150000 0.792969 1.687500 255 0 0
-0.922133 -0.000000 -0.150000 0.496094 1.687500 255 0 0
-0.497869 0.000000 0.150000 2.304688 2.066406 255 0 0
-0.250000 -0.672133 0.150000 2.496094 2.433594 255 0 0
-0.250000 -0.247868 0.150000 2.304688 2.343750 255 0 0
-0.922133 -0.000000 0.150000 2.296875 1.675781 255 0 0
-0.922133 -0.000000 -0.150000 2.593750 1.675781 255 0 0
-0.250000 -0.247868 -0.150000 2.257812 2.000000 255 255 255
-0.250000 -0.672133 0.150000 2.046875 2.300781 255 255 255
-0.250000 -0.672133 -0.150000 2.046875 2.000000 255 255 255
0.500000 0.500000 -0.200000 1.296875 2.394531 255 255 255
0.500000 -0.000000 0.200000 1.546875 2.000000 255 255 255
0.500000 -0.000000 -0.200000 1.546875 2.394531 255 255 255
0.250000 0.000000 0.200000 1.621094 2.718750 255 0 0
0.500000 -0.000000 -0.200000 1.218750 2.472656 255 0 0
0.500000 -0.000000 0.200000 1.621094 2.472656 255 0 0
0.500000 0.500000 -0.200000 2.046875 2.394531 255 0 0
0.250000 0.000000 -0.200000 1.796875 2.644531 255 0 0
0.250000 0.500000 -0.200000 1.796875 2.394531 255 0 0
0.500000 0.500000 0.200000 2.730469 2.078125 255 0 0
0.250000 0.500000 -0.200000 2.488281 2.472656 255 0 0
0.250000 0.500000 0.200000 2.488281 2.078125 255 0 0
0.500000 -0.000000 0.200000 0.746094 2.441406 255 0 0
0.250000 0.500000 0.200000 0.496094 2.687500 255 0 0
0.250000 0.000000 0.200000 0.496094 2.441406 255 0 0
0.250000 0.000000 -0.200000 1.796875 2.394531 255 255 255
0.250000 0.500000 0.200000 2.046875 2.000000 255 255 255
0.250000 0.500000 -0.200000 2.046875 2.394531 255 255 255
0.497869 0.000000 0.150000 0.496094 2.058594 255 0 0
0.250000 -0.672133 0.150000 0.687500 1.687500 255 0 0
0.922133 -0.000000 0.150000 0.687500 2.441406 255 0 0
0.497869 0.000000 0.150000 2.593750 1.257812 255 0 0
0.250000 -0.247868 -0.150000 2.296875 1.000000 255 0 0
0.250000 -0.247868 0.150000 2.593750 1.000000 255 0 0
0.250000 -0.672133 0.150000 0.496094 1.000000 255 0 0
0.922132 0.000000 -0.150000 0.792969 1.687500 255 0 0
0.922133 -0.000000 0.150000 0.496094 1.687500 255 0 0
0.497868 0.000000 -0.150000 2.304688 2.066406 255 0 0
0.250000 -0.672133 -0.150000 2.496094 2.433594 255 0 0
0.250000 -0.247868 -0.150000 2.304688 2.343750 255 0 0
0.922132 0.000000 -0.150000 2.296875 1.675781 255 255 255
0.497869 0.000000 0.150000 2.593750 1.257812 255 255 255
0.922133 -0.000000 0.150000 2.593750 1.675781 255 255 255
0.250000 -0.247868 0.150000 2.257812 2.000000 255 255 255
0.250000 -0.672133 -0.150000 2.046875 2.300781 255 255 255
0.250000 -0.672133 0.150000 2.046875 2.000000 255 255 255
0.250000 -0.247868 0.150000 0.496094 1.781250 255 0 0
0.497868 0.000000 -0.150000 2.296875 1.257812 255 0 0
0.250000 -0.672133 -0.150000 0.792969 1.000000 255 0 0
0.922132 0.000000 -0.150000 2.496094 1.683594 255 0 0
0.497868 0.000000 -0.150000 2.296875 1.257812 255 255 255
0.250000 -0.247868 -0.150000 2.257812 2.300781 255 255 255
0.200000 0.500000 0.500000 1.542969 2.898438 255 0 0
0.200000 0.000000 0.250000 1.800781 2.648438 255 0 0
0.200000 0.500000 0.250000 1.800781 2.898438 255 0 0
-0.200000 0.500000 0.500000 2.796875 -0.003906 255 0 0
0.200000 0.500000 0.250000 2.542969 0.398438 255 0 0
-0.200000 0.500000 0.250000 2.542969 -0.003906 255 0 0
0.200000 0.000000 0.500000 0.320312 2.074219 255 0 0
-0.200000 0.500000 0.500000 -0.078125 2.324219 255 0 0
-0.200000 0.000000 0.500000 -0.078125 2.074219 255 0 0
0.200000 0.000000 0.500000 0.718750 2.468750 255 0 0
-0.200000 0.000000 0.250000 1.121094 2.722656 255 0 0
0.200000 0.000000 0.250000 0.718750 2.722656 255 0 0
-0.200000 0.000000 0.500000 2.597656 1.503906 255 0 0
-0.200000 0.500000 0.250000 2.843750 1.253906 255 0 0
-0.200000 0.000000 0.250000 2.843750 1.503906 255 0 0
0.200000 0.000000 0.250000 2.488281 2.078125 255 255 255
-0.200000 0.500000 0.250000 2.730469 1.675781 255 255 255
0.200000 0.500000 0.250000 2.730469 2.078125 255 255 255
-0.150000 0.000000 0.497869 0.496094 2.058594 255 0 0
-0.150000 -0.672133 0.250000 0.687500 1.687500 255 0 0
-0.150000 -0.000000 0.922133 0.687500 2.441406 255 0 0
-0.150000 0.000000 0.497869 2.593750 1.257812 255 0 0
0.150000 -0.247868 0.250000 2.296875 1.000000 255 0 0
-0.150000 -0.247868 0.250000 2.593750 1.000000 255 0 0
-0.150000 -0.672133 0.250000 0.496094 1.000000 255 0 0
0.150000 -0.000000 0.922133 0.792969 1.687500 255 0 0
-0.150000 -0.000000 0.922133 0.496094 1.687500 255 0 0
0.150000 0.000000 0.497869 2.304688 2.066406 255 0 0
0.150000 -0.672133 0.250000 2.496094 2.433594 255 0 0
0.150000 -0.247868 0.250000 2.304688 2.343750 255 0 0
0.150000 -0.000000 0.922133 2.296875 1.675781 255 0 0
-0.150000 -0.000000 0.922133 2.593750 1.675781 255 0 0
-0.150000 -0.247868 0.250000 2.257812 2.000000 255 255 255
0.150000 -0.672133 0.250000 2.046875 2.300781 255 255 255
-0.150000 -0.672133 0.250000 2.046875 2.000000 255 255 255
-0.250000 0.500000 -0.250000 1.804688 0.507812 255 0 0
0.250000 0.500000 0.250000 2.300781 1.007812 255 0 0
0.250000 0.500000 -0.250000 1.804688 1.007812 255 0 0
-0.250000 0.500000 0.250000 -0.003906 1.500000 255 0 0
0.250000 -0.500000 0.250000 0.496094 1.000000 255 0 0
0.250000 0.500000 0.250000 0.496094 1.500000 255 0 0
-0.250000 -0.500000 0.250000 1.796875 1.500000 255 255 255
0.250000 -0.500000 -0.250000 2.296875 1.000000 255 255 255
0.250000 -0.500000 0.250000 2.296875 1.500000 255 255 255
-0.250000 -0.500000 -0.250000 1.300781 1.003906 255 0 0
0.250000 0.500000 -0.250000 1.796875 0.503906 255 0 0
0.250000 -0.500000 -0.250000 1.796875 1.003906 255 0 0
0.250000 -0.500000 0.250000 0.496094 2.000000 255 0 0
0.250000 0.500000 -0.250000 -0.003906 1.500000 255 0 0
-0.250000 0.500000 0.250000 0.796875 1.500000 255 0 0
-0.250000 -0.500000 -0.250000 1.296875 2.003906 255 0 0
-0.250000 -0.500000 0.250000 0.796875 2.003906 255 0 0
-0.250000 0.500000 0.250000 2.300781 0.507812 255 0 0
-0.250000 -0.500000 0.250000 -0.003906 1.000000 255 0 0
-0.250000 -0.500000 -0.250000 1.796875 1.000000 255 255 255
-0.250000 0.500000 -0.250000 1.300781 0.503906 255 0 0
0.250000 -0.500000 -0.250000 -0.003906 2.000000 255 0 0
-0.250000 0.500000 -0.250000 1.296875 1.500000 255 0 0
0.200000 0.000000 0.500000 1.542969 2.648438 255 0 0
0.200000 0.500000 0.500000 2.796875 0.398438 255 0 0
0.200000 0.500000 0.500000 0.320312 2.324219 255 0 0
-0.200000 0.000000 0.500000 1.121094 2.468750 255 0 0
-0.200000 0.500000 0.500000 2.597656 1.253906 255 0 0
-0.200000 0.000000 0.250000 2.488281 1.675781 255 255 255
-0.150000 -0.247868 0.250000 0.496094 1.781250 255 0 0
0.150000 0.000000 0.497869 2.296875 1.257812 255 0 0
0.150000 -0.672133 0.250000 0.792969 1.000000 255 0 0
0.150000 -0.000000 0.922133 2.496094 1.683594 255 0 0
0.150000 -0.247868 0.250000 2.257812 2.300781 255 255 255
0.500000 0.500000 0.200000 1.296875 2.000000 255 255 255
0.250000 0.000000 -0.200000 1.218750 2.718750 255 0 0
0.500000 -0.000000 -0.200000 2.046875 2.644531 255 0 0
0.500000 0.500000 -0.200000 2.730469 2.472656 255 0 0
0.500000 0.500000 0.200000 0.746094 2.687500 255 0 0
0.250000 0.000000 0.200000 1.796875 2.000000 255 255 255
-0.500000 0.000000 -0.200000 2.468750 0.726562 255 0 0
-0.500000 0.000000 0.200000 1.546875 2.394531 255 0 0
-0.500000 0.500000 -0.200000 2.730469 2.472656 255 0 0
-0.250000 0.500000 -0.200000 -0.003906 2.394531 255 0 0
-0.250000 0.000000 -0.200000 1.046875 2.394531 255 255 255
-0.250000 -0.247868 -0.150000 0.496094 1.781250 255 0 0
-0.497869 0.000000 0.150000 2.296875 1.257812 255 0 0
-0.250000 -0.672133 0.150000 0.792969 1.000000 255 0 0
-0.922133 -0.000000 0.150000 2.496094 1.683594 255 0 0
-0.250000 -0.247868 0.150000 2.257812 2.300781 255 255 255
-0.500000 0.500000 0.200000 2.222656 0.480469 255 0 0
-0.500000 0.000000 -0.200000 2.621094 0.726562 255 0 0
-0.500000 0.000000 0.200000 2.222656 0.726562 255 0 0
-0.500000 0.500000 -0.200000 2.621094 0.480469 255 0 0
-0.200000 0.000000 -0.500000 0.972656 2.472656 255 0 0
0.200000 0.000000 -0.250000 1.375000 2.722656 255 0 0
-0.200000 0.000000 -0.250000 0.972656 2.722656 255 0 0
-0.200000 0.500000 -0.250000 0.496094 2.394531 255 255 255
0.200000 0.000000 -0.250000 0.246094 2.000000 255 255 255
0.200000 0.500000 -0.250000 0.496094 2.000000 255 255 255
0.200000 0.000000 -0.500000 1.375000 2.472656 255 0 0
-0.200000 0.000000 -0.250000 0.246094 2.394531 255 255 255
-0.200000 0.500000 -0.500000 0.976562 2.074219 255 0 0
0.200000 0.000000 -0.500000 1.371094 2.324219 255 0 0
-0.200000 0.000000 -0.500000 0.976562 2.324219 255 0 0
0.200000 0.500000 -0.500000 0.496094 2.394531 255 0 0
-0.200000 0.500000 -0.250000 0.246094 2.796875 255 0 0
0.200000 0.500000 -0.250000 0.246094 2.394531 255 0 0
0.200000 0.000000 -0.500000 2.847656 1.003906 255 0 0
0.200000 0.500000 -0.250000 2.593750 1.253906 255 0 0
0.200000 0.000000 -0.250000 2.593750 1.003906 255 0 0
0.150000 0.000000 -0.497869 0.496094 2.058594 255 0 0
0.150000 -0.672133 -0.250000 0.687500 1.687500 255 0 0
0.150000 -0.000000 -0.922133 0.687500 2.441406 255 0 0
0.150000 0.000000 -0.497869 2.593750 1.257812 255 0 0
-0.150000 -0.247868 -0.250000 2.296875 1.000000 255 0 0
0.150000 -0.247868 -0.250000 2.593750 1.000000 255 0 0
0.150000 -0.672133 -0.250000 0.496094 1.000000 255 0 0
-0.150000 0.000000 -0.922132 0.792969 1.687500 255 0 0
0.150000 -0.000000 -0.922133 0.496094 1.687500 255 0 0
-0.150000 0.000000 -0.497868 2.304688 2.066406 255 0 0
-0.150000 -0.672133 -0.250000 2.496094 2.433594 255 0 0
-0.150000 -0.247868 -0.250000 2.304688 2.343750 255 0 0
-0.150000 0.000000 -0.922132 2.296875 1.675781 255 0 0
0.150000 -0.000000 -0.922133 2.593750 1.675781 255 0 0
0.150000 -0.247868 -0.250000 2.257812 2.000000 255 255 255
-0.150000 -0.672133 -0.250000 2.046875 2.300781 255 255 255
0.150000 -0.672133 -0.250000 2.046875 2.000000 255 255 255
0.200000 0.500000 -0.500000 1.371094 2.074219 255 0 0
-0.200000 0.500000 -0.500000 0.496094 2.796875 255 0 0
0.200000 0.500000 -0.500000 2.847656 1.253906 255 0 0
0.150000 -0.247868 -0.250000 0.496094 1.781250 255 0 0
-0.150000 0.000000 -0.497868 2.296875 1.257812 255 0 0
-0.150000 -0.672133 -0.250000 0.792969 1.000000 255 0 0
-0.150000 0.000000 -0.922132 2.496094 1.683594 255 0 0
-0.150000 -0.247868 -0.250000 2.257812 2.300781 255 255 255
-0.200000 0.500000 -0.250000 2.238281 2.425781 255 0 0
-0.200000 0.500000 -0.500000 2.488281 2.425781 255 0 0
-0.200000 0.000000 -0.500000 2.488281 2.679688 255 0 0
-0.200000 0.000000 -0.250000 2.238281 2.679688 255 0 0
3 0 1 2
3 3 4 5
3 6 7 8
3 9 10 11
3 12 13 14
3 15 16 17
3 18 19 20
3 21 22 23
3 24 25 26
3 27 18 28
3 29 30 31
3 32 33 34
3 35 36 37
3 38 39 40
3 41 42 43
3 44 45 46
3 47 48 49
3 50 51 52
3 53 54 55
3 56 57 58
3 59 60 61
3 62 63 64
3 65 66 67
3 50 68 51
3 53 69 54
3 56 70 57
3 59 71 60
3 62 72 63
3 65 73 66
3 74 75 76
3 77 78 79
3 80 81 82
3 83 84 85
3 86 87 88
3 89 90 91
3 92 93 94
3 95 96 97
3 98 99 100
3 101 102 103
3 104 95 105
3 106 107 108
3 109 110 111
3 112 113 114
3 115 116 117
3 118 119 120
3 121 122 114
3 123 124 125
3 109 126 110
3 112 127 113
3 115 128 116
3 118 129 119
3 121 130 122
3 123 131 124
3 74 132 75
3 77 133 78
3 80 134 81
3 83 135 84
3 86 136 87
3 89 137 90
3 92 138 93
3 95 139 96
3 98 140 99
3 101 141 102
3 104 139 95
3 106 142 107
3 32 143 33
3 35 144 36
3 38 145 39
3 41 146 42
3 44 147 45
3 47 148 48
3 0 149 1
3 3 150 4
3 6 151 7
3 9 152 10
3 12 153 13
3 15 154 16
3 18 155 19
3 21 156 22
3 24 157 25
3 27 155 18
3 29 158 30
3 159 160 161
3 159 162 160
3 163 164 165
3 166 167 168
3 163 169 164
3 166 170 167
3 171 172 173
3 174 175 176
3 177 178 179
3 180 181 182
3 183 184 185
3 186 187 188
3 189 190 191
3 192 183 193
3 194 195 196
3 171 197 172
3 174 198 175
3 177 199 178
3 180 200 181
3 183 201 184
3 186 202 187
3 189 203 190
3 192 201 183
3 194 204 195
4 205 206 207 208
