ply
format ascii 1.0
comment Created by Blender 2.79 (sub 0) - www.blender.org, source file: 'woodbeams.blend'
element vertex 69
property float x
property float y
property float z
property float s
property float t
property uchar red
property uchar green
property uchar blue
element face 36
property list uchar uint vertex_indices
end_header
0.200000 0.500000 0.500000 1.542969 2.898438 255 0 0
0.200000 0.000000 0.250000 1.800781 2.648438 255 0 0
0.200000 0.500000 0.250000 1.800781 2.898438 255 0 0
-0.200000 0.500000 0.500000 2.796875 -0.003906 255 0 0
0.200000 0.500000 0.250000 2.542969 0.398438 255 0 0
-0.200000 0.500000 0.250000 2.542969 -0.003906 255 0 0
0.200000 0.000000 0.500000 0.320312 2.074219 255 0 0
-0.200000 0.500000 0.500000 -0.078125 2.324219 255 0 0
-0.200000 0.000000 0.500000 -0.078125 2.074219 255 0 0
0.200000 0.000000 0.500000 0.718750 2.468750 255 0 0
-0.200000 0.000000 0.250000 1.121094 2.722656 255 0 0
0.200000 0.000000 0.250000 0.718750 2.722656 255 0 0
-0.200000 0.000000 0.500000 2.597656 1.503906 255 0 0
-0.200000 0.500000 0.250000 2.843750 1.253906 255 0 0
-0.200000 0.000000 0.250000 2.843750 1.503906 255 0 0
0.200000 0.000000 0.250000 2.488281 2.078125 255 255 255
-0.200000 0.500000 0.250000 2.730469 1.675781 255 255 255
0.200000 0.500000 0.250000 2.730469 2.078125 255 255 255
-0.150000 0.000000 0.497869 0.496094 2.058594 255 0 0
-0.150000 -0.672133 0.250000 0.687500 1.687500 255 0 0
-0.150000 -0.000000 0.922133 0.687500 2.441406 255 0 0
-0.150000 0.000000 0.497869 2.593750 1.257812 255 0 0
0.150000 -0.247868 0.250000 2.296875 1.000000 255 0 0
-0.150000 -0.247868 0.250000 2.593750 1.000000 255 0 0
-0.150000 -0.672133 0.250000 0.496094 1.000000 255 0 0
0.150000 -0.000000 0.922133 0.792969 1.687500 255 0 0
-0.150000 -0.000000 0.922133 0.496094 1.687500 255 0 0
0.150000 0.000000 0.497869 2.304688 2.066406 255 0 0
0.150000 -0.672133 0.250000 2.496094 2.433594 255 0 0
0.150000 -0.247868 0.250000 2.304688 2.343750 255 0 0
0.150000 -0.000000 0.922133 2.296875 1.675781 255 0 0
-0.150000 -0.000000 0.922133 2.593750 1.675781 255 0 0
-0.150000 -0.247868 0.250000 2.257812 2.000000 255 255 255
0.150000 -0.672133 0.250000 2.046875 2.300781 255 255 255
-0.150000 -0.672133 0.250000 2.046875 2.000000 255 255 255
-0.250000 0.500000 -0.250000 1.804688 0.507812 255 0 0
0.250000 0.500000 0.250000 2.300781 1.007812 255 0 0
0.250000 0.500000 -0.250000 1.804688 1.007812 255 0 0
-0.250000 0.500000 0.250000 -0.003906 1.500000 255 0 0
0.250000 -0.500000 0.250000 0.496094 1.000000 255 0 0
0.250000 0.500000 0.250000 0.496094 1.500000 255 0 0
-0.250000 -0.500000 0.250000 1.796875 1.500000 255 255 255
0.250000 -0.500000 -0.250000 2.296875 1.000000 255 255 255
0.250000 -0.500000 0.250000 2.296875 1.500000 255 255 255
-0.250000 -0.500000 -0.250000 1.300781 1.003906 255 0 0
0.250000 0.500000 -0.250000 1.796875 0.503906 255 0 0
0.250000 -0.500000 -0.250000 1.796875 1.003906 255 0 0
0.250000 -0.500000 0.250000 0.496094 2.000000 255 0 0
0.250000 0.500000 -0.250000 -0.003906 1.500000 255 0 0
-0.250000 0.500000 0.250000 0.796875 1.500000 255 0 0
-0.250000 -0.500000 -0.250000 1.296875 2.003906 255 0 0
-0.250000 -0.500000 0.250000 0.796875 2.003906 255 0 0
-0.250000 0.500000 0.250000 2.300781 0.507812 255 0 0
-0.250000 -0.500000 0.250000 -0.003906 1.000000 255 0 0
-0.250000 -0.500000 -0.250000 1.796875 1.000000 255 255 255
-0.250000 0.500000 -0.250000 1.300781 0.503906 255 0 0
0.250000 -0.500000 -0.250000 -0.003906 2.000000 255 0 0
-0.250000 0.500000 -0.250000 1.296875 1.500000 255 0 0
0.200000 0.000000 0.500000 1.542969 2.648438 255 0 0
0.200000 0.500000 0.500000 2.796875 0.398438 255 0 0
0.200000 0.500000 0.500000 0.320312 2.324219 255 0 0
-0.200000 0.000000 0.500000 1.121094 2.468750 255 0 0
-0.200000 0.500000 0.500000 2.597656 1.253906 255 0 0
-0.200000 0.000000 0.250000 2.488281 1.675781 255 255 255
-0.150000 -0.247868 0.250000 0.496094 1.781250 255 0 0
0.150000 0.000000 0.497869 2.296875 1.257812 255 0 0
0.150000 -0.672133 0.250000 0.792969 1.000000 255 0 0
0.150000 -0.000000 0.922133 2.496094 1.683594 255 0 0
0.150000 -0.247868 0.250000 2.257812 2.300781 255 255 255
3 0 1 2
3 3 4 5
3 6 7 8
3 9 10 11
3 12 13 14
3 15 16 17
3 18 19 20
3 21 22 23
3 24 25 26
3 27 28 29
3 30 21 31
3 32 33 34
3 35 36 37
3 38 39 40
3 41 42 43
3 44 45 46
3 47 48 40
3 49 50 51
3 35 52 36
3 38 53 39
3 41 54 42
3 44 55 45
3 47 56 48
3 49 57 50
3 0 58 1
3 3 59 4
3 6 60 7
3 9 61 10
3 12 62 13
3 15 63 16
3 18 64 19
3 21 65 22
3 24 66 25
3 27 67 28
3 30 65 21
3 32 68 33
