# Blender v2.78 (sub 0) OBJ File: ''
# www.blender.org
mtllib benchrightx-.mtl
o chair_bedx+.042
v 0.499994 -0.057684 -0.297049
v 0.500042 0.386892 0.297488
v 0.499994 -0.057684 -0.397049
v 0.499995 -0.057684 0.302951
v 0.500041 0.386892 0.258415
v 0.499994 -0.057684 0.202951
v 0.500058 0.497484 0.258415
v 0.500058 0.497484 0.297488
v 0.449995 0.022316 0.252951
v 0.449994 0.122316 -0.347049
v 0.449995 0.122316 0.252951
v 0.499995 0.022317 0.302951
v 0.449994 0.022316 -0.347049
v 0.460458 0.112169 0.258521
v -0.437908 0.112169 0.258522
v -0.437908 0.112169 -0.357664
v 0.460458 0.091629 -0.357664
v -0.437908 0.091629 -0.357664
v -0.437908 0.091629 0.258522
v 0.499995 0.666596 0.302951
v 0.499994 0.666596 0.252951
v 0.460458 0.091629 0.258521
v 0.460458 0.112169 -0.357664
v -0.422762 0.525964 0.297488
v -0.422764 0.525964 0.258414
v -0.423182 0.636556 0.258414
v -0.423181 0.636556 0.297488
v 0.500058 0.636556 0.297488
v 0.500058 0.636556 0.258415
v 0.500041 0.525964 0.258415
v 0.500042 0.525964 0.297488
v -0.473679 0.022316 -0.397049
v 0.499994 0.022316 -0.397049
v 0.499994 0.022316 -0.297049
v -0.473678 0.022316 -0.297049
v -0.393678 -0.500000 -0.297049
v -0.473678 -0.500000 -0.297049
v -0.423181 0.497484 0.297488
v 0.499994 0.022316 0.202951
v -0.423182 0.497484 0.258414
v -0.473678 -0.500000 -0.397049
v -0.422764 0.386892 0.258414
v -0.422762 0.386892 0.297488
v 0.499994 0.022316 0.302951
v -0.473677 0.022316 0.302951
v -0.473679 0.022316 0.202951
v -0.473678 -0.500000 0.302951
v -0.473678 -0.500000 0.202951
v -0.393679 -0.057684 -0.397049
v -0.393678 -0.057684 -0.297049
v -0.393678 -0.500000 -0.397049
v -0.393678 -0.500000 0.302951
v -0.473678 0.122316 0.302951
v 0.499995 0.122316 0.302951
v -0.473677 0.022316 0.302951
v -0.423679 0.022316 -0.347049
v -0.473679 0.022316 -0.397049
v 0.499994 0.122316 -0.397049
v -0.423679 0.122316 -0.347049
v -0.473679 0.122316 -0.397049
v 0.499994 0.022316 -0.397049
v -0.423678 0.122316 0.252951
v -0.423677 0.022316 0.252951
v -0.393679 -0.057684 0.202951
v -0.393678 -0.057684 0.302951
v -0.393678 -0.500000 0.202951
v 0.499995 0.746596 0.252951
v 0.499995 0.746596 0.302951
v -0.473679 0.746596 0.302951
v -0.473680 0.746596 0.252951
v -0.473678 0.122316 0.302951
v -0.473678 0.122316 0.252951
v -0.393678 0.122316 0.302951
v -0.393679 0.666596 0.252951
v -0.393678 0.666596 0.302951
v -0.393678 0.122316 0.252951
v 0.500042 0.252971 0.297488
v 0.500041 0.252971 0.258415
v 0.500058 0.363563 0.258414
v 0.500058 0.363563 0.297488
v -0.423181 0.363562 0.297488
v -0.423182 0.363562 0.258414
v -0.422764 0.252970 0.258414
v -0.422762 0.252970 0.297488
v 0.500042 0.125917 0.297488
v 0.500041 0.125917 0.258415
v 0.500058 0.236509 0.258414
v 0.500058 0.236509 0.297488
v -0.423181 0.236509 0.297488
v -0.423182 0.236509 0.258414
v -0.422764 0.125917 0.258414
v -0.422762 0.125917 0.297488
vt 0.0702 0.8875
vt 0.1053 0.8875
vt 0.1053 0.6785
vt 0.0702 0.9050
vt 0.0702 0.6785
vt 0.6515 0.3392
vt 0.4353 0.6522
vt 0.6515 0.6522
vt 0.4353 0.3392
vt 0.2191 0.6522
vt 0.4353 0.6522
vt 0.2191 0.3392
vt 0.4353 0.3392
vt 1.0000 0.6609
vt 0.9863 0.9824
vt 1.0000 0.9824
vt 0.8736 0.6609
vt 0.9124 0.3392
vt 0.8736 0.3392
vt 0.4411 0.9739
vt 0.4023 0.6523
vt 0.4023 0.9738
vt 0.9863 0.6609
vt 0.4800 0.6522
vt 0.4411 0.6524
vt 0.4411 0.9739
vt 0.8701 0.3217
vt 0.8701 0.0000
vt 0.8313 0.0000
vt 1.0000 0.3392
vt 0.9863 0.6609
vt 1.0000 0.6609
vt 0.9863 0.3392
vt 0.9828 0.0000
vt 0.9477 0.3392
vt 0.9828 0.3392
vt 0.2191 0.9915
vt 0.4023 0.9915
vt 0.4023 0.9636
vt 0.7354 0.6785
vt 0.7217 0.6785
vt 0.7217 1.0000
vt 0.9512 0.6609
vt 0.9124 0.3392
vt 0.9124 0.6608
vt 0.1754 0.8605
vt 0.1404 0.6785
vt 0.1404 0.8605
vt 0.9477 0.0000
vt 0.9089 0.3217
vt 0.9477 0.0000
vt 0.9089 0.0000
vt 0.7354 1.0000
vt 0.1754 0.6785
vt 0.9199 0.9826
vt 0.9199 0.6609
vt 0.9062 0.9826
vt 0.5150 0.9915
vt 0.5150 0.6522
vt 0.4800 0.9915
vt 0.1754 0.6785
vt 0.2105 0.8605
vt 0.2105 0.6785
vt 0.6480 0.3392
vt 0.8313 0.3392
vt 0.8032 0.3114
vt 0.8313 0.0000
vt 0.8032 0.0000
vt 0.2471 0.9636
vt 0.2471 0.6522
vt 0.9062 0.6609
vt 0.6203 0.6522
vt 0.5852 0.6522
vt 0.5852 0.9636
vt 0.6866 0.6785
vt 0.6515 0.6785
vt 0.6515 0.8326
vt 0.9512 0.3392
vt 0.8348 0.3392
vt 0.6515 0.3392
vt 0.6515 0.3671
vt 0.9477 0.3215
vt 0.4800 0.6522
vt 0.6480 0.3114
vt 0.2191 0.6522
vt 0.7628 0.6785
vt 0.7491 1.0000
vt 0.7628 1.0000
vt 0.6203 0.9636
vt 0.6866 0.8326
vt 0.5150 0.9915
vt 0.5501 0.6522
vt 0.5150 0.6522
vt 0.7804 0.9224
vt 0.7804 0.6785
vt 0.7628 0.6959
vt 0.0702 0.9224
vt 0.0351 0.6785
vt 0.0351 0.9224
vt 0.0000 0.0000
vt 0.0000 0.3392
vt 0.0175 0.3218
vt 0.0351 0.9224
vt 0.0000 0.6785
vt 0.0000 0.9224
vt 0.5501 0.9915
vt 0.0702 0.6785
vt 0.2456 0.0000
vt 0.0175 0.0174
vt 0.0351 0.6785
vt 0.9512 0.3392
vt 0.9863 0.6785
vt 0.9863 0.3392
vt 0.9512 0.6785
vt 0.2456 0.3392
vt 0.2281 0.3218
vt 0.2281 0.0174
vt 0.7979 0.9224
vt 0.7979 0.6785
vt 0.7804 0.6959
vt 0.8699 0.9653
vt 0.9050 0.9653
vt 0.9050 0.6609
vt 0.1053 0.8875
vt 0.1404 0.8875
vt 0.1404 0.6785
vt 0.8348 0.9653
vt 0.8699 0.9653
vt 0.8699 0.6609
vt 0.7628 0.9050
vt 0.7804 0.9050
vt 0.8699 0.6609
vt 0.1053 0.6785
vt 0.8348 0.6609
vt 0.1754 0.8605
vt 0.4647 0.3392
vt 0.6480 0.3392
vt 0.6199 0.3114
vt 0.6480 0.0000
vt 0.6199 0.0000
vt 0.8067 0.3671
vt 0.8067 0.6785
vt 0.4800 0.9739
vt 0.5852 0.6522
vt 0.5501 0.6522
vt 0.5501 0.9636
vt 0.7217 0.6785
vt 0.6866 0.6785
vt 0.6866 0.8326
vt 0.8313 0.3215
vt 0.4647 0.3114
vt 0.8348 0.6785
vt 0.7491 0.6785
vt 0.5852 0.9636
vt 0.7217 0.8326
vt 0.6203 0.6522
vt 0.6203 0.9915
vt 0.6379 0.6522
vt 0.7979 0.6785
vt 0.8154 0.8960
vt 0.8154 0.6785
vt 0.2191 0.3392
vt 0.0000 0.3392
vt 0.0000 0.3671
vt 0.6379 0.9915
vt 0.7979 0.8960
vt 0.2456 0.3392
vt 0.4647 0.3392
vt 0.4366 0.3114
vt 0.4647 0.0000
vt 0.4366 0.0000
vt 0.1910 0.3671
vt 0.1910 0.6785
vt 0.9512 0.6609
vt 0.9337 0.6609
vt 0.9337 0.9723
vt 0.8154 0.8681
vt 0.8330 0.8681
vt 0.8330 0.6785
vt 0.2456 0.3114
vt 0.2191 0.6785
vt 0.9512 0.9723
vt 0.8154 0.6785
vt 0.9199 0.6609
vt 0.9199 0.9826
vt 0.9337 0.6609
vt 0.9337 0.9826
vt 0.4411 0.6522
vt 0.9124 0.6608
vt 0.7491 0.6785
vt 0.7354 1.0000
vt 0.7491 1.0000
vt 0.8348 0.6609
vt 0.8736 0.3392
vt 0.8348 0.3392
vt 0.9089 0.3217
vt 0.8701 0.0000
vt 0.8701 0.3215
vt 0.7354 0.6785
vt 0.9965 0.3217
vt 0.9965 0.0000
vt 0.9828 0.3217
vt 0.9828 0.0000
vt 0.9089 0.0000
vt 0.8736 0.6608
vn -1.0000 -0.0000 0.0000
vn -0.7071 -0.0000 0.7071
vn -0.0000 1.0000 -0.0000
vn 0.0000 -1.0000 0.0000
vn 0.7065 -0.7071 -0.0299
vn -0.0000 0.0000 1.0000
vn -0.0000 -0.0000 -1.0000
vn 0.0544 -0.9985 -0.0022
vn 0.0000 -0.9992 0.0408
vn 0.7566 -0.6539 -0.0059
vn 0.5951 -0.8033 0.0249
vn 1.0000 0.0000 -0.0000
vn 0.9985 0.0000 0.0546
vn 0.7071 -0.6897 0.1559
vn 0.7027 -0.7071 -0.0786
vn 0.7572 0.0061 -0.6532
vn 0.7071 0.0000 -0.7071
vn 0.7071 0.7071 -0.0000
vn 0.7239 -0.6899 -0.0000
vn -0.1278 -0.7125 0.6899
vn -0.0000 0.7071 0.7071
vn 0.7025 0.0804 -0.7071
vn 0.7025 -0.0804 0.7071
vn 0.7445 -0.6677 -0.0029
vn 0.6656 -0.7463 0.0036
vn 0.7071 -0.7042 0.0647
vn 0.7060 -0.7071 -0.0395
usemtl None.046
s off
f 9/1/1 11/2/1 10/3/1
f 11/2/2 9/1/2 12/4/2
f 9/1/1 10/3/1 13/5/1
f 14/6/3 16/7/3 15/8/3
f 17/9/4 19/10/4 18/11/4
f 17/9/4 22/12/4 19/10/4
f 14/6/3 23/13/3 16/7/3
s 1
f 84/14/5 78/15/4 77/16/4
f 81/17/6 77/18/6 80/19/6
f 82/20/7 78/21/7 83/22/7
f 84/14/8 83/23/9 78/15/4
f 27/24/6 24/25/6 31/26/6
f 26/27/7 29/28/7 30/29/7
f 26/30/3 28/31/3 29/32/3
f 27/33/3 28/31/3 26/30/3
f 32/34/3 34/35/3 33/36/3
f 35/37/6 37/38/6 36/39/6
f 43/40/8 42/41/9 5/42/4
f 40/43/7 5/44/7 42/45/7
f 37/46/1 32/47/1 41/48/1
f 35/49/3 34/35/3 32/34/3
f 38/50/6 2/51/6 8/52/6
f 43/40/5 5/42/4 2/53/4
f 35/54/1 32/47/1 37/46/1
f 38/55/3 8/56/3 40/57/3
f 45/58/3 44/59/3 46/60/3
f 47/61/1 46/62/1 48/63/1
f 41/64/7 32/65/7 49/66/7
f 32/65/7 33/67/7 3/68/7
f 35/37/6 50/69/6 1/70/6
f 40/57/3 8/56/3 7/71/3
f 50/72/10 49/73/11 3/74/4
f 36/75/12 51/76/13 49/77/14
f 40/43/7 7/78/7 5/44/7
f 35/37/6 36/39/6 50/69/6
f 45/79/6 47/80/6 52/81/6
f 38/50/6 43/82/6 2/51/6
f 46/60/3 44/59/3 39/83/3
f 41/64/7 49/66/7 51/84/7
f 32/65/7 3/68/7 49/66/7
f 35/37/6 1/70/6 34/85/6
f 24/86/5 30/87/4 31/88/4
f 50/72/15 3/74/4 1/89/4
f 36/75/12 49/77/11 50/90/10
f 53/91/6 12/92/6 54/93/6
f 55/94/4 57/95/4 56/96/4
f 12/97/12 58/98/12 54/99/12
f 58/100/3 60/101/3 59/102/3
f 57/103/1 53/104/1 60/105/1
f 55/106/6 12/92/6 53/91/6
f 61/107/12 58/98/12 12/97/12
f 54/108/3 58/100/3 10/109/3
f 55/110/1 53/104/1 57/103/1
f 61/111/7 60/112/7 58/113/7
f 57/114/7 60/112/7 61/111/7
f 60/101/3 53/115/3 62/116/3
f 53/115/3 54/108/3 11/117/3
f 61/118/4 12/119/4 9/120/4
f 63/121/16 62/122/17 11/123/7
f 56/124/18 59/125/19 62/126/17
f 59/127/20 56/128/21 13/129/6
f 55/94/4 56/96/4 63/130/4
f 58/100/3 59/102/3 10/109/3
f 54/108/3 10/109/3 11/117/3
f 60/101/3 62/116/3 59/102/3
f 53/115/3 11/117/3 62/116/3
f 61/118/4 9/120/4 13/131/4
f 63/121/22 11/123/7 9/132/7
f 56/124/18 62/126/17 63/133/16
f 59/127/23 13/129/6 10/134/6
f 45/135/1 46/62/1 47/61/1
f 48/136/7 46/137/7 64/138/7
f 46/137/7 39/139/7 6/140/7
f 45/79/6 65/141/6 4/142/6
f 27/24/6 31/26/6 28/143/6
f 65/144/10 64/145/11 6/146/4
f 52/147/12 66/148/13 64/149/14
f 45/79/6 52/81/6 65/141/6
f 26/27/7 30/29/7 25/150/7
f 48/136/7 64/138/7 66/151/7
f 46/137/7 6/140/7 64/138/7
f 45/79/6 4/142/6 44/152/6
f 24/86/8 25/153/9 30/87/4
f 65/144/15 6/146/4 4/154/4
f 52/147/12 64/149/11 65/155/10
f 69/156/3 68/157/3 70/158/3
f 71/159/1 70/160/1 72/161/1
f 69/162/6 71/163/6 73/164/6
f 70/158/3 68/157/3 67/165/3
f 69/166/1 70/160/1 71/159/1
f 72/167/7 70/168/7 74/169/7
f 70/168/7 67/170/7 21/171/7
f 69/162/6 75/172/6 20/173/6
f 75/174/24 74/175/25 21/176/4
f 73/177/12 76/178/13 74/179/26
f 69/162/6 73/164/6 75/172/6
f 72/167/7 74/169/7 76/180/7
f 70/168/7 21/171/7 74/169/7
f 69/162/6 20/173/6 68/181/6
f 75/174/27 21/176/4 20/182/4
f 73/177/12 74/179/25 75/183/24
f 81/184/3 80/185/3 82/186/3
f 82/186/3 80/185/3 79/187/3
f 82/20/7 79/188/7 78/21/7
f 81/17/6 84/189/6 77/18/6
f 92/190/5 86/191/4 85/192/4
f 89/193/6 85/194/6 88/195/6
f 90/196/7 86/197/7 91/198/7
f 92/190/8 91/199/9 86/191/4
f 89/200/3 88/201/3 90/202/3
f 90/202/3 88/201/3 87/203/3
f 90/196/7 87/204/7 86/197/7
f 89/193/6 92/205/6 85/194/6
