ply
format ascii 1.0
comment Created by Blender 2.79 (sub 0) - www.blender.org, source file: 'columnbase.blend'
element vertex 106
property float x
property float y
property float z
property float s
property float t
property uchar red
property uchar green
property uchar blue
element face 88
property list uchar uint vertex_indices
end_header
0.000000 0.500000 0.475000 0.199219 1.000000 255 0 0
-0.146783 -0.400000 0.451752 0.097656 0.000000 255 0 0
0.000000 -0.400000 0.475000 0.199219 0.000000 255 0 0
-0.146783 0.500000 0.451752 0.097656 1.000000 255 0 0
-0.279198 -0.400000 0.384283 -0.000000 0.000000 255 0 0
-0.279198 0.500000 0.384283 1.000000 1.000000 255 0 0
-0.384283 -0.400000 0.279198 0.899936 0.000080 255 0 0
-0.279198 -0.400000 0.384283 0.999920 0.000080 255 0 0
-0.384283 0.500000 0.279198 0.902344 1.000000 255 0 0
-0.451752 -0.400000 0.146783 0.799952 0.000080 255 0 0
-0.451752 0.500000 0.146783 0.800781 1.000000 255 0 0
-0.475000 -0.400000 -0.000000 0.699968 0.000080 255 0 0
-0.475000 0.500000 -0.000000 0.699219 1.000000 255 0 0
-0.451752 -0.400000 -0.146783 0.599984 0.000080 255 0 0
-0.451752 0.500000 -0.146783 0.597656 1.000000 255 0 0
-0.384283 -0.400000 -0.279198 0.500000 0.000080 255 0 0
-0.384283 0.500000 -0.279198 0.500000 1.000000 255 0 0
-0.279198 -0.400000 -0.384283 0.400016 0.000080 255 0 0
-0.279198 0.500000 -0.384283 0.398438 1.000000 255 0 0
-0.146783 -0.400000 -0.451752 0.300032 0.000080 255 0 0
-0.146783 0.500000 -0.451752 0.300781 1.000000 255 0 0
0.000000 -0.400000 -0.475000 0.200048 0.000080 255 0 0
0.000000 0.500000 -0.475000 0.199219 1.000000 255 0 0
0.146783 -0.400000 -0.451752 0.100064 0.000081 255 0 0
0.146783 0.500000 -0.451752 0.101562 1.000000 255 0 0
0.279198 -0.400000 -0.384283 0.000080 0.000081 255 0 0
0.279198 0.500000 -0.384283 1.000000 1.000000 255 0 0
0.384283 -0.400000 -0.279198 0.898438 0.000000 255 0 0
0.279198 -0.400000 -0.384283 1.000000 0.000000 255 0 0
0.384283 0.500000 -0.279198 0.898438 1.000000 255 0 0
0.451752 -0.400000 -0.146783 0.800781 0.000000 255 0 0
0.451752 0.500000 -0.146783 0.800781 1.000000 255 0 0
0.475000 -0.400000 0.000000 0.699219 0.000000 255 0 0
0.475000 0.500000 0.000000 0.699219 1.000000 255 0 0
0.451752 -0.400000 0.146784 0.597656 0.000000 255 0 0
0.451752 0.500000 0.146784 0.597656 1.000000 255 0 0
0.384283 -0.400000 0.279198 0.500000 0.000000 255 0 0
0.384283 0.500000 0.279198 0.500000 1.000000 255 0 0
0.279197 -0.400000 0.384283 0.398438 0.000000 255 0 0
0.451752 0.500000 -0.146783 0.142111 0.142111 255 0 0
0.000000 0.500000 -0.475000 0.729779 0.049035 255 0 0
-0.451752 0.500000 -0.146783 0.999898 0.579177 255 0 0
0.279197 0.500000 0.384283 0.398438 1.000000 255 0 0
0.146782 -0.400000 0.451752 0.300781 0.000000 255 0 0
0.146782 0.500000 0.451752 0.300781 1.000000 255 0 0
-0.384283 -0.400000 -0.279198 0.729779 0.950966 255 0 0
0.475000 -0.400000 0.000000 0.049034 0.270221 255 0 0
0.146782 -0.400000 0.451752 0.579176 0.000100 255 0 0
-0.279198 0.500000 0.384283 0.000000 1.000000 255 0 0
0.279198 0.500000 -0.384283 -0.000000 1.000000 255 0 0
-0.279198 0.500000 0.384283 0.579176 0.999900 255 0 0
-0.146783 0.500000 0.451752 0.420824 0.999900 255 0 0
0.000000 0.500000 0.475000 0.270222 0.950967 255 0 0
0.146782 0.500000 0.451752 0.142112 0.857890 255 0 0
0.279197 0.500000 0.384283 0.049034 0.729779 255 0 0
0.384283 0.500000 0.279198 0.000100 0.579176 255 0 0
0.451752 0.500000 0.146784 0.000100 0.420823 255 0 0
0.475000 0.500000 0.000000 0.049034 0.270221 255 0 0
0.384283 0.500000 -0.279198 0.270222 0.049033 255 0 0
0.279198 0.500000 -0.384283 0.420824 0.000100 255 0 0
0.146783 0.500000 -0.451752 0.579177 0.000100 255 0 0
-0.146783 0.500000 -0.451752 0.857888 0.142112 255 0 0
-0.279198 0.500000 -0.384283 0.950965 0.270222 255 0 0
-0.384283 0.500000 -0.279198 0.999898 0.420824 255 0 0
-0.475000 0.500000 -0.000000 0.950964 0.729779 255 0 0
-0.451752 0.500000 0.146783 0.857887 0.857889 255 0 0
-0.384283 0.500000 0.279198 0.729778 0.950966 255 0 0
0.000000 -0.400000 0.475000 0.729778 0.049034 255 0 0
-0.146783 -0.400000 0.451752 0.857888 0.142111 255 0 0
-0.279198 -0.400000 0.384283 0.950965 0.270221 255 0 0
-0.384283 -0.400000 0.279198 0.999899 0.420824 255 0 0
-0.451752 -0.400000 0.146783 0.999899 0.579176 255 0 0
-0.475000 -0.400000 -0.000000 0.950966 0.729779 255 0 0
-0.451752 -0.400000 -0.146783 0.857888 0.857889 255 0 0
-0.279198 -0.400000 -0.384283 0.579176 0.999900 255 0 0
-0.146783 -0.400000 -0.451752 0.420824 0.999900 255 0 0
0.000000 -0.400000 -0.475000 0.270221 0.950966 255 0 0
0.146783 -0.400000 -0.451752 0.142111 0.857889 255 0 0
0.279198 -0.400000 -0.384283 0.049034 0.729779 255 0 0
0.384283 -0.400000 -0.279198 0.000100 0.579176 255 0 0
0.451752 -0.400000 -0.146783 0.000100 0.420824 255 0 0
0.451752 -0.400000 0.146784 0.142111 0.142111 255 0 0
0.384283 -0.400000 0.279198 0.270222 0.049033 255 0 0
0.279197 -0.400000 0.384283 0.420824 0.000100 255 0 0
0.500000 0.000000 -0.500000 0.000100 0.000100 255 0 0
0.500000 -0.500000 0.500000 1.000000 0.333332 255 0 0
0.500000 -0.500000 -0.500000 0.000000 0.333332 255 0 0
0.500000 0.000000 0.500000 0.000100 0.000100 255 0 0
-0.500000 -0.500000 0.500000 0.999900 0.333332 255 0 0
0.500000 -0.500000 0.500000 0.000100 0.333332 255 0 0
-0.500000 0.000000 0.500000 0.999900 0.333332 255 0 0
-0.500000 -0.500000 -0.500000 0.000100 0.000100 255 0 0
-0.500000 -0.500000 0.500000 0.999900 0.000100 255 0 0
-0.500000 0.000000 -0.500000 0.999900 0.333332 255 0 0
0.500000 -0.500000 -0.500000 0.000100 0.000100 255 0 0
-0.500000 -0.500000 -0.500000 0.999900 0.000100 255 0 0
0.500000 -0.500000 -0.500000 0.000100 0.999900 255 0 0
0.500000 -0.500000 0.500000 0.000100 0.000100 255 0 0
0.500000 0.000000 0.500000 0.000100 0.999900 255 0 0
-0.500000 0.000000 -0.500000 0.999900 0.000100 255 0 0
-0.500000 0.000000 0.500000 0.999900 0.999900 255 0 0
0.500000 0.000000 0.500000 1.000000 0.000100 255 0 0
-0.500000 0.000000 0.500000 0.999900 0.000100 255 0 0
-0.500000 0.000000 -0.500000 0.000000 0.333332 255 0 0
0.500000 0.000000 -0.500000 0.000100 0.333332 255 0 0
-0.500000 -0.500000 -0.500000 0.999900 0.999900 255 0 0
3 0 1 2
3 3 4 1
3 5 6 7
3 8 9 6
3 10 11 9
3 12 13 11
3 14 15 13
3 16 17 15
3 18 19 17
3 20 21 19
3 22 23 21
3 24 25 23
3 26 27 28
3 29 30 27
3 31 32 30
3 33 34 32
3 35 36 34
3 37 38 36
3 39 40 41
3 42 43 38
3 44 2 43
3 45 46 47
3 0 3 1
3 3 48 4
3 5 8 6
3 8 10 9
3 10 12 11
3 12 14 13
3 14 16 15
3 16 18 17
3 18 20 19
3 20 22 21
3 22 24 23
3 24 49 25
3 26 29 27
3 29 31 30
3 31 33 32
3 33 35 34
3 35 37 36
3 37 42 38
3 50 51 52
3 52 53 54
3 54 55 56
3 56 57 39
3 39 58 59
3 59 60 39
3 60 40 39
3 40 61 41
3 61 62 41
3 62 63 41
3 41 64 65
3 65 66 41
3 66 50 41
3 50 52 54
3 54 56 39
3 50 54 41
3 54 39 41
3 42 44 43
3 44 0 2
3 47 67 68
3 68 69 47
3 69 70 47
3 70 71 45
3 71 72 45
3 72 73 45
3 45 74 75
3 75 76 77
3 77 78 79
3 79 80 46
3 46 81 82
3 82 83 47
3 45 75 77
3 77 79 46
3 46 82 47
3 47 70 45
3 45 77 46
3 84 85 86
3 87 88 89
3 90 91 92
3 93 94 95
3 92 96 97
3 98 99 100
3 84 101 85
3 87 102 88
3 90 103 91
3 93 104 94
3 92 105 96
3 98 84 99
