ply
format ascii 1.0
comment Created by Blender 2.82 (sub 7) - www.blender.org, source file: ''
element vertex 31
property float x
property float y
property float z
property float s
property float t
property uchar red
property uchar green
property uchar blue
property uchar alpha
element face 20
property list uchar uint vertex_indices
end_header
0.500000 0.000000 -0.500001 0.000000 0.500000 255 255 255 255
0.000000 -0.500000 -0.500000 0.500000 0.000000 255 255 255 255
0.000000 0.000000 -0.500000 0.500000 0.500000 255 255 255 255
0.000000 -0.500000 -0.500000 0.000000 0.000000 255 255 255 255
0.000000 0.000000 0.000000 0.500000 0.500000 255 255 255 255
0.000000 0.000000 -0.500000 0.000000 0.500000 255 255 255 255
0.500000 -0.500000 0.500000 0.000000 -0.000000 255 255 255 255
0.500000 0.000000 -0.500001 1.000000 0.500000 255 255 255 255
0.500000 -0.000000 0.500000 0.000000 0.500000 255 255 255 255
-0.500000 -0.000000 0.500000 0.000000 0.500000 255 255 255 255
0.500000 -0.500000 0.500000 1.000000 0.000000 255 255 255 255
0.500000 -0.000000 0.500000 1.000000 0.500000 255 255 255 255
-0.500000 0.000000 0.000000 1.000000 0.500000 255 255 255 255
0.000000 -0.500000 -0.000000 0.500000 0.000000 255 255 255 255
-0.500000 -0.500000 -0.000000 1.000000 0.000000 255 255 255 255
-0.500000 0.000000 0.000000 0.500000 0.500000 255 255 255 255
-0.500000 -0.500000 0.500000 1.000000 0.000000 255 255 255 255
-0.500000 -0.000000 0.500000 1.000000 0.500000 255 255 255 255
-0.500000 -0.000000 0.500000 0.000000 0.000000 255 255 255 255
0.500000 -0.000000 0.500000 1.000000 0.000000 255 255 255 255
0.000000 -0.500000 -0.000000 0.500000 0.500000 255 255 255 255
0.500000 -0.500000 -0.500001 1.000000 0.000000 255 255 255 255
0.500000 -0.500000 0.500000 1.000000 1.000000 255 255 255 255
0.500000 -0.500000 -0.500001 0.000000 0.000000 255 255 255 255
-0.500000 -0.500000 0.500000 0.000000 0.000000 255 255 255 255
-0.500000 -0.500000 -0.000000 0.500000 0.000000 255 255 255 255
-0.500000 0.000000 0.000000 0.000000 0.499999 255 255 255 255
0.500000 0.000000 -0.500001 1.000000 1.000000 255 255 255 255
0.000000 0.000000 -0.500000 0.500000 0.999999 255 255 255 255
-0.500000 -0.500000 0.500000 0.000000 1.000000 255 255 255 255
-0.500000 -0.500000 -0.000000 0.000000 0.500000 255 255 255 255
3 0 1 2
3 3 4 5
3 6 7 8
3 9 10 11
3 12 13 14
3 15 16 17
3 4 18 19
3 20 21 22
3 0 23 1
3 3 13 4
3 6 21 7
3 9 24 10
3 12 4 13
3 15 25 16
3 4 26 18
3 19 27 4
3 27 28 4
3 29 30 20
3 20 1 21
3 22 29 20
