# Blender v2.78 (sub 0) OBJ File: 'halfcubetest.blend'
# www.blender.org
v -0.209519 -0.209519 -0.197800
v -0.791640 -0.791640 -0.799957
v -0.209519 0.209519 -0.197800
v -0.791640 0.791640 -0.799957
v 0.209519 -0.209519 -0.197800
v 0.791640 -0.791640 -0.799957
v 0.209519 0.209519 -0.197800
v 0.791640 0.791640 -0.799957
v 0.216676 -0.216676 -0.312021
v 0.806122 -0.806122 -0.266671
v 0.216676 0.216676 -0.312021
v 0.806122 0.806122 -0.266671
v -0.216676 0.216676 -0.312021
v -0.806122 0.806122 -0.266671
v -0.216676 -0.216676 -0.312021
v -0.806122 -0.806122 -0.266671
v -0.729759 -0.163955 -0.305359
v -0.729759 0.163955 -0.305359
v -0.842097 0.231141 -0.239106
v -0.842097 -0.231141 -0.239106
v -0.230363 -0.230363 -0.834834
v -0.230363 0.230363 -0.834834
v 0.230363 0.230363 -0.834834
v 0.230363 -0.230363 -0.834834
v 0.231141 0.842097 -0.239106
v -0.231141 0.842097 -0.239106
v -0.163955 0.729759 -0.305359
v 0.163955 0.729759 -0.305359
v -0.231141 -0.842097 -0.239106
v 0.231141 -0.842097 -0.239106
v 0.163955 -0.729759 -0.305359
v -0.163955 -0.729759 -0.305359
v 0.842097 -0.231141 -0.239106
v 0.842097 0.231141 -0.239106
v 0.729759 0.163955 -0.305359
v 0.729759 -0.163955 -0.305359
vt 0.6250 0.1250
vt 0.3750 0.1250
vt 0.3750 0.1250
vt 0.3750 0.1250
vt 0.6250 0.1250
vt 0.6250 0.2500
vt 0.6250 0.1250
vt 0.6250 0.2500
vt 0.6250 0.2500
vt 0.3750 0.2500
vt 0.3750 0.2500
vt 0.3750 0.2500
vt 0.6250 0.2500
vt 0.3750 0.2500
vt 0.6250 0.5000
vt 0.6250 0.5000
vt 0.3750 0.5000
vt 0.6250 0.5000
vt 0.3750 0.5000
vt 0.3750 0.5000
vt 0.8750 0.5000
vt 0.6250 0.5000
vt 0.8750 0.5000
vt 0.8750 0.6250
vt 0.8750 0.5000
vt 0.8750 0.6250
vt 0.6250 0.6250
vt 0.8750 0.6250
vt 0.6250 0.6250
vt 0.6250 0.6250
vt 0.3750 0.5000
vt 0.1250 0.5000
vt 0.1250 0.5000
vt 0.3750 0.6250
vt 0.3750 0.6250
vt 0.1250 0.6250
vt 0.3750 0.6250
vt 0.1250 0.6250
vt 0.1250 0.6250
vt 0.1250 0.5000
vt 0.6250 0.5000
vt 0.3750 0.5000
vt 0.6250 0.6250
vt 0.3750 0.6250
vn -0.0130 0.0000 -0.9999
vn -0.4519 0.0000 -0.8920
vn -0.1011 0.9925 0.0685
vn -0.9977 0.0610 -0.0288
vn -0.0652 0.0000 0.9979
vn -0.9960 0.0000 -0.0896
vn 0.0683 -0.7561 -0.6509
vn -0.9929 0.1166 -0.0238
vn 0.9995 0.0000 -0.0327
vn -0.0620 0.0000 -0.9981
vn 0.0000 -0.9995 -0.0327
vn 0.0000 0.0620 -0.9981
vn -0.9995 0.0000 -0.0327
vn 0.0620 0.0000 -0.9981
vn 0.0000 0.9995 -0.0327
vn 0.0000 -0.0620 -0.9981
vn 0.0000 0.0652 0.9979
vn 0.0000 0.9960 -0.0896
vn -0.7561 -0.0683 -0.6509
vn 0.1166 0.9929 -0.0238
vn 0.0000 0.0130 -0.9999
vn 0.0000 0.4519 -0.8920
vn 0.9925 0.1011 0.0685
vn 0.0610 0.9977 -0.0288
vn 0.0000 -0.0652 0.9979
vn 0.0000 -0.9960 -0.0896
vn 0.7561 0.0683 -0.6509
vn -0.1166 -0.9929 -0.0238
vn 0.0000 -0.0130 -0.9999
vn 0.0000 -0.4519 -0.8920
vn -0.9925 -0.1011 0.0685
vn -0.0610 -0.9977 -0.0288
vn 0.0652 0.0000 0.9979
vn 0.9960 0.0000 -0.0896
vn -0.0683 0.7561 -0.6509
vn 0.9929 -0.1166 -0.0238
vn 0.0130 0.0000 -0.9999
vn 0.4519 0.0000 -0.8920
vn 0.1011 -0.9925 0.0685
vn 0.9977 -0.0610 -0.0288
vn 0.0683 0.7561 -0.6509
vn 0.5120 0.0091 0.8589
vn -0.1011 -0.9925 0.0685
vn 0.6425 -0.5124 0.5698
vn -0.9925 0.1011 0.0685
vn -0.5124 -0.6425 0.5698
vn 0.7561 -0.0683 -0.6509
vn 0.0091 -0.5120 0.8589
vn 0.9925 -0.1011 0.0685
vn 0.5124 0.6425 0.5698
vn -0.7561 0.0683 -0.6509
vn -0.0091 0.5120 0.8589
vn 0.1011 0.9925 0.0685
vn -0.6425 0.5124 0.5698
vn -0.0683 -0.7561 -0.6509
vn -0.5120 -0.0091 0.8589
s off
f 18/1/1 15/2/1 17/3/1
f 18/1/2 16/4/2 14/5/2
f 18/1/3 3/6/3 13/7/3
f 19/8/4 14/5/4 4/9/4
f 20/10/5 3/6/5 19/8/5
f 19/8/6 2/11/6 20/10/6
f 17/3/7 1/12/7 20/10/7
f 17/3/8 2/11/8 16/4/8
f 22/13/9 1/12/9 21/14/9
f 21/14/10 4/9/10 22/13/10
f 23/15/11 3/6/11 22/13/11
f 22/13/12 8/16/12 23/15/12
f 24/17/13 7/18/13 23/15/13
f 23/15/14 6/19/14 24/17/14
f 21/14/15 5/20/15 24/17/15
f 24/17/16 2/11/16 21/14/16
f 26/21/17 7/18/17 25/22/17
f 25/22/18 4/23/18 26/21/18
f 27/24/19 3/25/19 26/21/19
f 27/24/20 4/23/20 14/26/20
f 28/27/21 13/28/21 27/24/21
f 28/27/22 14/26/22 12/29/22
f 28/27/23 7/18/23 11/30/23
f 25/22/24 12/29/24 8/16/24
f 30/31/25 1/32/25 29/33/25
f 29/33/26 6/19/26 30/31/26
f 31/34/27 5/20/27 30/31/27
f 31/34/28 6/19/28 10/35/28
f 32/36/29 9/37/29 31/34/29
f 32/36/30 10/35/30 16/38/30
f 32/36/31 1/32/31 15/39/31
f 29/33/32 16/38/32 2/40/32
f 34/41/33 5/20/33 33/42/33
f 33/42/34 8/16/34 34/41/34
f 35/43/35 7/18/35 34/41/35
f 35/43/36 8/16/36 12/29/36
f 36/44/37 11/30/37 35/43/37
f 36/44/38 12/29/38 10/35/38
f 36/44/39 5/20/39 9/37/39
f 33/42/40 10/35/40 6/19/40
f 18/1/1 13/7/1 15/2/1
f 18/1/2 17/3/2 16/4/2
f 18/1/41 19/8/41 3/6/41
f 19/8/42 18/1/42 14/5/42
f 20/10/5 1/12/5 3/6/5
f 19/8/6 4/9/6 2/11/6
f 17/3/43 15/2/43 1/12/43
f 17/3/44 20/10/44 2/11/44
f 22/13/9 3/6/9 1/12/9
f 21/14/10 2/11/10 4/9/10
f 23/15/11 7/18/11 3/6/11
f 22/13/12 4/9/12 8/16/12
f 24/17/13 5/20/13 7/18/13
f 23/15/14 8/16/14 6/19/14
f 21/14/15 1/12/15 5/20/15
f 24/17/16 6/19/16 2/11/16
f 26/21/17 3/25/17 7/18/17
f 25/22/18 8/16/18 4/23/18
f 27/24/45 13/28/45 3/25/45
f 27/24/46 26/21/46 4/23/46
f 28/27/21 11/30/21 13/28/21
f 28/27/22 27/24/22 14/26/22
f 28/27/47 25/22/47 7/18/47
f 25/22/48 28/27/48 12/29/48
f 30/31/25 5/20/25 1/32/25
f 29/33/26 2/40/26 6/19/26
f 31/34/49 9/37/49 5/20/49
f 31/34/50 30/31/50 6/19/50
f 32/36/29 15/39/29 9/37/29
f 32/36/30 31/34/30 10/35/30
f 32/36/51 29/33/51 1/32/51
f 29/33/52 32/36/52 16/38/52
f 34/41/33 7/18/33 5/20/33
f 33/42/34 6/19/34 8/16/34
f 35/43/53 11/30/53 7/18/53
f 35/43/54 34/41/54 8/16/54
f 36/44/37 9/37/37 11/30/37
f 36/44/38 35/43/38 12/29/38
f 36/44/55 33/42/55 5/20/55
f 33/42/56 36/44/56 10/35/56
