# Blender v2.78 (sub 0) OBJ File: ''
# www.blender.org
mtllib doublewindowpop.mtl
o bedx+.001
v -0.468541 0.450000 0.450000
v -0.568541 -0.450000 0.450000
v -0.568541 0.450000 0.450000
v -0.468541 0.500000 0.500000
v -0.468541 -0.450000 0.450000
v -0.568541 0.500000 -0.500000
v -0.568541 0.500000 0.500000
v -0.468541 0.500000 -0.499999
v -0.468541 -0.450000 -0.450000
v -0.468541 -0.500000 -0.500000
v -0.568541 -0.500000 0.500000
v -0.568541 -0.450000 -0.450000
v -0.568541 -0.500000 -0.500000
v -0.468541 -0.500000 0.500000
v -0.568541 0.450000 -0.450000
v -0.468541 0.450000 -0.449999
vt 0.8333 0.0252
vt 0.7778 0.4752
vt 0.7778 0.0252
vt 0.8333 0.0000
vt 0.8333 0.4752
vt 0.7222 0.0000
vt 0.7222 0.5000
vt 0.6667 0.5000
vt 0.0000 0.5000
vt 0.0278 0.9750
vt 0.0000 1.0000
vt 0.6111 0.5000
vt 0.5556 0.5000
vt 0.5556 0.0000
vt 0.0000 0.0000
vt 0.0278 0.4750
vt 0.0000 0.5000
vt 0.7778 0.5000
vt 0.7222 0.5000
vt 0.6667 0.0000
vt 0.6111 0.0000
vt 0.5556 0.0000
vt 0.0278 0.0250
vt 0.7778 0.0000
vt 0.6667 0.0000
vt 0.6667 0.5000
vt 0.6111 0.5000
vt 0.5556 1.0000
vt 0.5278 0.9750
vt 0.5278 0.4750
vt 0.5556 0.5000
vt 0.5278 0.0250
vt 0.5278 0.5250
vt 0.0278 0.5250
vt 0.5556 0.5000
vt 1.0000 0.0000
vt 0.9444 0.4500
vt 0.9444 0.0000
vt 0.8889 0.0000
vt 0.8333 0.4500
vt 0.8333 0.0000
vt 0.8889 0.4500
vt 0.9444 0.0000
vt 0.9444 0.4500
vt 1.0000 0.4500
vt 0.8889 0.4500
vt 0.8889 0.0000
vn 0.0000 0.0000 -1.0000
vn 0.0000 0.7071 -0.7071
vn -0.0000 1.0000 0.0000
vn 1.0000 0.0000 0.0000
vn 0.0000 -0.0000 1.0000
vn -1.0000 0.0000 0.0000
vn 0.0000 -1.0000 -0.0000
vn 0.0000 -0.7071 0.7071
vn -0.0000 0.7071 0.7071
usemtl None.001
s off
f 1/1/1 2/2/1 3/3/1
f 3/3/2 4/4/2 1/1/2
f 1/1/1 5/5/1 2/2/1
s 1
f 6/6/3 7/7/3 4/8/3
f 8/9/4 9/10/4 10/11/4
f 4/12/5 7/13/5 11/14/5
f 11/15/6 12/16/6 13/17/6
f 10/18/1 13/19/1 6/6/1
f 8/20/3 6/6/3 4/8/3
f 14/21/5 4/12/5 11/14/5
f 7/22/6 2/23/6 11/15/6
f 8/24/1 10/18/1 6/6/1
f 14/21/7 11/25/7 13/26/7
f 10/27/7 14/21/7 13/26/7
f 14/28/4 9/10/4 5/29/4
f 13/17/6 15/30/6 6/31/6
f 6/31/6 3/32/6 7/22/6
f 8/9/4 1/33/4 16/34/4
f 14/28/4 1/33/4 4/35/4
f 16/36/8 3/37/7 15/38/8
f 9/39/9 15/40/8 12/41/9
f 12/42/9 5/43/3 9/44/9
f 8/9/4 16/34/4 9/10/4
f 11/15/6 2/23/6 12/16/6
f 7/22/6 3/32/6 2/23/6
f 14/28/4 10/11/4 9/10/4
f 13/17/6 12/16/6 15/30/6
f 6/31/6 15/30/6 3/32/6
f 8/9/4 4/35/4 1/33/4
f 14/28/4 5/29/4 1/33/4
f 16/36/8 1/45/7 3/37/7
f 9/39/9 16/46/8 15/40/8
f 12/42/9 2/47/3 5/43/3
o bedx+.000
v 0.473753 0.450000 -0.449485
v 0.573753 -0.450000 -0.449485
v 0.573753 0.450000 -0.449485
v 0.473753 0.500000 -0.499485
v 0.473753 -0.450000 -0.449485
v 0.573753 0.500000 0.500515
v 0.573753 0.500000 -0.499485
v 0.473753 0.500000 0.500514
v 0.473753 -0.450000 0.450515
v 0.473753 -0.500000 0.500515
v 0.573753 -0.500000 -0.499485
v 0.573753 -0.450000 0.450515
v 0.573753 -0.500000 0.500515
v 0.473753 -0.500000 -0.499485
v 0.573753 0.450000 0.450515
v 0.473753 0.450000 0.450514
vt 0.8333 0.0252
vt 0.7778 0.4752
vt 0.7778 0.0252
vt 0.8333 0.0000
vt 0.8333 0.4752
vt 0.7222 0.0000
vt 0.7222 0.5000
vt 0.6667 0.5000
vt 0.0000 0.5000
vt 0.0278 0.9750
vt 0.0000 1.0000
vt 0.6111 0.5000
vt 0.5556 0.5000
vt 0.5556 0.0000
vt 0.0000 0.0000
vt 0.0278 0.4750
vt 0.0000 0.5000
vt 0.7778 0.5000
vt 0.7222 0.5000
vt 0.6667 0.0000
vt 0.6111 0.0000
vt 0.5556 0.0000
vt 0.0278 0.0250
vt 0.7778 0.0000
vt 0.6667 0.0000
vt 0.6667 0.5000
vt 0.6111 0.5000
vt 0.5556 1.0000
vt 0.5278 0.9750
vt 0.5278 0.4750
vt 0.5556 0.5000
vt 0.5278 0.0250
vt 0.5278 0.5250
vt 0.0278 0.5250
vt 0.5556 0.5000
vt 1.0000 0.0000
vt 0.9444 0.4500
vt 0.9444 0.0000
vt 0.8889 0.0000
vt 0.8333 0.4500
vt 0.8333 0.0000
vt 0.8889 0.4500
vt 0.9444 0.0000
vt 0.9444 0.4500
vt 1.0000 0.4500
vt 0.8889 0.4500
vt 0.8889 0.0000
vn 0.0000 -0.0000 1.0000
vn 0.0000 0.7071 0.7071
vn -0.0000 1.0000 0.0000
vn -1.0000 -0.0000 0.0000
vn 0.0000 0.0000 -1.0000
vn 1.0000 -0.0000 0.0000
vn 0.0000 -1.0000 -0.0000
vn -0.0000 -0.7071 -0.7071
vn 0.0000 0.7071 -0.7071
usemtl None.000
s off
f 17/48/10 18/49/10 19/50/10
f 19/50/11 20/51/11 17/48/11
f 17/48/10 21/52/10 18/49/10
s 1
f 22/53/12 23/54/12 20/55/12
f 24/56/13 25/57/13 26/58/13
f 20/59/14 23/60/14 27/61/14
f 27/62/15 28/63/15 29/64/15
f 26/65/10 29/66/10 22/53/10
f 24/67/12 22/53/12 20/55/12
f 30/68/14 20/59/14 27/61/14
f 23/69/15 18/70/15 27/62/15
f 24/71/10 26/65/10 22/53/10
f 30/68/16 27/72/16 29/73/16
f 26/74/16 30/68/16 29/73/16
f 30/75/13 25/57/13 21/76/13
f 29/64/15 31/77/15 22/78/15
f 22/78/15 19/79/15 23/69/15
f 24/56/13 17/80/13 32/81/13
f 30/75/13 17/80/13 20/82/13
f 32/83/17 19/84/16 31/85/17
f 25/86/18 31/87/17 28/88/18
f 28/89/18 21/90/12 25/91/18
f 24/56/13 32/81/13 25/57/13
f 27/62/15 18/70/15 28/63/15
f 23/69/15 19/79/15 18/70/15
f 30/75/13 26/58/13 25/57/13
f 29/64/15 28/63/15 31/77/15
f 22/78/15 31/77/15 19/79/15
f 24/56/13 20/82/13 17/80/13
f 30/75/13 21/76/13 17/80/13
f 32/83/17 17/92/16 19/84/16
f 25/86/18 32/93/17 31/87/17
f 28/89/18 18/94/12 21/90/12
