# Blender v2.78 (sub 0) OBJ File: ''
# www.blender.org
mtllib hangingbannerz+.mtl
o bedx+.042
v -0.279999 0.418840 0.426809
v -0.279999 0.418840 0.406809
v -0.280000 -0.885062 0.406809
v 0.300000 0.415547 0.499999
v 0.300000 0.415547 0.399999
v 0.300000 0.465547 0.399999
v -0.000000 0.418840 0.426809
v -0.300000 0.465546 0.499999
v 0.300000 0.465547 0.499999
v 0.000000 -0.631880 0.416809
v -0.280000 -0.885062 0.426809
v 0.000000 -0.151715 0.406809
v 0.000000 -0.631880 0.426809
v -0.000000 0.465547 0.406809
v -0.000000 0.465547 0.426809
v 0.000000 -0.151715 0.426809
v 0.280000 -0.885062 0.406809
v 0.280000 0.418840 0.406809
v 0.280000 0.418840 0.426809
v 0.050000 0.485783 0.497018
v -0.050000 0.485784 0.447018
v -0.050000 0.485784 0.497018
v 0.050000 0.085784 0.497018
v -0.050000 0.085784 0.497018
v -0.050000 0.085784 0.447018
v 0.050000 0.485783 0.447018
v 0.050000 0.085784 0.447018
v -0.299999 0.465546 0.399999
v -0.299999 0.415546 0.399999
v -0.300000 0.415546 0.499999
v -0.000000 0.418840 0.406809
v 0.280000 -0.885062 0.426809
v 0.000000 -0.631880 0.406809
v -0.279999 -0.152477 0.406809
v -0.279999 -0.152477 0.416809
v -0.279999 -0.152477 0.426809
v 0.280000 -0.152477 0.406809
v 0.280000 -0.152477 0.426809
v 0.280000 -0.152477 0.416809
vt 0.8675 0.0058
vt 0.8609 0.3351
vt 0.8543 0.0058
vt 0.7748 0.6198
vt 0.8411 0.6198
vt 0.8411 0.6391
vt 0.8411 0.0058
vt 0.8411 0.3517
vt 0.7748 0.3517
vt 0.9735 0.2479
vt 0.9669 0.4655
vt 0.9603 0.2479
vt 0.5762 0.3347
vt 0.3907 0.3351
vt 0.3907 0.0058
vt 0.9603 0.4655
vt 0.7793 0.1787
vt 0.7926 0.1787
vt 0.0066 0.7575
vt 0.1921 0.4286
vt 0.1921 0.7575
vt 0.0066 0.0058
vt 0.1921 0.1517
vt 0.9868 0.4900
vt 0.9868 0.7733
vt 0.9801 0.7733
vt 0.0066 0.7690
vt 0.0397 0.8267
vt 0.0066 0.8267
vt 0.7748 0.6934
vt 0.7748 0.6507
vt 0.8079 0.6507
vt 0.9470 0.2479
vt 0.9470 0.4785
vt 0.8808 0.4785
vt 0.0397 0.7690
vt 0.9139 0.8360
vt 0.8808 0.4900
vt 0.9139 0.4900
vt 0.9272 0.8360
vt 0.9603 0.4900
vt 0.9603 0.8360
vt 0.7748 0.8481
vt 0.8079 0.6934
vt 0.9603 0.0058
vt 0.9934 0.0058
vt 0.9934 0.2364
vt 0.8808 0.2479
vt 0.8079 0.8481
vt 0.9603 0.2364
vt 0.8808 0.0058
vt 0.9470 0.0058
vt 0.8808 0.2364
vt 0.9470 0.2364
vt 0.8808 0.8360
vt 0.9272 0.4900
vt 0.0861 0.8267
vt 0.0530 0.8267
vt 0.0530 0.7690
vt 0.7748 0.6391
vt 0.0861 0.7690
vt 0.5762 0.0058
vt 0.9735 0.9942
vt 0.9735 0.7733
vt 0.8543 0.3351
vt 0.5762 0.6115
vt 0.7616 0.7575
vt 0.3775 0.7575
vt 0.7616 0.0058
vt 0.7616 0.3351
vt 0.3775 0.4281
vt 0.8278 0.6507
vt 0.8212 0.7966
vt 0.8212 0.6507
vt 0.8344 0.6507
vt 0.8344 0.7966
vt 0.7748 0.0058
vt 0.9735 0.4655
vt 0.3907 0.7575
vt 0.0066 0.4281
vt 0.8411 0.3632
vt 0.7748 0.3632
vt 0.3775 0.0058
vt 0.8675 0.3351
vt 0.8675 0.7575
vt 0.8543 0.7575
vt 0.9735 0.4900
vt 0.9868 0.9942
vn -0.5009 0.0000 -0.8655
vn -1.0000 0.0000 0.0000
vn -0.7071 0.0000 0.7071
vn 0.5774 -0.5773 0.5774
vn 0.5774 -0.5773 -0.5774
vn 0.5773 0.5774 -0.5773
vn -0.5774 0.5773 0.5773
vn 0.5773 0.5774 0.5774
vn -0.3394 -0.7644 -0.5482
vn 0.0000 -1.0000 0.0000
vn -0.3394 -0.7644 0.5482
vn -0.1048 -0.0003 -0.9945
vn -0.7010 0.1309 -0.7010
vn -0.0000 -0.4510 0.8925
vn -0.0000 1.0000 -0.0000
vn 0.0000 -0.0000 1.0000
vn 0.3394 -0.7644 -0.5482
vn 0.7071 0.0000 -0.7071
vn 1.0000 0.0000 -0.0000
vn 0.5774 0.5773 0.5774
vn -0.5773 0.5774 -0.5773
vn -0.5773 0.5774 0.5774
vn 0.5774 -0.5774 0.5774
vn -0.5774 -0.5774 0.5774
vn -0.5774 -0.5774 -0.5774
vn 0.6717 0.3126 -0.6717
vn 0.5774 -0.5774 -0.5774
vn -0.5773 0.5773 -0.5774
vn -0.6713 -0.3142 -0.6713
vn -0.5774 -0.5774 0.5773
vn 0.1048 0.0000 -0.9945
vn 0.7071 0.0000 0.7071
vn 0.0000 -0.4510 -0.8925
vn 0.3394 -0.7644 0.5482
usemtl None.046
s 1
f 2/1/1 35/2/2 1/3/3
f 4/4/4 5/5/5 6/6/6
f 8/7/7 9/8/8 6/9/6
f 3/10/9 10/11/10 11/12/11
f 12/13/12 34/14/13 2/15/1
f 11/12/11 10/11/10 13/16/14
f 14/17/15 15/18/15 6/9/6
f 1/19/3 16/20/16 7/21/16
f 11/22/11 13/23/14 16/20/16
f 17/24/17 37/25/18 39/26/19
f 20/27/20 21/28/21 22/29/22
f 23/30/23 24/31/24 25/32/25
f 26/33/26 27/34/27 25/35/25
f 20/27/20 26/36/26 21/28/21
f 8/37/7 4/38/4 9/39/8
f 28/40/28 5/41/5 29/42/29
f 20/43/20 23/30/23 27/44/27
f 22/45/22 21/46/21 25/47/25
f 26/33/26 25/35/25 21/48/21
f 20/43/20 27/44/27 26/49/26
f 22/45/22 25/47/25 24/50/24
f 20/51/20 22/52/22 23/53/23
f 22/52/22 24/54/24 23/53/23
f 25/32/25 27/44/27 23/30/23
f 8/37/7 30/55/30 4/38/4
f 28/40/28 6/56/6 5/41/5
f 28/57/28 29/58/29 30/59/30
f 6/6/6 9/60/8 4/4/4
f 28/57/28 30/59/30 8/61/7
f 2/15/1 31/62/31 12/13/12
f 19/63/32 38/64/32 39/26/19
f 1/3/3 35/2/2 36/65/3
f 33/66/33 12/13/12 17/67/17
f 7/21/16 16/20/16 19/68/32
f 12/13/12 18/69/18 37/70/18
f 16/20/16 38/71/32 19/68/32
f 10/72/10 32/73/34 13/74/14
f 10/72/10 33/75/33 17/76/17
f 15/18/15 28/77/28 8/7/7
f 3/10/9 33/78/33 10/11/10
f 12/13/12 33/66/33 3/79/9
f 6/9/6 28/77/28 14/17/15
f 15/18/15 8/7/7 6/9/6
f 1/19/3 36/80/3 16/20/16
f 12/13/12 31/62/31 18/69/18
f 29/81/29 4/4/4 30/82/30
f 16/20/16 13/23/14 32/83/34
f 10/72/10 17/76/17 32/73/34
f 15/18/15 14/17/15 28/77/28
f 16/20/16 36/80/3 11/22/11
f 35/2/2 34/84/13 3/85/9
f 35/2/2 11/86/11 36/65/3
f 34/14/13 12/13/12 3/79/9
f 39/26/19 32/87/34 17/24/17
f 39/26/19 18/88/18 19/63/32
f 38/71/32 16/20/16 32/83/34
f 37/70/18 17/67/17 12/13/12
f 2/1/1 34/84/13 35/2/2
f 29/81/29 5/5/5 4/4/4
f 35/2/2 3/85/9 11/86/11
f 39/26/19 38/64/32 32/87/34
f 39/26/19 37/25/18 18/88/18
