# Blender v2.79 (sub 0) OBJ File: ''
# www.blender.org
mtllib InvertedRamp.mtl
o Plane_Plane.003
v 0.500006 -0.500120 -0.499994
v 0.500005 0.499880 -0.499994
v 0.499994 0.499879 0.500006
v -0.499995 0.499879 -0.500005
v 0.499995 -0.500120 0.500006
v -0.500006 0.499879 0.499994
v 0.000005 0.001209 -0.500000
v 0.000005 -0.000121 -0.500000
v -0.000006 0.001209 0.500000
v -0.000006 -0.000121 0.500000
vt 0.000000 1.000000
vt 0.000000 0.000000
vt 1.000000 0.000004
vt 0.999999 0.000000
vt 1.000000 1.000000
vt 0.000000 0.000001
vt 0.000000 1.000000
vt 0.000001 0.000000
vt 1.000000 0.000000
vt 1.000000 0.999989
vt 0.000012 1.000000
vt 1.000000 0.999997
vt 0.000012 0.000000
vt 1.000000 0.000000
vn 1.0000 0.0000 0.0000
vn 0.0000 -0.0000 -1.0000
vn -0.0000 0.0000 1.0000
vn -0.0000 1.0000 -0.0000
vn -0.7071 -0.7071 -0.0000
usemtl Material.009
s 1
f 1/1/1 2/2/1 3/3/1
f 2/4/2 1/5/2 4/6/2
f 5/7/3 3/8/3 6/9/3
f 2/4/4 4/10/4 6/11/4
f 1/1/1 3/3/1 5/12/1
f 6/13/5 1/5/5 5/7/5
f 2/4/4 6/11/4 3/8/4
f 6/13/5 4/14/5 1/5/5
