# Blender v2.79 (sub 0) OBJ File: ''
# www.blender.org
mtllib InvertedStairs.mtl
o Plane_Plane.002
v -0.000005 -0.250121 0.500000
v 0.000006 -0.250121 -0.500000
v 0.250006 -0.250121 -0.499997
v 0.500006 -0.500120 -0.499994
v 0.500005 0.499880 -0.499994
v 0.499994 0.499879 0.500006
v -0.000006 0.001209 0.500000
v -0.250006 0.249879 0.499997
v 0.000005 0.001209 -0.500000
v -0.249995 0.249879 -0.500003
v -0.250006 -0.000121 0.499997
v -0.000006 -0.000121 0.500000
v 0.000005 -0.000121 -0.500000
v -0.249994 -0.000121 -0.500003
v 0.499995 -0.500120 0.500006
v 0.249995 -0.500121 0.500003
v 0.249995 -0.250121 0.500003
v 0.250006 -0.500121 -0.499997
v -0.499995 0.249879 -0.500005
v -0.500006 0.499879 0.499994
v -0.499995 0.499879 -0.500005
v -0.500006 0.249879 0.499994
vt 0.999997 0.500000
vt -0.000000 0.499989
vt 0.000003 0.250000
vt 0.000000 1.000000
vt 0.000000 0.000000
vt 1.000000 0.000004
vt 1.000000 0.249998
vt 0.000000 0.250000
vt 0.000000 0.000000
vt 0.500002 0.498670
vt 0.000001 0.000000
vt 0.750002 0.250001
vt 0.999999 0.000002
vt 0.500001 0.498671
vt 0.250001 0.250001
vt 0.750002 0.500000
vt 0.500000 0.500000
vt 0.500001 0.500001
vt 0.250002 0.500001
vt 0.000003 0.750000
vt 1.000000 0.750011
vt 0.999997 1.000000
vt 0.000000 0.500001
vt 1.000000 0.500000
vt 1.000000 0.749998
vt 0.999997 1.000000
vt 0.000003 0.750000
vt 1.000000 0.750011
vt 0.000000 0.500000
vt 1.000000 0.500001
vt 1.000000 0.750000
vt -0.000000 0.499989
vt 0.000002 0.250000
vt 1.000000 0.250011
vt 0.000000 0.000000
vt 1.000000 0.000003
vt 1.000000 0.250000
vt 1.000000 0.999989
vt 0.000012 1.000000
vt 1.000000 0.250011
vt 1.000000 0.999997
vt 1.000000 0.000000
vt 0.250001 0.750000
vt 0.500001 0.750000
vt 1.000000 0.000003
vt 1.000000 0.250002
vt 0.000000 1.000000
vt 0.250001 1.000000
vt 0.750001 1.000000
vt 0.750001 0.750000
vt 1.000000 0.999998
vt 0.000000 0.000000
vt 0.000000 0.250001
vt 0.500002 0.750001
vt -0.000000 0.999989
vt 0.000000 0.750000
vt -0.000000 0.999988
vt 0.000000 0.750000
vt 0.999997 0.500000
vt 0.000000 0.249999
vn -0.0000 -1.0000 0.0000
vn 1.0000 0.0000 0.0000
vn -1.0000 -0.0000 -0.0000
vn -0.0000 0.0000 1.0000
vn 0.0000 0.0000 -1.0000
vn -0.0000 1.0000 -0.0000
usemtl Material.008
s 1
f 1/1/1 2/2/1 3/3/1
f 4/4/2 5/5/2 6/6/2
f 2/7/3 1/8/3 7/9/3
f 7/10/4 6/11/4 8/12/4
f 5/13/5 9/14/5 10/15/5
f 11/16/4 12/17/4 7/10/4
f 9/14/5 13/18/5 14/19/5
f 4/20/1 15/21/1 16/22/1
f 17/23/3 3/24/3 18/25/3
f 11/26/1 13/27/1 12/28/1
f 8/29/3 10/30/3 14/31/3
f 19/32/1 10/33/1 8/34/1
f 20/35/3 21/36/3 19/37/3
f 5/13/6 21/38/6 20/39/6
f 1/1/1 3/3/1 17/40/1
f 4/4/2 6/6/2 15/41/2
f 2/7/3 7/9/3 9/42/3
f 17/43/4 7/10/4 1/44/4
f 7/10/4 8/12/4 11/16/4
f 8/12/4 20/45/4 22/46/4
f 6/11/4 17/43/4 15/47/4
f 15/47/4 17/43/4 16/48/4
f 8/12/4 6/11/4 20/45/4
f 6/11/4 7/10/4 17/43/4
f 18/49/5 3/50/5 4/51/5
f 4/51/5 3/50/5 5/13/5
f 5/13/5 10/15/5 21/52/5
f 21/52/5 10/15/5 19/53/5
f 10/15/5 9/14/5 14/19/5
f 9/14/5 3/50/5 2/54/5
f 9/14/5 5/13/5 3/50/5
f 4/20/1 16/22/1 18/55/1
f 17/23/3 18/25/3 16/56/3
f 11/26/1 14/57/1 13/27/1
f 8/29/3 14/31/3 11/58/3
f 19/32/1 8/34/1 22/59/1
f 20/35/3 19/37/3 22/60/3
f 5/13/6 20/39/6 6/11/6
