ply
format ascii 1.0
comment Created by Blender 2.82 (sub 7) - www.blender.org, source file: ''
element vertex 14
property float x
property float y
property float z
property float s
property float t
property uchar red
property uchar green
property uchar blue
property uchar alpha
element face 8
property list uchar uint vertex_indices
end_header
0.500006 -0.500120 -0.499994 0.000000 1.000000 255 255 255 255
0.500005 0.499880 -0.499994 0.000000 0.000000 255 255 255 255
0.499994 0.499879 0.500006 1.000000 0.000004 255 255 255 255
0.500005 0.499880 -0.499994 0.999999 0.000000 255 255 255 255
0.500006 -0.500120 -0.499994 1.000000 1.000000 255 255 255 255
-0.499995 0.499879 -0.500005 0.000000 0.000001 255 255 255 255
0.499995 -0.500120 0.500006 0.000000 1.000000 255 255 255 255
0.499994 0.499879 0.500006 0.000001 0.000000 255 255 255 255
-0.500006 0.499879 0.499994 1.000000 0.000000 255 255 255 255
-0.499995 0.499879 -0.500005 1.000000 0.999989 255 255 255 255
-0.500006 0.499879 0.499994 0.000012 1.000000 255 255 255 255
0.499995 -0.500120 0.500006 1.000000 0.999997 255 255 255 255
-0.500006 0.499879 0.499994 0.000012 0.000000 255 255 255 255
-0.499995 0.499879 -0.500005 1.000000 0.000000 255 255 255 255
3 0 1 2
3 3 4 5
3 6 7 8
3 3 9 10
3 0 2 11
3 12 4 6
3 3 10 7
3 12 13 4
