# Blender v2.80 (sub 75) OBJ File: 'Newstairs.blend'
# www.blender.org
mtllib InvertedRampCornerInverted.mtl
o RampCornerInverted.001
v -0.500000 0.500000 0.500000
v -0.499999 0.500000 0.500000
v 0.500000 0.500000 -0.500000
v -0.500000 0.500000 0.500000
v 0.500000 -0.500000 -0.500000
v -0.499999 0.500000 0.500000
v -0.499999 0.500000 0.500000
v 0.500000 -0.500000 0.500000
v 0.500000 0.500000 0.500000
v 0.500000 -0.500000 0.500000
v 0.500000 0.500000 -0.500000
v 0.500000 0.500000 0.500000
v -0.499999 0.500000 0.500000
v 0.500000 0.500000 -0.500000
v -0.500000 0.500000 -0.500000
v -0.499999 0.500000 0.500000
v 0.500000 -0.500000 -0.500000
v -0.500000 0.500000 0.499999
v -0.500000 -0.500000 -0.500000
v -0.500000 0.500000 -0.500000
v -0.499999 0.500000 0.500000
v -0.500000 0.500000 -0.500000
v -0.500000 -0.500000 -0.500000
v 0.500000 0.500000 -0.500000
v 0.500000 -0.500000 0.500000
v 0.500000 -0.500000 -0.500000
v -0.500000 0.500000 0.499999
v -0.500000 -0.500000 -0.500000
v 0.500000 -0.500000 -0.500000
vt 0.999900 0.999900
vt 0.000100 0.999900
vt 0.999900 0.000100
vt 1.000000 1.000000
vt 0.003906 1.000000
vt 1.000000 0.000000
vt 0.000000 1.000000
vt 1.000000 0.000000
vt 1.000000 1.000000
vt 0.000100 0.000100
vt 0.999900 0.999900
vt 0.000100 0.999900
vt 0.999900 0.000100
vt 0.000100 0.999900
vt 0.000100 0.000100
vt 1.000000 1.000000
vt 0.003906 0.000000
vt 1.000000 0.000000
vt 0.999900 0.000100
vt 0.999900 0.999900
vt 1.000000 0.000000
vt 1.000000 1.000000
vt -0.000000 1.000000
vt 0.000000 1.000000
vt 0.003906 0.000000
vt 0.999900 0.000100
vt 0.999900 0.999900
vt 0.003906 1.000000
vt 0.000100 0.000100
vn 0.0000 0.9983 0.0587
vn 0.0000 -0.7071 0.7071
vn 0.0000 -0.0000 1.0000
vn 1.0000 -0.0000 -0.0000
vn 0.0000 1.0000 0.0000
vn 0.4021 0.8165 -0.4143
vn -0.0000 0.0000 -1.0000
vn -1.0000 0.0000 0.0000
vn -0.7071 -0.7071 0.0000
vn -0.0000 -0.9996 -0.0298
usemtl None.001
s 1
f 1/1/1 2/2/1 3/3/1
f 4/4/2 5/5/2 6/6/2
f 7/7/3 8/8/3 9/9/3
f 10/10/4 11/11/4 12/12/4
f 13/13/5 14/14/5 15/15/5
f 16/16/6 17/17/6 18/18/6
f 14/14/7 19/19/7 20/20/7
f 21/21/8 22/22/8 23/23/8
f 24/24/5 6/6/5 9/9/5
f 6/6/9 5/5/9 25/25/9
f 10/10/4 26/26/4 11/11/4
f 13/13/10 27/27/10 14/14/10
f 16/16/2 28/28/2 17/17/2
f 14/14/7 29/29/7 19/19/7
