ply
format ascii 1.0
comment Created by Blender 2.82 (sub 7) - www.blender.org, source file: ''
element vertex 60
property float x
property float y
property float z
property float s
property float t
property uchar red
property uchar green
property uchar blue
property uchar alpha
element face 38
property list uchar uint vertex_indices
end_header
-0.000005 -0.250121 0.500000 0.999997 0.500000 255 255 255 255
0.000006 -0.250121 -0.500000 -0.000000 0.499989 255 255 255 255
0.250006 -0.250121 -0.499997 0.000003 0.250000 255 255 255 255
0.500006 -0.500120 -0.499994 0.000000 1.000000 255 255 255 255
0.500005 0.499880 -0.499994 0.000000 0.000000 255 255 255 255
0.499994 0.499879 0.500006 1.000000 0.000004 255 255 255 255
0.000006 -0.250121 -0.500000 1.000000 0.249998 255 255 255 255
-0.000005 -0.250121 0.500000 0.000000 0.250000 255 255 255 255
-0.000006 0.001209 0.500000 0.000000 0.000000 255 255 255 255
-0.000006 0.001209 0.500000 0.500002 0.498670 255 255 255 255
0.499994 0.499879 0.500006 0.000001 0.000000 255 255 255 255
-0.250006 0.249879 0.499997 0.750002 0.250001 255 255 255 255
0.500005 0.499880 -0.499994 0.999999 0.000002 255 255 255 255
0.000005 0.001209 -0.500000 0.500001 0.498671 255 255 255 255
-0.249995 0.249879 -0.500003 0.250001 0.250001 255 255 255 255
-0.250006 -0.000121 0.499997 0.750002 0.500000 255 255 255 255
-0.000006 -0.000121 0.500000 0.500000 0.500000 255 255 255 255
0.000005 -0.000121 -0.500000 0.500001 0.500001 255 255 255 255
-0.249994 -0.000121 -0.500003 0.250002 0.500001 255 255 255 255
0.500006 -0.500120 -0.499994 0.000003 0.750000 255 255 255 255
0.499995 -0.500120 0.500006 1.000000 0.750011 255 255 255 255
0.249995 -0.500121 0.500003 0.999997 1.000000 255 255 255 255
0.249995 -0.250121 0.500003 0.000000 0.500001 255 255 255 255
0.250006 -0.250121 -0.499997 1.000000 0.500000 255 255 255 255
0.250006 -0.500121 -0.499997 1.000000 0.749998 255 255 255 255
-0.250006 -0.000121 0.499997 0.999997 1.000000 255 255 255 255
0.000005 -0.000121 -0.500000 0.000003 0.750000 255 255 255 255
-0.000006 -0.000121 0.500000 1.000000 0.750011 255 255 255 255
-0.250006 0.249879 0.499997 0.000000 0.500000 255 255 255 255
-0.249995 0.249879 -0.500003 1.000000 0.500001 255 255 255 255
-0.249994 -0.000121 -0.500003 1.000000 0.750000 255 255 255 255
-0.499995 0.249879 -0.500005 -0.000000 0.499989 255 255 255 255
-0.249995 0.249879 -0.500003 0.000002 0.250000 255 255 255 255
-0.250006 0.249879 0.499997 1.000000 0.250011 255 255 255 255
-0.500006 0.499879 0.499994 0.000000 0.000000 255 255 255 255
-0.499995 0.499879 -0.500005 1.000000 0.000003 255 255 255 255
-0.499995 0.249879 -0.500005 1.000000 0.250000 255 255 255 255
-0.499995 0.499879 -0.500005 1.000000 0.999989 255 255 255 255
-0.500006 0.499879 0.499994 0.000012 1.000000 255 255 255 255
0.249995 -0.250121 0.500003 1.000000 0.250011 255 255 255 255
0.499995 -0.500120 0.500006 1.000000 0.999997 255 255 255 255
0.000005 0.001209 -0.500000 1.000000 0.000000 255 255 255 255
0.249995 -0.250121 0.500003 0.250001 0.750000 255 255 255 255
-0.000005 -0.250121 0.500000 0.500001 0.750000 255 255 255 255
-0.500006 0.499879 0.499994 1.000000 0.000003 255 255 255 255
-0.500006 0.249879 0.499994 1.000000 0.250002 255 255 255 255
0.499995 -0.500120 0.500006 0.000000 1.000000 255 255 255 255
0.249995 -0.500121 0.500003 0.250001 1.000000 255 255 255 255
0.250006 -0.500121 -0.499997 0.750001 1.000000 255 255 255 255
0.250006 -0.250121 -0.499997 0.750001 0.750000 255 255 255 255
0.500006 -0.500120 -0.499994 1.000000 0.999998 255 255 255 255
-0.499995 0.499879 -0.500005 0.000000 0.000000 255 255 255 255
-0.499995 0.249879 -0.500005 0.000000 0.250001 255 255 255 255
0.000006 -0.250121 -0.500000 0.500002 0.750001 255 255 255 255
0.250006 -0.500121 -0.499997 -0.000000 0.999989 255 255 255 255
0.249995 -0.500121 0.500003 0.000000 0.750000 255 255 255 255
-0.249994 -0.000121 -0.500003 -0.000000 0.999988 255 255 255 255
-0.250006 -0.000121 0.499997 0.000000 0.750000 255 255 255 255
-0.500006 0.249879 0.499994 0.999997 0.500000 255 255 255 255
-0.500006 0.249879 0.499994 0.000000 0.249999 255 255 255 255
3 0 1 2
3 3 4 5
3 6 7 8
3 9 10 11
3 12 13 14
3 15 16 9
3 13 17 18
3 19 20 21
3 22 23 24
3 25 26 27
3 28 29 30
3 31 32 33
3 34 35 36
3 12 37 38
3 0 2 39
3 3 5 40
3 6 8 41
3 42 9 43
3 9 11 15
3 11 44 45
3 10 42 46
3 46 42 47
3 11 10 44
3 10 9 42
3 48 49 50
3 50 49 12
3 12 14 51
3 51 14 52
3 14 13 18
3 13 49 53
3 13 12 49
3 19 21 54
3 22 24 55
3 25 56 26
3 28 30 57
3 31 33 58
3 34 36 59
3 12 38 10
