# Blender v2.78 (sub 0) OBJ File: ''
# www.blender.org
mtllib ironbarx+.mtl
o bedx+
v -0.499999 0.500000 -0.500000
v -0.499999 0.500000 0.500000
v -0.399999 0.500000 0.500000
v -0.399999 0.500000 -0.499999
v -0.399999 -0.500000 0.500000
v -0.499999 -0.500000 0.500000
v -0.499999 -0.500000 -0.500000
v -0.399999 -0.500000 -0.500000
v -0.499999 -0.453976 -0.500000
v -0.499999 0.453976 -0.500000
v -0.499999 0.453976 0.500000
v -0.499999 -0.453976 0.500000
v -0.399999 -0.453976 -0.500000
v -0.399999 0.453976 -0.499999
v -0.399999 -0.453976 0.500000
v -0.399999 0.453976 0.500000
v -0.456688 -0.458692 0.424473
v -0.466753 -0.458692 0.414407
v -0.466753 -0.458692 0.388514
v -0.456688 -0.458692 0.378449
v -0.456688 0.459719 0.378449
v -0.466753 0.459719 0.388514
v -0.466753 0.459719 0.414408
v -0.456688 0.459719 0.424473
v -0.429668 0.459719 0.388514
v -0.439733 0.459719 0.378449
v -0.439733 -0.458692 0.378449
v -0.429668 -0.458692 0.388514
v -0.429668 -0.458692 0.414407
v -0.439733 -0.458692 0.424473
v -0.439733 0.459719 0.424473
v -0.429668 0.459719 0.414408
v -0.456688 -0.458692 0.224473
v -0.466753 -0.458692 0.214407
v -0.466753 -0.458692 0.188514
v -0.456688 -0.458692 0.178449
v -0.456688 0.459719 0.178449
v -0.466753 0.459719 0.188514
v -0.466753 0.459719 0.214408
v -0.456688 0.459719 0.224473
v -0.429668 0.459719 0.188514
v -0.439733 0.459719 0.178449
v -0.439733 -0.458692 0.178449
v -0.429668 -0.458692 0.188514
v -0.429668 -0.458692 0.214407
v -0.439733 -0.458692 0.224473
v -0.439733 0.459719 0.224473
v -0.429668 0.459719 0.214408
v -0.456688 -0.458692 0.024473
v -0.466753 -0.458692 0.014407
v -0.466753 -0.458692 -0.011486
v -0.456688 -0.458692 -0.021551
v -0.456688 0.459719 -0.021551
v -0.466753 0.459719 -0.011486
v -0.466753 0.459719 0.014408
v -0.456688 0.459719 0.024473
v -0.429668 0.459719 -0.011486
v -0.439733 0.459719 -0.021551
v -0.439733 -0.458692 -0.021551
v -0.429668 -0.458692 -0.011486
v -0.429668 -0.458692 0.014407
v -0.439733 -0.458692 0.024473
v -0.439733 0.459719 0.024473
v -0.429668 0.459719 0.014408
v -0.456688 -0.458692 -0.175527
v -0.466753 -0.458692 -0.185593
v -0.466753 -0.458692 -0.211486
v -0.456688 -0.458692 -0.221551
v -0.456688 0.459719 -0.221551
v -0.466753 0.459719 -0.211486
v -0.466753 0.459719 -0.185592
v -0.456688 0.459719 -0.175527
v -0.429668 0.459719 -0.211486
v -0.439733 0.459719 -0.221551
v -0.439733 -0.458692 -0.221551
v -0.429668 -0.458692 -0.211486
v -0.429668 -0.458692 -0.185593
v -0.439733 -0.458692 -0.175527
v -0.439733 0.459719 -0.175527
v -0.429668 0.459719 -0.185592
v -0.456688 -0.458692 -0.375527
v -0.466753 -0.458692 -0.385593
v -0.466753 -0.458692 -0.411486
v -0.456688 -0.458692 -0.421551
v -0.456688 0.459719 -0.421551
v -0.466753 0.459719 -0.411486
v -0.466753 0.459719 -0.385592
v -0.456688 0.459719 -0.375527
v -0.429668 0.459719 -0.411486
v -0.439733 0.459719 -0.421551
v -0.439733 -0.458692 -0.421551
v -0.429668 -0.458692 -0.411486
v -0.429668 -0.458692 -0.385593
v -0.439733 -0.458692 -0.375527
v -0.439733 0.459719 -0.375527
v -0.429668 0.459719 -0.385592
vt 0.4502 0.9018
vt 0.4857 1.0000
vt 0.4502 1.0000
vt 0.3793 0.9819
vt 0.4148 0.0000
vt 0.4148 0.9819
vt 0.3793 0.0000
vt 0.3438 0.9819
vt 0.3438 0.0000
vt 0.0000 0.0000
vt 0.0771 0.9819
vt 0.0000 0.9819
vt 0.3083 0.0000
vt 0.2313 0.9819
vt 0.2313 0.0000
vt 0.5656 0.9018
vt 0.5301 1.0000
vt 0.5301 0.9018
vt 0.6629 0.9018
vt 0.6984 1.0000
vt 0.6629 1.0000
vt 0.4946 1.0000
vt 0.5301 0.9018
vt 0.5301 1.0000
vt 0.3438 0.9819
vt 0.3083 0.0000
vt 0.3438 0.0000
vt 0.4148 0.9819
vt 0.4502 0.0000
vt 0.4502 0.9819
vt 0.1542 0.9819
vt 0.0771 0.0000
vt 0.1542 0.0000
vt 0.2313 0.0000
vt 0.1542 0.9819
vt 0.1542 0.0000
vt 0.4857 0.9018
vt 0.3793 0.0000
vt 0.3793 0.9819
vt 0.0771 0.0000
vt 0.3083 0.9819
vt 0.5656 1.0000
vt 0.6984 0.9018
vt 0.4946 0.9018
vt 0.3083 0.9819
vt 0.4148 0.0000
vt 0.0771 0.9819
vt 0.2313 0.9819
vt 0.4902 0.9018
vt 0.4702 0.0000
vt 0.4902 0.0000
vt 0.6299 0.9018
vt 0.6498 0.0000
vt 0.6498 0.9018
vt 0.6299 0.0000
vt 0.6099 0.9018
vt 0.6099 0.0000
vt 0.5301 0.9018
vt 0.5101 0.0000
vt 0.5301 0.0000
vt 0.6629 0.9018
vt 0.6760 0.0000
vt 0.6760 0.9018
vt 0.8903 0.9018
vt 0.9012 0.0000
vt 0.9012 0.9018
vt 0.9781 0.9018
vt 0.9671 0.0000
vt 0.9781 0.0000
vt 0.7805 0.0000
vt 0.7915 0.9018
vt 0.7805 0.9018
vt 0.8793 0.0000
vt 0.8903 0.9018
vt 0.8793 0.9018
vt 0.7283 0.9018
vt 0.7413 0.0000
vt 0.7413 0.9018
vt 0.6891 0.9018
vt 0.7021 0.0000
vt 0.7021 0.9018
vt 0.8574 0.0000
vt 0.8464 0.9018
vt 0.8464 0.0000
vt 1.0000 0.9018
vt 0.9890 0.0000
vt 1.0000 0.0000
vt 0.8135 0.0000
vt 0.8244 0.9018
vt 0.8135 0.9018
vt 0.8244 0.0000
vt 0.8354 0.9018
vt 0.8244 0.9018
vt 0.7544 0.9018
vt 0.7675 0.0000
vt 0.7675 0.9018
vt 0.5500 0.9018
vt 0.5700 0.0000
vt 0.5700 0.9018
vt 0.5500 0.9018
vt 0.5301 0.0000
vt 0.5500 0.0000
vt 0.6498 0.9018
vt 0.6629 0.0000
vt 0.6629 0.9018
vt 0.9232 0.0000
vt 0.9122 0.9018
vt 0.9122 0.0000
vt 0.9561 0.9018
vt 0.9451 0.0000
vt 0.9561 0.0000
vt 0.9012 0.0000
vt 0.9122 0.9018
vt 0.9012 0.9018
vt 0.8025 0.0000
vt 0.8135 0.9018
vt 0.8025 0.9018
vt 0.7413 0.9018
vt 0.7544 0.0000
vt 0.7544 0.9018
vt 0.5900 0.9018
vt 0.6099 0.0000
vt 0.6099 0.9018
vt 0.5101 0.9018
vt 0.4902 0.0000
vt 0.5101 0.0000
vt 0.6760 0.9018
vt 0.6891 0.0000
vt 0.6891 0.9018
vt 0.9890 0.9018
vt 0.9781 0.0000
vt 0.9890 0.0000
vt 0.8683 0.0000
vt 0.8793 0.9018
vt 0.8683 0.9018
vt 0.8354 0.0000
vt 0.8464 0.9018
vt 0.8354 0.9018
vt 0.9671 0.9018
vt 0.9561 0.0000
vt 0.9671 0.0000
vt 0.7675 0.9018
vt 0.7805 0.0000
vt 0.7805 0.9018
vt 0.5700 0.9018
vt 0.5900 0.0000
vt 0.5900 0.9018
vt 0.4702 0.9018
vt 0.4502 0.0000
vt 0.4702 0.0000
vt 0.7021 0.9018
vt 0.7152 0.0000
vt 0.7152 0.9018
vt 0.9342 0.9018
vt 0.9232 0.0000
vt 0.9342 0.0000
vt 0.9451 0.9018
vt 0.9342 0.0000
vt 0.9451 0.0000
vt 0.8574 0.0000
vt 0.8683 0.9018
vt 0.8574 0.9018
vt 0.7915 0.0000
vt 0.8025 0.9018
vt 0.7915 0.9018
vt 0.7152 0.9018
vt 0.7283 0.0000
vt 0.7283 0.9018
vt 0.4702 0.9018
vt 0.6299 0.0000
vt 0.6299 0.9018
vt 0.5101 0.9018
vt 0.6629 0.0000
vt 0.8903 0.0000
vt 0.9671 0.9018
vt 0.7915 0.0000
vt 0.8903 0.0000
vt 0.7283 0.0000
vt 0.6891 0.0000
vt 0.8574 0.9018
vt 0.9890 0.9018
vt 0.8244 0.0000
vt 0.8354 0.0000
vt 0.7544 0.0000
vt 0.5500 0.0000
vt 0.5301 0.9018
vt 0.6498 0.0000
vt 0.9232 0.9018
vt 0.9451 0.9018
vt 0.9122 0.0000
vt 0.8135 0.0000
vt 0.7413 0.0000
vt 0.5900 0.0000
vt 0.4902 0.9018
vt 0.6760 0.0000
vt 0.9781 0.9018
vt 0.8793 0.0000
vt 0.8464 0.0000
vt 0.9561 0.9018
vt 0.7675 0.0000
vt 0.5700 0.0000
vt 0.4502 0.9018
vt 0.7021 0.0000
vt 0.9232 0.9018
vt 0.9342 0.9018
vt 0.8683 0.0000
vt 0.8025 0.0000
vt 0.7152 0.0000
vn 0.0000 0.0000 1.0000
vn 1.0000 -0.0000 0.0000
vn -1.0000 0.0000 0.0000
vn 0.0000 1.0000 0.0000
vn 0.0000 -1.0000 -0.0000
vn 0.0000 0.0000 -1.0000
vn 0.9239 0.0000 -0.3827
vn 0.9239 0.0000 0.3827
vn -0.9239 0.0000 0.3827
vn -0.9239 0.0000 -0.3827
vn -0.3827 0.0000 -0.9239
vn 0.3827 0.0000 -0.9239
vn -0.3827 0.0000 0.9239
vn 0.3827 0.0000 0.9239
usemtl None
s off
f 2/1/1 16/2/1 3/3/1
f 13/4/2 5/5/2 8/6/2
f 12/7/3 7/8/3 6/9/3
f 4/10/4 2/11/4 3/12/4
f 6/13/5 8/14/5 5/15/5
f 14/16/6 1/17/6 4/18/6
f 12/19/1 5/20/1 15/21/1
f 8/22/6 9/23/6 13/24/6
f 1/25/3 11/26/3 2/27/3
f 16/28/2 4/29/2 3/30/2
f 13/31/4 12/32/4 15/33/4
f 11/34/5 14/35/5 16/36/5
f 2/1/1 11/37/1 16/2/1
f 13/4/2 15/38/2 5/5/2
f 12/7/3 9/39/3 7/8/3
f 4/10/4 1/40/4 2/11/4
f 6/13/5 7/41/5 8/14/5
f 14/16/6 10/42/6 1/17/6
f 12/19/1 6/43/1 5/20/1
f 8/22/6 7/44/6 9/23/6
f 1/25/3 10/45/3 11/26/3
f 16/28/2 14/46/2 4/29/2
f 13/31/4 9/47/4 12/32/4
f 11/34/5 10/48/5 14/35/5
s 1
f 25/49/7 29/50/8 28/51/7
f 18/52/9 22/53/10 19/54/10
f 34/55/9 38/56/10 35/57/10
f 41/58/7 45/59/8 44/60/7
f 20/61/11 26/62/12 27/63/12
f 27/64/12 25/65/7 28/66/7
f 18/67/9 24/68/13 23/69/9
f 22/70/10 20/71/11 19/72/10
f 30/73/14 32/74/8 31/75/14
f 24/76/13 30/77/14 31/78/14
f 36/79/11 42/80/12 43/81/12
f 43/82/12 41/83/7 44/84/7
f 34/85/9 40/86/13 39/87/9
f 38/88/10 36/89/11 35/90/10
f 46/91/14 48/92/8 47/93/14
f 40/94/13 46/95/14 47/96/14
f 50/97/9 54/98/10 51/99/10
f 57/100/7 61/101/8 60/102/7
f 52/103/11 58/104/12 59/105/12
f 59/106/12 57/107/7 60/108/7
f 50/109/9 56/110/13 55/111/9
f 54/112/10 52/113/11 51/114/10
f 62/115/14 64/116/8 63/117/14
f 56/118/13 62/119/14 63/120/14
f 66/121/9 70/122/10 67/123/10
f 73/124/7 77/125/8 76/126/7
f 68/127/11 74/128/12 75/129/12
f 74/130/12 76/131/7 75/132/12
f 66/133/9 72/134/13 71/135/9
f 70/136/10 68/137/11 67/138/10
f 78/139/14 80/140/8 79/141/14
f 72/142/13 78/143/14 79/144/14
f 82/145/9 86/146/10 83/147/10
f 89/148/7 93/149/8 92/150/7
f 84/151/11 90/152/12 91/153/12
f 90/154/12 92/155/7 91/156/12
f 82/157/9 88/158/13 87/159/9
f 86/160/10 84/161/11 83/162/10
f 94/163/14 96/164/8 95/165/14
f 88/166/13 94/167/14 95/168/14
f 25/49/7 32/169/8 29/50/8
f 18/52/9 23/170/9 22/53/10
f 34/55/9 39/171/9 38/56/10
f 41/58/7 48/172/8 45/59/8
f 20/61/11 21/173/11 26/62/12
f 27/64/12 26/174/12 25/65/7
f 18/67/9 17/175/13 24/68/13
f 22/70/10 21/176/11 20/71/11
f 30/73/14 29/177/8 32/74/8
f 24/76/13 17/178/13 30/77/14
f 36/79/11 37/179/11 42/80/12
f 43/82/12 42/180/12 41/83/7
f 34/85/9 33/181/13 40/86/13
f 38/88/10 37/182/11 36/89/11
f 46/91/14 45/183/8 48/92/8
f 40/94/13 33/184/13 46/95/14
f 50/97/9 55/185/9 54/98/10
f 57/100/7 64/186/8 61/101/8
f 52/103/11 53/187/11 58/104/12
f 59/106/12 58/188/12 57/107/7
f 50/109/9 49/189/13 56/110/13
f 54/112/10 53/190/11 52/113/11
f 62/115/14 61/191/8 64/116/8
f 56/118/13 49/192/13 62/119/14
f 66/121/9 71/193/9 70/122/10
f 73/124/7 80/194/8 77/125/8
f 68/127/11 69/195/11 74/128/12
f 74/130/12 73/196/7 76/131/7
f 66/133/9 65/197/13 72/134/13
f 70/136/10 69/198/11 68/137/11
f 78/139/14 77/199/8 80/140/8
f 72/142/13 65/200/13 78/143/14
f 82/145/9 87/201/9 86/146/10
f 89/148/7 96/202/8 93/149/8
f 84/151/11 85/203/11 90/152/12
f 90/154/12 89/204/7 92/155/7
f 82/157/9 81/205/13 88/158/13
f 86/160/10 85/206/11 84/161/11
f 94/163/14 93/207/8 96/164/8
f 88/166/13 81/208/13 94/167/14
