# Blender v2.79 (sub 0) OBJ File: ''
# www.blender.org
mtllib QuarterBlock.mtl
o Plane
v 0.000000 -0.000000 0.500000
v 0.000000 -0.500000 0.500000
v 0.500000 -0.500000 0.500000
v 0.500000 -0.000000 0.500000
v 0.000000 0.000000 -0.500000
v 0.000000 -0.500000 -0.500000
v 0.500000 -0.500000 -0.500000
v 0.500000 0.000000 -0.500000
vt 0.500000 0.000000
vt 1.000000 0.500000
vt 0.500000 0.500000
vt 0.000000 0.500000
vt 1.000000 0.000000
vt 1.000000 0.500000
vt 1.000000 0.000000
vt 0.500000 1.000000
vt 0.500000 0.000000
vt 1.000000 1.000000
vt 0.500000 0.000000
vt 1.000000 0.000000
vt 0.000000 0.500000
vt 0.500000 0.500000
vt 1.000000 0.500000
vt 0.000000 0.000000
vt 1.000000 0.000000
vt 0.000000 0.000000
vt 1.000000 1.000000
vt 0.500000 1.000000
vt 0.000000 0.000000
vt 0.000000 0.500000
vn 0.0000 -0.0000 1.0000
vn -1.0000 0.0000 0.0000
vn 0.0000 -1.0000 -0.0000
vn 0.0000 1.0000 0.0000
vn 0.0000 0.0000 -1.0000
vn 1.0000 0.0000 0.0000
usemtl Material.005
s 1
f 2/1/1 4/2/1 1/3/1
f 5/4/2 2/5/2 1/6/2
f 7/7/3 2/8/3 6/9/3
f 8/10/4 1/11/4 4/12/4
f 8/13/5 6/9/5 5/14/5
f 8/15/6 3/16/6 7/7/6
f 2/1/1 3/17/1 4/2/1
f 5/4/2 6/18/2 2/5/2
f 7/7/3 3/19/3 2/8/3
f 8/10/4 5/20/4 1/11/4
f 8/13/5 7/21/5 6/9/5
f 8/15/6 4/22/6 3/16/6
