ply
format ascii 1.0
comment Created by Blender 2.82 (sub 7) - www.blender.org, source file: ''
element vertex 18
property float x
property float y
property float z
property float s
property float t
property uchar red
property uchar green
property uchar blue
property uchar alpha
element face 12
property list uchar uint vertex_indices
end_header
0.500000 0.000000 -0.000001 1.000000 0.000000 255 255 255 255
0.000000 0.500000 0.000000 0.500000 0.500000 255 255 255 255
0.000000 0.000000 0.000000 0.500000 0.000000 255 255 255 255
0.500000 0.500000 -0.500001 1.000000 0.500000 255 255 255 255
0.500000 0.000000 -0.000001 0.500000 0.000000 255 255 255 255
0.500000 0.000000 -0.500001 1.000000 0.000000 255 255 255 255
0.000000 0.000000 -0.500000 0.500000 0.000001 255 255 255 255
0.500000 0.000000 -0.000001 1.000000 0.499999 255 255 255 255
0.000000 0.000000 0.000000 0.500000 0.500000 255 255 255 255
0.000000 0.500000 -0.500000 0.000000 0.500000 255 255 255 255
0.000000 0.500000 -0.500000 0.500000 0.999999 255 255 255 255
0.500000 0.500000 -0.000001 1.000000 0.500001 255 255 255 255
0.500000 0.500000 -0.500001 1.000000 1.000000 255 255 255 255
0.000000 0.500000 -0.500000 0.500000 0.500000 255 255 255 255
0.500000 0.000000 -0.500001 0.000000 0.000000 255 255 255 255
0.500000 0.500000 -0.000001 0.500000 0.500000 255 255 255 255
0.000000 0.000000 -0.500000 0.000000 0.000000 255 255 255 255
0.500000 0.500000 -0.500001 0.000000 0.500000 255 255 255 255
3 0 1 2
3 3 4 5
3 6 7 8
3 9 2 1
3 10 11 12
3 13 14 6
3 0 11 1
3 3 15 4
3 6 5 7
3 9 16 2
3 10 1 11
3 13 17 14
