# Blender v2.79 (sub 0) OBJ File: ''
# www.blender.org
mtllib RaisedEdgeBlock.mtl
o Plane.001
v 0.500000 0.000000 -0.000001
v 0.000000 0.500000 0.000000
v 0.000000 0.000000 -0.000000
v 0.500000 0.500000 -0.500001
v 0.500000 0.000000 -0.500001
v 0.000000 0.000000 -0.500000
v 0.000000 0.500000 -0.500000
v 0.500000 0.500000 -0.000001
vt 1.000000 0.000000
vt 0.500000 0.500000
vt 0.500000 0.000000
vt 1.000000 0.500000
vt 0.500000 0.000000
vt 1.000000 0.000000
vt 0.500000 0.000001
vt 1.000000 0.499999
vt 0.500000 0.500000
vt 0.000000 0.500000
vt 0.500000 0.999999
vt 1.000000 0.500001
vt 1.000000 1.000000
vt 0.500000 0.500000
vt 0.000000 0.000000
vt 0.500000 0.500000
vt 0.000000 0.000000
vt 0.000000 0.500000
vn 0.0000 -0.0000 1.0000
vn 1.0000 0.0000 0.0000
vn 0.0000 -1.0000 -0.0000
vn -1.0000 0.0000 0.0000
vn 0.0000 1.0000 0.0000
vn -0.0000 0.0000 -1.0000
usemtl Material.007
s 1
f 1/1/1 2/2/1 3/3/1
f 4/4/2 1/5/2 5/6/2
f 6/7/3 1/8/3 3/9/3
f 7/10/4 3/3/4 2/2/4
f 7/11/5 8/12/5 4/13/5
f 7/14/6 5/15/6 6/7/6
f 1/1/1 8/12/1 2/2/1
f 4/4/2 8/16/2 1/5/2
f 6/7/3 5/6/3 1/8/3
f 7/10/4 6/17/4 3/3/4
f 7/11/5 2/2/5 8/12/5
f 7/14/6 4/18/6 5/15/6
