ply
format ascii 1.0
comment Created by Blender 2.82 (sub 7) - www.blender.org, source file: ''
element vertex 29
property float x
property float y
property float z
property float s
property float t
property uchar red
property uchar green
property uchar blue
property uchar alpha
element face 14
property list uchar uint vertex_indices
end_header
-0.500000 -0.500000 0.500000 0.999900 0.999900 255 255 255 255
-0.500000 -0.500000 0.499999 0.000100 0.999900 255 255 255 255
0.500000 -0.500000 -0.500000 0.999900 0.000100 255 255 255 255
-0.500000 -0.500000 0.500000 1.000000 1.000000 255 255 255 255
0.500000 0.500000 -0.500000 0.003906 1.000000 255 255 255 255
-0.500000 -0.500000 0.499999 1.000000 0.000000 255 255 255 255
-0.500000 -0.500000 0.499999 0.000000 1.000000 255 255 255 255
-0.500000 0.500000 -0.500000 1.000000 0.000000 255 255 255 255
-0.500000 -0.500000 -0.500000 1.000000 1.000000 255 255 255 255
-0.500000 0.500000 -0.500000 0.000100 0.000100 255 255 255 255
0.500000 -0.500000 -0.500000 0.999900 0.999900 255 255 255 255
-0.500000 -0.500000 -0.500000 0.000100 0.999900 255 255 255 255
-0.500000 -0.500000 0.499999 0.999900 0.000100 255 255 255 255
0.500000 -0.500000 -0.500000 0.000100 0.999900 255 255 255 255
0.500000 -0.500000 0.500000 0.000100 0.000100 255 255 255 255
-0.500000 -0.500000 0.499999 1.000000 1.000000 255 255 255 255
0.500000 0.500000 -0.500000 0.003906 0.000000 255 255 255 255
-0.499999 -0.500000 0.500000 1.000000 0.000000 255 255 255 255
0.500000 0.500000 0.500000 0.999900 0.000100 255 255 255 255
0.500000 -0.500000 0.500000 0.999900 0.999900 255 255 255 255
-0.500000 -0.500000 0.499999 1.000000 0.000000 255 255 255 255
0.500000 -0.500000 0.500000 1.000000 1.000000 255 255 255 255
0.500000 0.500000 0.500000 -0.000000 1.000000 255 255 255 255
0.500000 -0.500000 -0.500000 0.000000 1.000000 255 255 255 255
-0.500000 0.500000 -0.500000 0.003906 0.000000 255 255 255 255
0.500000 0.500000 -0.500000 0.999900 0.000100 255 255 255 255
-0.499999 -0.500000 0.500000 0.999900 0.999900 255 255 255 255
0.500000 0.500000 0.500000 0.003906 1.000000 255 255 255 255
0.500000 0.500000 -0.500000 0.000100 0.000100 255 255 255 255
3 0 1 2
3 3 4 5
3 6 7 8
3 9 10 11
3 12 13 14
3 15 16 17
3 13 18 19
3 20 21 22
3 23 5 8
3 5 4 24
3 9 25 10
3 12 26 13
3 15 27 16
3 13 28 18
