# Blender v2.78 (sub 0) OBJ File: ''
# www.blender.org
mtllib simpletable.mtl
o bedx+
v -0.499463 0.499599 -0.499979
v -0.499463 0.399599 -0.499979
v -0.499464 0.399600 0.500021
v -0.429464 0.399599 0.430021
v -0.499464 0.499599 0.500021
v -0.429464 0.499599 0.430021
v -0.429464 0.499599 -0.429979
v 0.430320 0.399600 -0.429999
v 0.430320 0.499599 -0.429999
v -0.429680 0.499599 -0.429999
v 0.500320 0.499599 -0.499999
v -0.499680 0.499599 -0.499999
v 0.500320 0.399599 -0.499999
v -0.499680 0.399599 -0.499999
v -0.429680 0.399599 -0.429999
v -0.429464 0.399599 -0.429979
v 0.500362 0.399599 0.499812
v 0.500362 0.499599 0.499812
v 0.430362 0.399599 0.429812
v 0.430362 0.399599 -0.430188
v 0.500362 0.499599 -0.500188
v 0.430362 0.499599 0.429812
v 0.430362 0.499599 -0.430188
v 0.500362 0.399600 -0.500188
v 0.430578 0.499599 0.429832
v 0.430578 0.399599 0.429832
v -0.429422 0.399600 0.429832
v 0.500578 0.399599 0.499832
v -0.499422 0.399599 0.499832
v 0.500578 0.499599 0.499832
v -0.429422 0.499599 0.429832
v -0.499422 0.499599 0.499832
v -0.394554 -0.501089 0.447478
v -0.489514 -0.501089 0.447544
v -0.489513 0.477041 0.447180
v -0.394750 0.477261 0.492886
v -0.489377 0.477259 0.492952
v -0.489377 -0.501195 0.492864
v -0.394554 0.477043 0.447114
v -0.394750 -0.501195 0.492797
v 0.490561 -0.501089 0.447478
v 0.395601 -0.501089 0.447544
v 0.395602 0.477041 0.447180
v 0.490365 0.477261 0.492886
v 0.395738 0.477259 0.492952
v 0.395738 -0.501195 0.492864
v 0.490561 0.477043 0.447114
v 0.490365 -0.501195 0.492797
v -0.394554 -0.501089 -0.496975
v -0.489514 -0.501089 -0.496909
v -0.489513 0.477041 -0.497273
v -0.394750 0.477261 -0.451567
v -0.489377 0.477259 -0.451501
v -0.489377 -0.501195 -0.451589
v -0.394554 0.477043 -0.497339
v -0.394750 -0.501195 -0.451656
v 0.490561 -0.501089 -0.496975
v 0.395601 -0.501089 -0.496909
v 0.395602 0.477041 -0.497273
v 0.490365 0.477261 -0.451567
v 0.395738 0.477259 -0.451501
v 0.395738 -0.501195 -0.451589
v 0.490561 0.477043 -0.497339
v 0.490365 -0.501195 -0.451656
v -0.484891 0.253081 -0.487053
v -0.484891 0.306396 -0.487016
v 0.484927 0.306395 -0.487220
v 0.485051 0.253191 -0.461559
v 0.485050 0.306319 -0.461522
v -0.484950 0.306319 -0.461571
v 0.484928 0.253081 -0.487258
v -0.484950 0.253191 -0.461609
v -0.484891 0.253081 0.462345
v -0.484891 0.306396 0.462382
v 0.484927 0.306395 0.462177
v 0.485051 0.253191 0.487839
v 0.485050 0.306319 0.487876
v -0.484950 0.306319 0.487826
v 0.484928 0.253081 0.462140
v -0.484950 0.253191 0.487789
v -0.458336 0.253081 -0.480210
v -0.458373 0.306396 -0.480210
v -0.458169 0.306395 0.489608
v -0.483831 0.253191 0.489732
v -0.483868 0.306319 0.489731
v -0.483818 0.306319 -0.480269
v -0.458132 0.253081 0.489610
v -0.483781 0.253191 -0.480269
v 0.485426 0.253081 -0.480210
v 0.485389 0.306396 -0.480210
v 0.485593 0.306395 0.489608
v 0.459932 0.253191 0.489732
v 0.459895 0.306319 0.489731
v 0.459944 0.306319 -0.480269
v 0.485630 0.253081 0.489610
v 0.459982 0.253191 -0.480269
v 0.452167 0.494845 -0.480210
v -0.441148 0.494808 -0.480210
v -0.441148 0.495012 0.489608
v 0.452167 0.495049 0.489610
v -0.441148 0.440166 -0.480210
v 0.452167 0.440203 -0.480210
v 0.452167 0.439998 0.489608
v -0.441148 0.439961 0.489609
vt 0.0815 0.9849
vt 0.0407 0.9849
vt 0.0407 0.4849
vt 0.6510 0.4849
vt 0.6510 0.9849
vt 0.6224 0.5199
vt 0.8132 1.0000
vt 0.7846 0.9650
vt 0.7846 0.5350
vt 0.5532 0.9149
vt 0.5125 0.9149
vt 0.5125 0.4849
vt 0.7561 0.9650
vt 0.7276 1.0000
vt 0.7276 0.5000
vt 0.7684 0.5000
vt 0.7276 0.5000
vt 0.7276 0.0000
vt 0.6510 0.5199
vt 0.6795 0.4849
vt 0.6795 0.9849
vt 0.5125 0.9149
vt 0.5410 0.9149
vt 0.5410 0.9649
vt 0.7561 0.5350
vt 0.7684 0.0000
vt 0.6510 0.9499
vt 0.5939 0.9649
vt 0.5654 0.9649
vt 0.5654 0.9149
vt 0.5939 0.9149
vt 0.5532 0.4849
vt 0.1629 0.9500
vt 0.1222 0.9500
vt 0.1629 0.9149
vt 0.7684 0.0000
vt 0.7969 0.0350
vt 0.7969 0.4650
vt 0.6224 0.4849
vt 0.6224 0.9849
vt 0.5939 0.5199
vt 0.1222 0.9149
vt 0.1222 0.4849
vt 0.7684 0.5000
vt 0.1222 0.9849
vt 0.0815 0.9849
vt 0.0815 0.4849
vt 0.1629 0.4849
vt 0.5939 0.9149
vt 0.5532 0.9149
vt 0.5532 0.4849
vt 0.1222 0.4849
vt 0.5939 0.9499
vt 0.0815 0.4849
vt 0.2036 0.9149
vt 0.1629 0.9149
vt 0.1629 0.4849
vt 0.5125 0.9649
vt 0.6224 0.9499
vt 0.5939 0.4849
vt 0.1629 0.9499
vt 0.8132 0.5000
vt 0.6795 0.9499
vt 0.6795 0.5199
vt 0.7080 0.9849
vt 0.2036 0.9499
vt 0.7080 0.4849
vt 0.7561 0.5350
vt 0.7846 0.5000
vt 0.7846 1.0000
vt 0.2036 0.4849
vt 0.7561 0.9650
vt 0.0000 0.4849
vt 0.0407 0.4849
vt 0.0407 0.9849
vt 0.0000 0.9849
vt 0.3197 0.9740
vt 0.2810 0.9740
vt 0.2810 0.4849
vt 0.3583 0.4849
vt 0.3969 0.4849
vt 0.3969 0.9741
vt 0.9210 0.0001
vt 0.9395 0.0000
vt 0.9395 0.4892
vt 0.9024 0.4892
vt 0.9022 0.0001
vt 0.9209 0.4892
vt 0.3583 0.9741
vt 0.9209 0.4891
vt 0.3197 0.4849
vt 0.9209 0.0000
vt 0.1629 0.9974
vt 0.1814 0.9500
vt 0.1814 0.9973
vt 0.3583 0.9740
vt 0.3197 0.9740
vt 0.3197 0.4849
vt 0.4354 0.4849
vt 0.4739 0.4849
vt 0.4739 0.9741
vt 0.9397 0.0001
vt 0.9581 0.0000
vt 0.9581 0.4892
vt 0.8838 0.4892
vt 0.8836 0.0001
vt 0.9022 0.4892
vt 0.4354 0.9741
vt 0.9395 0.4891
vt 0.3583 0.4849
vt 0.9022 0.0000
vt 0.1406 0.9500
vt 0.1222 0.9973
vt 0.1222 0.9500
vt 0.2810 0.9740
vt 0.2423 0.9740
vt 0.2423 0.4849
vt 0.4354 0.9741
vt 0.3969 0.9741
vt 0.3969 0.4849
vt 0.9373 0.5001
vt 0.9558 0.5000
vt 0.9558 0.9892
vt 0.9000 0.9892
vt 0.8999 0.5001
vt 0.9185 0.9892
vt 0.4354 0.4849
vt 0.9371 0.9891
vt 0.2810 0.4849
vt 0.9185 0.5000
vt 0.1814 0.9974
vt 0.1998 0.9500
vt 0.1998 0.9973
vt 0.2423 0.9740
vt 0.2036 0.9740
vt 0.2036 0.4849
vt 0.5125 0.9741
vt 0.4739 0.9741
vt 0.4739 0.4849
vt 0.9187 0.5001
vt 0.9371 0.5000
vt 0.9371 0.9892
vt 0.7092 0.9741
vt 0.7090 0.4850
vt 0.7276 0.9741
vt 0.5125 0.4849
vt 0.9185 0.9891
vt 0.2423 0.4849
vt 0.7276 0.4849
vt 0.5410 0.9624
vt 0.5594 0.9150
vt 0.5594 0.9623
vt 0.8132 0.5000
vt 0.8349 0.5000
vt 0.8349 0.9849
vt 0.8566 0.5000
vt 0.8782 0.5000
vt 0.8782 0.9850
vt 0.9791 0.4850
vt 0.9687 0.4850
vt 0.9686 0.0000
vt 0.9873 0.9850
vt 0.9872 0.5001
vt 0.9976 0.9850
vt 0.8566 0.9850
vt 0.9791 0.0001
vt 0.8132 0.9849
vt 0.9976 0.5000
vt 0.7969 0.0000
vt 0.8186 0.0000
vt 0.8186 0.4849
vt 0.8403 0.0000
vt 0.8619 0.0000
vt 0.8619 0.4850
vt 0.9664 0.5000
vt 0.9767 0.5000
vt 0.9767 0.9850
vt 0.9896 0.4850
vt 0.9895 0.0001
vt 1.0000 0.4850
vt 0.8403 0.4850
vt 0.9663 0.9849
vt 0.7969 0.4849
vt 1.0000 0.0000
vt 0.8186 0.0000
vt 0.8403 0.0000
vt 0.8403 0.4849
vt 0.8999 0.9850
vt 0.8782 0.9850
vt 0.8782 0.5000
vt 0.9768 0.5000
vt 0.9872 0.5000
vt 0.9872 0.9850
vt 0.9559 0.9850
vt 0.9558 0.5001
vt 0.9663 0.9850
vt 0.8999 0.5000
vt 0.9767 0.9849
vt 0.8186 0.4849
vt 0.9663 0.5000
vt 0.8566 0.9849
vt 0.8349 0.9849
vt 0.8349 0.5000
vt 0.8836 0.4850
vt 0.8619 0.4850
vt 0.8619 0.0000
vt 0.9792 0.0000
vt 0.9895 0.0000
vt 0.9895 0.4850
vt 0.9686 0.0000
vt 0.9686 0.4849
vt 0.9582 0.0000
vt 0.8836 0.0000
vt 0.9791 0.4849
vt 0.8566 0.5000
vt 0.9581 0.4850
vt 0.7276 0.4849
vt 0.3638 0.4849
vt 0.3638 0.0000
vt 0.7276 0.0000
vt 0.3638 0.4849
vt 0.0000 0.4849
vt 0.0000 0.0000
vt 0.3638 0.0000
vt 0.1629 0.9499
vt 0.1406 0.9974
vt 0.1814 0.9499
vt 0.5410 0.9149
vn -1.0000 0.0000 -0.0000
vn -0.0000 -1.0000 0.0000
vn 0.0000 1.0000 0.0000
vn -0.0000 -0.0000 1.0000
vn -0.0000 0.0000 -1.0000
vn 0.7071 0.0000 -0.7071
vn -0.7071 -0.0000 0.7071
vn 1.0000 0.0000 0.0000
vn -0.0007 -0.0004 -1.0000
vn 0.0007 -0.0001 1.0000
vn -1.0000 -0.0000 0.0030
vn 1.0000 0.0000 0.0043
vn -0.0000 -1.0000 -0.0023
vn -0.0002 0.0007 -1.0000
vn -0.0001 -0.0007 1.0000
vn -0.0000 1.0000 0.0030
vn 0.0000 -1.0000 0.0043
vn 1.0000 0.0007 -0.0002
vn -1.0000 -0.0007 -0.0001
vn -0.0030 1.0000 -0.0000
vn -0.0043 -1.0000 0.0000
vn -0.0000 1.0000 -0.0002
vn 0.0000 -1.0000 -0.0002
usemtl None
s 1
f 1/1/1 2/2/1 3/3/1
f 3/4/2 2/5/2 4/6/2
f 5/7/3 6/8/3 7/9/3
f 8/10/4 9/11/4 10/12/4
f 9/13/3 11/14/3 12/15/3
f 11/16/5 13/17/5 14/18/5
f 15/19/2 14/20/2 13/21/2
f 1/22/6 7/23/6 16/24/6
f 10/25/3 9/13/3 12/15/3
f 12/26/5 11/16/5 14/18/5
f 8/27/2 15/19/2 13/21/2
f 10/28/7 12/29/7 14/30/7
f 15/31/7 10/28/7 14/30/7
f 10/12/4 15/32/4 8/10/4
f 17/33/7 18/34/7 19/35/7
f 17/36/2 19/37/2 20/38/2
f 18/39/3 21/40/3 22/41/3
f 22/42/1 23/43/1 19/35/1
f 24/44/2 17/36/2 20/38/2
f 18/45/8 17/46/8 24/47/8
f 23/43/1 20/48/1 19/35/1
f 6/49/8 4/50/8 16/51/8
f 18/34/7 22/42/7 19/35/7
f 24/47/8 21/52/8 18/45/8
f 21/40/3 23/53/3 22/41/3
f 3/3/1 5/54/1 1/1/1
f 25/55/5 26/56/5 27/57/5
f 2/58/6 1/22/6 16/24/6
f 2/5/2 16/59/2 4/6/2
f 7/60/8 6/49/8 16/51/8
f 26/56/6 25/55/6 28/61/6
f 1/62/3 5/7/3 7/9/3
f 27/63/2 26/64/2 29/65/2
f 25/55/6 30/66/6 28/61/6
f 26/64/2 28/67/2 29/65/2
f 31/68/3 32/69/3 30/70/3
f 27/57/5 31/71/5 25/55/5
f 25/72/3 31/68/3 30/70/3
f 32/73/4 29/74/4 28/75/4
f 30/76/4 32/73/4 28/75/4
f 33/77/9 34/78/9 35/79/9
f 36/80/10 37/81/10 38/82/10
f 34/83/11 38/84/11 37/85/11
f 33/86/12 39/87/12 40/88/12
f 40/89/10 36/80/10 38/82/10
f 35/90/11 34/83/11 37/85/11
f 35/79/9 39/91/9 33/77/9
f 39/87/12 36/92/12 40/88/12
f 34/93/13 40/94/13 38/95/13
f 41/96/9 42/97/9 43/98/9
f 44/99/10 45/100/10 46/101/10
f 42/102/11 46/103/11 45/104/11
f 41/105/12 47/106/12 48/107/12
f 48/108/10 44/99/10 46/101/10
f 43/109/11 42/102/11 45/104/11
f 43/98/9 47/110/9 41/96/9
f 47/106/12 44/111/12 48/107/12
f 42/112/13 48/113/13 46/114/13
f 49/115/9 50/116/9 51/117/9
f 52/118/10 53/119/10 54/120/10
f 50/121/11 54/122/11 53/123/11
f 49/124/12 55/125/12 56/126/12
f 56/127/10 52/118/10 54/120/10
f 51/128/11 50/121/11 53/123/11
f 51/117/9 55/129/9 49/115/9
f 55/125/12 52/130/12 56/126/12
f 50/131/13 56/132/13 54/133/13
f 57/134/9 58/135/9 59/136/9
f 60/137/10 61/138/10 62/139/10
f 58/140/11 62/141/11 61/142/11
f 57/143/12 63/144/12 64/145/12
f 64/146/10 60/137/10 62/139/10
f 59/147/11 58/140/11 61/142/11
f 59/136/9 63/148/9 57/134/9
f 63/144/12 60/149/12 64/145/12
f 58/150/13 64/151/13 62/152/13
f 65/153/14 66/154/14 67/155/14
f 68/156/15 69/157/15 70/158/15
f 66/159/16 70/160/16 69/161/16
f 65/162/17 71/163/17 72/164/17
f 72/165/15 68/156/15 70/158/15
f 67/166/16 66/159/16 69/161/16
f 67/155/14 71/167/14 65/153/14
f 71/163/17 68/168/17 72/164/17
f 73/169/14 74/170/14 75/171/14
f 76/172/15 77/173/15 78/174/15
f 74/175/16 78/176/16 77/177/16
f 73/178/17 79/179/17 80/180/17
f 80/181/15 76/172/15 78/174/15
f 75/182/16 74/175/16 77/177/16
f 75/171/14 79/183/14 73/169/14
f 79/179/17 76/184/17 80/180/17
f 81/185/18 82/186/18 83/187/18
f 84/188/19 85/189/19 86/190/19
f 82/191/20 86/192/20 85/193/20
f 81/194/21 87/195/21 88/196/21
f 88/197/19 84/188/19 86/190/19
f 83/198/20 82/191/20 85/193/20
f 83/187/18 87/199/18 81/185/18
f 87/195/21 84/200/21 88/196/21
f 89/201/18 90/202/18 91/203/18
f 92/204/19 93/205/19 94/206/19
f 90/207/20 94/208/20 93/209/20
f 89/210/21 95/211/21 96/212/21
f 96/213/19 92/204/19 94/206/19
f 91/214/20 90/207/20 93/209/20
f 91/203/18 95/215/18 89/201/18
f 95/211/21 92/216/21 96/212/21
f 97/217/22 98/218/22 99/219/22
f 99/219/22 100/220/22 97/217/22
f 101/221/23 102/222/23 103/223/23
f 103/223/23 104/224/23 101/221/23
f 34/93/13 33/225/13 40/94/13
f 42/112/13 41/226/13 48/113/13
f 50/131/13 49/227/13 56/132/13
f 58/150/13 57/228/13 64/151/13
