# Blender v2.79 (sub 0) OBJ File: ''
# www.blender.org
mtllib Slab.Up.mtl
o Slab.up
v -0.500000 0.000000 -0.500000
v -0.500000 0.000000 0.500000
v 0.500000 0.500000 0.500000
v -0.500000 0.500000 0.500000
v 0.500000 0.000000 -0.500000
v 0.500000 0.500000 -0.500000
v 0.500000 0.000000 0.500000
v -0.500000 0.500000 -0.500000
vt 0.000000 0.000000
vt 1.000000 1.000000
vt 0.000000 1.000000
vt 0.999929 1.000000
vt 0.000071 0.500071
vt 0.999929 0.500071
vt 0.000071 1.000000
vt 0.999929 0.500071
vt 0.999929 1.000000
vt 0.999929 0.500071
vt 0.000071 1.000000
vt 0.000071 0.500071
vt 0.999929 0.500071
vt 0.000071 1.000000
vt 0.000071 0.500071
vt 0.000000 1.000000
vt 1.000000 0.000000
vt 1.000000 1.000000
vt 1.000000 0.000000
vt 0.000071 1.000000
vt 0.000071 0.500071
vt 0.999929 1.000000
vt 0.999929 1.000000
vt 0.000000 0.000000
vn 0.0000 1.0000 0.0000
vn 0.0000 0.0000 -1.0000
vn -1.0000 0.0000 0.0000
vn 0.0000 0.0000 1.0000
vn 1.0000 0.0000 0.0000
vn 0.0000 -1.0000 0.0000
usemtl None
s off
f 4/1/1 6/2/1 8/3/1
f 5/4/2 8/5/2 6/6/2
f 2/7/3 8/8/3 1/9/3
f 7/10/4 4/11/4 2/12/4
f 5/13/5 3/14/5 7/15/5
f 2/16/6 5/17/6 7/18/6
f 4/1/1 3/19/1 6/2/1
f 5/4/2 1/20/2 8/5/2
f 2/7/3 4/21/3 8/8/3
f 7/10/4 3/22/4 4/11/4
f 5/13/5 6/23/5 3/14/5
f 2/16/6 1/24/6 5/17/6
