ply
format ascii 1.0
comment Created by Blender 2.79 (sub 0) - www.blender.org, source file: ''
element vertex 58
property float x
property float y
property float z
property float s
property float t
property uchar red
property uchar green
property uchar blue
element face 52
property list uchar uint vertex_indices
end_header
0.000000 0.500000 0.050000 0.000000 0.000000 0 0 0
-0.035355 -0.500000 0.035355 0.000000 0.000000 0 0 0
0.000000 -0.500000 0.050000 0.000000 0.000000 0 0 0
-0.035355 0.500000 0.035355 0.000000 0.000000 0 0 0
-0.050000 -0.500000 -0.000000 0.000000 0.000000 0 0 0
-0.050000 0.500000 -0.000000 0.000000 0.000000 13 13 13
-0.035355 -0.500000 -0.035355 0.000000 0.000000 0 0 0
-0.035355 0.500000 -0.035355 0.000000 0.000000 0 0 0
0.000000 -0.500000 -0.050000 0.000000 0.000000 0 0 0
0.000000 0.500000 -0.050000 0.000000 0.000000 0 0 0
0.035355 -0.500000 -0.035355 0.000000 0.000000 0 0 0
0.035355 0.500000 -0.035355 0.000000 0.000000 0 0 0
0.050000 -0.500000 0.000000 0.000000 0.000000 0 0 0
-0.050000 0.500000 -0.000000 0.000000 0.000000 0 0 0
0.050000 0.500000 0.000000 0.000000 0.000000 0 0 0
0.035355 -0.500000 0.035355 0.000000 0.000000 0 0 0
0.035355 0.500000 0.035355 0.000000 0.000000 0 0 0
-0.300000 0.500000 -0.600000 0.074219 0.804688 255 255 255
-0.300000 -0.500000 0.600000 1.207031 -0.335938 255 255 255
-0.300000 -0.500000 -0.600000 0.074219 -0.335938 255 255 255
-0.300000 0.500000 0.600000 0.980469 0.804688 255 255 255
-0.500000 -0.500000 0.600000 1.207031 -0.335938 255 255 255
-0.300000 -0.500000 0.600000 0.980469 -0.335938 255 255 255
-0.500000 0.500000 0.600000 1.207031 0.804688 255 255 255
-0.500000 -0.500000 -0.600000 0.074219 -0.335938 255 255 255
-0.500000 0.500000 -0.600000 1.207031 0.804688 255 255 255
-0.300000 -0.500000 -0.600000 0.980469 -0.335938 255 255 255
-0.500000 -0.500000 -0.600000 1.207031 -0.335938 255 255 255
-0.300000 -0.500000 -0.600000 0.980469 -1.472656 255 255 255
-0.300000 0.500000 0.600000 0.980469 -0.335938 255 255 255
-0.500000 0.500000 -0.600000 1.207031 -1.472656 255 255 255
-0.500000 0.500000 0.600000 1.207031 -0.335938 255 255 255
0.300000 0.500000 0.600000 0.019531 0.851562 255 255 255
0.300000 -0.500000 -0.600000 1.207031 -0.355469 255 255 255
0.300000 -0.500000 0.600000 0.019531 -0.355469 255 255 255
0.300000 0.500000 -0.600000 0.972656 0.851562 255 255 255
0.500000 -0.500000 -0.600000 1.207031 -0.355469 255 255 255
0.300000 -0.500000 -0.600000 0.972656 -0.355469 255 255 255
0.500000 0.500000 -0.600000 1.207031 0.851562 255 255 255
0.500000 -0.500000 0.600000 0.019531 -0.355469 255 255 255
0.500000 0.500000 0.600000 1.207031 0.851562 255 255 255
0.300000 -0.500000 0.600000 0.972656 -0.355469 255 255 255
0.500000 -0.500000 0.600000 1.207031 -0.355469 255 255 255
0.300000 -0.500000 0.600000 0.972656 -1.558594 255 255 255
0.500000 0.500000 -0.600000 1.207031 -0.355469 255 255 255
0.300000 0.500000 0.600000 0.972656 -1.558594 255 255 255
0.500000 0.500000 0.600000 1.207031 -1.558594 255 255 255
-0.035355 0.500000 -0.035355 0.000000 0.000000 15 15 15
-0.300000 0.500000 0.600000 1.207031 0.804688 255 255 255
-0.500000 0.500000 -0.600000 0.074219 0.804688 255 255 255
-0.300000 0.500000 -0.600000 0.980469 0.804688 255 255 255
-0.500000 -0.500000 -0.600000 1.207031 -1.472656 255 255 255
-0.300000 0.500000 -0.600000 0.980469 -1.472656 255 255 255
0.300000 0.500000 -0.600000 1.207031 0.851562 255 255 255
0.500000 0.500000 0.600000 0.019531 0.851562 255 255 255
0.300000 0.500000 0.600000 0.972656 0.851562 255 255 255
0.500000 -0.500000 0.600000 1.207031 -1.558594 255 255 255
0.300000 0.500000 -0.600000 0.972656 -0.355469 255 255 255
3 0 1 2
3 3 4 1
3 5 6 4
3 7 8 6
3 9 10 8
3 11 12 10
3 13 0 14
3 14 15 12
3 16 2 15
3 1 6 10
3 17 18 19
3 20 21 22
3 23 24 21
3 25 26 27
3 21 28 22
3 29 30 31
3 32 33 34
3 35 36 37
3 38 39 36
3 40 41 42
3 36 43 37
3 44 45 46
3 0 3 1
3 3 13 4
3 5 47 6
3 7 9 8
3 9 11 10
3 11 14 12
3 13 3 0
3 0 16 14
3 14 11 13
3 11 9 13
3 9 7 13
3 14 16 15
3 16 0 2
3 15 2 1
3 1 4 6
3 6 8 10
3 10 12 15
3 15 1 10
3 17 48 18
3 20 23 21
3 23 49 24
3 25 50 26
3 21 51 28
3 29 52 30
3 32 53 33
3 35 38 36
3 38 54 39
3 40 55 41
3 36 56 43
3 44 57 45
