ply
format ascii 1.0
comment Created by Blender 2.79 (sub 0) - www.blender.org, source file: ''
element vertex 71
property float x
property float y
property float z
property float s
property float t
property uchar red
property uchar green
property uchar blue
element face 58
property list uchar uint vertex_indices
end_header
0.500196 -0.500048 0.600000 -0.187500 -0.300781 255 255 255
0.500196 0.499952 -0.600000 -1.363281 0.882812 255 255 255
0.500196 0.499952 0.600000 -0.187500 0.882812 255 255 255
0.500196 0.499952 -0.600000 0.046875 0.882812 255 255 255
0.300196 -0.500000 -0.600000 -0.187500 -0.300781 255 255 255
0.300196 0.499952 -0.600000 -0.187500 0.882812 255 255 255
0.300196 -0.500000 -0.600000 -0.187500 1.785156 255 255 255
0.300196 0.499952 0.600000 0.992188 0.589844 255 255 255
0.300196 0.499952 -0.600000 -0.187500 0.589844 255 255 255
0.300196 -0.500048 0.600000 -0.183594 -0.296875 255 255 255
0.500196 0.499952 0.600000 0.050781 0.886719 255 255 255
0.300196 0.499952 0.600000 -0.183594 0.886719 255 255 255
0.300196 0.499952 -0.600000 1.218750 0.878906 255 255 255
0.500196 0.499952 0.600000 0.984375 -0.300781 255 255 255
0.500196 0.499952 -0.600000 0.984375 0.878906 255 255 255
0.300196 -0.500000 -0.600000 0.984375 -0.300781 255 255 255
0.500196 -0.500048 0.600000 1.218750 0.878906 255 255 255
0.300196 -0.500048 0.600000 0.984375 0.878906 255 255 255
-0.500000 0.500000 -0.600000 0.984375 0.871094 255 255 255
-0.300000 0.500000 -0.600000 0.750000 0.871094 255 255 255
-0.300000 -0.300000 -0.600000 0.750000 -0.066406 255 255 255
-0.500000 -0.500000 0.600000 0.984375 0.878906 255 255 255
0.300196 -0.500000 -0.600000 0.042969 -0.300781 255 255 255
0.300196 -0.500048 0.600000 0.042969 0.878906 255 255 255
-0.500000 0.500000 0.600000 0.984375 -0.140625 255 255 255
-0.500000 -0.500000 -0.600000 -0.191406 1.035156 255 255 255
-0.500000 -0.500000 0.600000 0.984375 1.035156 255 255 255
-0.500000 0.500000 0.600000 0.984375 0.871094 255 255 255
-0.300000 0.500000 -0.600000 0.750000 -0.300781 255 255 255
-0.500000 0.500000 -0.600000 0.984375 -0.300781 255 255 255
-0.300000 -0.300000 0.600000 0.984375 -0.066406 255 255 255
-0.300000 0.500000 -0.600000 -0.191406 0.871094 255 255 255
-0.300000 0.500000 0.600000 0.984375 0.871094 255 255 255
-0.300000 -0.300000 -0.600000 -0.191406 -0.132812 255 255 255
0.300196 -0.300000 0.600000 0.992188 0.589844 255 255 255
0.300196 -0.300000 -0.600000 -0.191406 0.589844 255 255 255
-0.300000 -0.300000 0.600000 0.750000 -0.066406 255 255 255
-0.500000 -0.500000 0.600000 0.984375 -0.300781 255 255 255
0.000000 0.500000 0.050000 0.000000 0.000000 0 0 0
-0.035355 -0.400000 0.035355 0.000000 0.000000 0 0 0
0.000000 -0.400000 0.050000 0.000000 0.000000 0 0 0
0.035355 -0.400000 -0.035355 0.000000 0.000000 0 0 0
0.050000 -0.400000 0.000000 0.000000 0.000000 0 0 0
0.035355 -0.400000 0.035355 0.000000 0.000000 0 0 0
0.050000 0.500000 0.000000 0.000000 0.000000 0 0 0
0.000000 0.500000 -0.050000 0.000000 0.000000 0 0 0
-0.035355 0.500000 0.035355 0.000000 0.000000 0 0 0
-0.050000 -0.400000 0.000000 0.000000 0.000000 0 0 0
-0.050000 0.500000 0.000000 0.000000 0.000000 1 1 1
-0.035355 -0.400000 -0.035355 0.000000 0.000000 0 0 0
-0.035355 0.500000 -0.035355 0.000000 0.000000 0 0 0
0.000000 -0.400000 -0.050000 0.000000 0.000000 0 0 0
0.035355 0.500000 -0.035355 0.000000 0.000000 0 0 0
0.500196 -0.500048 -0.600000 -1.363281 -0.300781 255 255 255
0.500196 -0.500048 -0.600000 0.046875 -0.300781 255 255 255
0.300196 -0.500048 0.600000 0.992188 1.785156 255 255 255
0.500196 -0.500048 0.600000 0.050781 -0.296875 255 255 255
0.300196 0.499952 0.600000 1.218750 -0.300781 255 255 255
0.500196 -0.500048 -0.600000 1.218750 -0.300781 255 255 255
0.300196 -0.300000 -0.600000 0.043715 -0.066406 255 255 255
0.300196 -0.500000 -0.600000 0.043520 -0.300781 255 255 255
-0.500000 -0.500000 -0.600000 0.984375 -0.300781 255 255 255
-0.500000 0.500000 -0.600000 -0.191406 -0.140625 255 255 255
-0.300000 0.500000 0.600000 0.750000 0.871094 255 255 255
-0.300000 -0.300000 -0.600000 -0.191406 -0.066406 255 255 255
-0.300000 -0.300000 0.600000 0.992187 -0.132812 255 255 255
0.300196 -0.500048 0.600000 0.043520 -0.300781 255 255 255
0.300196 -0.300000 0.600000 0.043715 -0.066406 255 255 255
0.035355 0.500000 0.035355 0.000000 0.000000 0 0 0
-0.050000 0.500000 0.000000 0.000000 0.000000 0 0 0
-0.035355 0.500000 -0.035355 0.000000 0.000000 1 1 1
3 0 1 2
3 3 4 5
3 6 7 8
3 9 10 11
3 12 13 14
3 15 16 17
3 18 19 20
3 21 22 23
3 24 25 26
3 27 28 29
3 30 31 32
3 33 34 35
3 36 27 37
3 38 39 40
3 41 42 43
3 43 38 40
3 38 44 45
3 46 47 39
3 48 49 47
3 50 51 49
3 45 41 51
3 52 42 41
3 44 43 42
3 0 53 1
3 3 54 4
3 6 55 7
3 9 56 10
3 12 57 13
3 15 58 16
3 59 60 20
3 60 61 20
3 61 18 20
3 21 61 22
3 24 62 25
3 27 63 28
3 30 64 31
3 33 65 34
3 66 67 36
3 36 63 27
3 37 66 36
3 38 46 39
3 43 40 49
3 40 39 49
3 39 47 49
3 49 51 43
3 51 41 43
3 43 68 38
3 69 46 38
3 38 68 44
3 44 52 45
3 45 50 69
3 69 38 45
3 46 69 47
3 48 70 49
3 50 45 51
3 45 52 41
3 52 44 42
3 44 68 43
