ply
format ascii 1.0
comment Created by Blender 2.79 (sub 0) - www.blender.org, source file: ''
element vertex 103
property float x
property float y
property float z
property float s
property float t
property uchar red
property uchar green
property uchar blue
element face 80
property list uchar uint vertex_indices
end_header
0.500000 0.500000 -0.500000 0.000000 1.000000 255 255 255
0.500000 -0.300000 0.500000 -0.996094 0.200000 255 255 255
0.500000 -0.300000 -0.500000 0.000000 0.200000 255 255 255
0.500000 0.500000 0.500000 1.996094 1.000000 255 255 255
-0.500000 0.500000 -0.500000 1.000000 1.996094 255 255 255
-0.500000 0.500000 0.500000 1.000000 1.000000 255 255 255
-0.500000 -0.300000 0.500000 0.000000 1.000000 255 255 255
-0.500000 0.500000 -0.500000 -0.996094 1.996094 255 255 255
-0.500000 -0.300000 -0.500000 -0.996094 1.000000 255 255 255
0.500000 0.500000 0.500000 1.000000 1.996094 255 255 255
-0.500000 0.500000 0.500000 0.000000 1.996094 255 255 255
0.000000 0.200000 0.500000 0.500000 1.697266 255 255 255
-0.500000 0.500000 -0.500000 1.000000 1.000000 255 255 255
0.000000 0.200000 -0.500000 0.500000 0.700000 255 255 255
0.000000 0.100000 0.050000 0.000000 0.000000 0 0 0
-0.035355 -0.500000 0.035355 0.000000 0.000000 0 0 0
0.000000 -0.500000 0.050000 0.000000 0.000000 0 0 0
-0.035355 0.100000 0.035355 0.000000 0.000000 0 0 0
-0.050000 -0.500000 -0.000000 0.000000 0.000000 0 0 0
-0.050000 0.100000 -0.000000 0.000000 0.000000 0 0 0
-0.035355 -0.500000 -0.035355 0.000000 0.000000 0 0 0
-0.035355 0.100000 -0.035355 0.000000 0.000000 0 0 0
0.000000 -0.500000 -0.050000 0.000000 0.000000 0 0 0
0.000000 0.100000 -0.050000 0.000000 0.000000 0 0 0
0.035355 -0.500000 -0.035355 0.000000 0.000000 0 0 0
0.035355 0.100000 -0.035355 0.000000 0.000000 0 0 0
0.050000 -0.500000 0.000000 0.000000 0.000000 0 0 0
0.050000 0.100000 0.000000 0.000000 0.000000 0 0 0
0.035355 -0.500000 0.035355 0.000000 0.000000 0 0 0
0.035355 0.100000 0.035355 0.000000 0.000000 0 0 0
0.000000 0.200000 -0.600000 0.886719 1.226562 255 255 255
0.000000 0.000000 0.600000 -0.406250 1.449219 255 255 255
0.000000 0.000000 -0.600000 0.886719 1.449219 255 255 255
-0.300000 -0.300000 0.600000 -0.406250 1.769531 255 255 255
-0.300000 -0.300000 -0.600000 0.886719 1.769531 255 255 255
-0.500000 -0.300000 -0.600000 1.800781 1.171875 255 255 255
0.000000 0.000000 -0.600000 1.011719 1.644531 255 255 255
-0.300000 -0.300000 -0.600000 1.484375 1.171875 255 255 255
0.000000 0.200000 0.600000 1.003906 0.839844 255 255 255
-0.500000 -0.300000 -0.600000 -0.203125 0.097656 255 255 255
-0.500000 -0.300000 0.600000 1.003906 0.097656 255 255 255
-0.500000 -0.500000 0.600000 1.800781 0.855469 255 255 255
-0.300000 -0.500000 0.600000 1.484375 0.855469 255 255 255
-0.300000 -0.300000 0.600000 1.484375 1.171875 255 255 255
-0.300000 -0.500000 0.600000 1.132812 1.417969 255 255 255
-0.300000 -0.300000 -0.600000 0.042969 1.605469 255 255 255
-0.300000 -0.300000 0.600000 1.132812 1.601562 255 255 255
-0.500000 -0.300000 0.600000 0.972656 0.304688 255 255 255
-0.500000 -0.500000 -0.600000 -0.203125 0.121094 255 255 255
-0.500000 -0.500000 0.600000 0.972656 0.121094 255 255 255
-0.300000 -0.500000 0.600000 0.996094 -0.273438 255 255 255
-0.500000 -0.500000 -0.600000 0.781250 1.019531 255 255 255
-0.300000 -0.500000 -0.600000 0.996094 1.019531 255 255 255
0.000000 0.200000 0.600000 1.746094 1.226562 255 255 255
0.000000 0.000000 -0.600000 3.039062 1.449219 255 255 255
0.000000 0.000000 0.600000 1.746094 1.449219 255 255 255
0.300000 -0.300000 -0.600000 3.039062 1.769531 255 255 255
0.300000 -0.300000 0.600000 1.746094 1.769531 255 255 255
0.500000 -0.300000 0.600000 0.222656 1.171875 255 255 255
0.000000 0.000000 0.600000 1.011719 1.644531 255 255 255
0.300000 -0.300000 0.600000 0.539062 1.171875 255 255 255
0.500000 -0.300000 -0.600000 -0.203125 0.097656 255 255 255
0.000000 0.200000 0.600000 1.003906 0.839844 255 255 255
0.500000 -0.300000 0.600000 1.003906 0.097656 255 255 255
0.500000 -0.500000 -0.600000 0.222656 0.855469 255 255 255
0.300000 -0.500000 -0.600000 0.539062 0.855469 255 255 255
0.300000 -0.300000 -0.600000 0.539062 1.171875 255 255 255
0.300000 -0.500000 -0.600000 1.859375 1.417969 255 255 255
0.300000 -0.300000 0.600000 2.949219 1.601562 255 255 255
0.300000 -0.300000 -0.600000 1.859375 1.601562 255 255 255
0.500000 -0.300000 -0.600000 0.964844 0.839844 255 255 255
0.500000 -0.500000 0.600000 -0.242188 1.128906 255 255 255
0.500000 -0.500000 -0.600000 0.964844 1.128906 255 255 255
0.300000 -0.500000 -0.600000 1.636719 3.171875 255 255 255
0.500000 -0.500000 0.600000 1.851562 1.878906 255 255 255
0.300000 -0.500000 0.600000 1.636719 1.878906 255 255 255
0.500000 0.500000 0.500000 -0.996094 1.000000 255 255 255
0.500000 0.500000 -0.500000 1.996094 1.996094 255 255 255
0.500000 -0.300000 0.500000 1.000000 1.199219 255 255 255
-0.500000 -0.300000 0.500000 0.000000 1.199219 255 255 255
-0.500000 -0.300000 -0.500000 1.000000 0.000000 255 255 255
0.000000 0.200000 0.600000 -0.406250 1.226562 255 255 255
-0.300000 -0.500000 -0.600000 1.484375 0.855469 255 255 255
-0.500000 -0.500000 -0.600000 1.800781 0.855469 255 255 255
0.000000 0.200000 -0.600000 1.011719 1.964844 255 255 255
0.000000 0.200000 -0.600000 -0.203125 0.839844 255 255 255
0.000000 0.000000 0.600000 1.011719 1.644531 255 255 255
0.000000 0.200000 0.600000 1.011719 1.964844 255 255 255
-0.500000 -0.300000 0.600000 1.800781 1.171875 255 255 255
-0.300000 -0.500000 -0.600000 0.042969 1.421875 255 255 255
-0.500000 -0.300000 -0.600000 -0.203125 0.304688 255 255 255
-0.500000 -0.500000 0.600000 0.781250 -0.273438 255 255 255
0.000000 0.200000 -0.600000 3.039062 1.226562 255 255 255
0.300000 -0.500000 0.600000 0.539062 0.855469 255 255 255
0.500000 -0.500000 0.600000 0.222656 0.855469 255 255 255
0.000000 0.200000 0.600000 1.011719 1.964844 255 255 255
0.000000 0.200000 -0.600000 -0.203125 0.839844 255 255 255
0.000000 0.000000 -0.600000 1.011719 1.644531 255 255 255
0.000000 0.200000 -0.600000 1.011719 1.964844 255 255 255
0.500000 -0.300000 -0.600000 0.222656 1.171875 255 255 255
0.300000 -0.500000 0.600000 2.949219 1.417969 255 255 255
0.500000 -0.300000 0.600000 -0.242188 0.839844 255 255 255
0.500000 -0.500000 -0.600000 1.851562 3.171875 255 255 255
3 0 1 2
3 3 4 5
3 6 7 8
3 9 10 11
3 12 0 13
3 14 15 16
3 17 18 15
3 19 20 18
3 21 22 20
3 23 24 22
3 25 26 24
3 21 19 27
3 27 28 26
3 29 16 28
3 15 20 24
3 30 31 32
3 32 33 34
3 35 36 37
3 38 39 40
3 41 42 43
3 44 45 46
3 47 48 49
3 50 51 52
3 53 54 55
3 55 56 57
3 58 59 60
3 61 62 63
3 64 65 66
3 67 68 69
3 70 71 72
3 73 74 75
3 0 76 1
3 3 77 4
3 6 10 7
3 11 78 9
3 10 79 11
3 13 80 12
3 0 2 13
3 14 17 15
3 17 19 18
3 19 21 20
3 21 23 22
3 23 25 24
3 25 27 26
3 19 17 27
3 17 14 27
3 14 29 27
3 27 25 23
3 23 21 27
3 27 29 28
3 29 14 16
3 28 16 15
3 15 18 20
3 20 22 24
3 24 26 28
3 28 15 24
3 30 81 31
3 32 31 33
3 82 83 35
3 35 84 36
3 37 82 35
3 38 85 39
3 43 86 87
3 87 88 43
3 88 41 43
3 44 89 45
3 47 90 48
3 50 91 51
3 53 92 54
3 55 54 56
3 93 94 58
3 58 95 59
3 60 93 58
3 61 96 62
3 66 97 98
3 98 99 66
3 99 64 66
3 67 100 68
3 70 101 71
3 73 102 74
