ply
format ascii 1.0
comment Created by Blender 2.79 (sub 0) - www.blender.org, source file: '3x5spiraltop.blend'
element vertex 140
property float x
property float y
property float z
property float s
property float t
property uchar red
property uchar green
property uchar blue
element face 94
property list uchar uint vertex_indices
end_header
0.512461 -0.511667 -1.912533 0.280251 0.329914 255 0 0
0.512461 0.488333 -1.912533 0.280251 0.617726 255 0 0
0.990000 0.488333 -1.714731 -0.211513 0.617726 255 0 0
0.531563 -0.511667 -1.904621 0.260580 0.329914 255 0 0
0.512461 0.488333 -1.912533 -0.679293 0.617726 255 0 0
0.512461 -0.511667 -1.912533 -0.679293 0.329914 255 0 0
0.050000 -0.511667 -1.893398 -0.187529 0.329914 255 0 0
0.050000 0.488333 -1.893398 -0.187529 0.617726 255 0 0
0.491481 0.488333 -0.064705 -0.272424 0.076192 255 0 0
1.946267 0.488333 -0.256231 0.458013 -0.226365 255 0 0
1.912533 0.488333 -0.512462 0.511302 -0.097713 255 0 0
1.714730 0.488333 -0.990001 0.547654 0.178408 255 0 0
1.400071 0.488333 -1.400072 0.511302 0.454528 255 0 0
0.990000 0.488333 -1.714731 0.404724 0.711831 255 0 0
0.512461 0.488333 -1.912533 0.235182 0.932782 255 0 0
0.050000 0.488333 -1.893398 0.014231 1.048443 255 0 0
-0.206231 0.488333 -1.859664 -0.114421 1.101732 255 0 0
-0.064705 0.488333 -0.491481 -0.416978 0.425176 255 0 0
-0.129410 0.488333 -0.482963 -0.449466 0.438633 255 0 0
-0.250000 0.488333 -0.433013 -0.519193 0.447813 255 0 0
0.482963 0.488333 0.129409 -0.328694 -0.012091 255 0 0
0.500000 0.488333 -0.000000 -0.285881 0.043704 255 0 0
-0.353553 0.488333 -0.353553 -0.588920 0.438633 255 0 0
0.433013 0.488333 0.250000 -0.384490 -0.054905 255 0 0
0.250000 0.488333 0.433013 -0.519193 -0.090998 255 0 0
0.353554 0.488333 0.353553 -0.449465 -0.081819 255 0 0
0.000000 0.488333 0.500000 -0.653896 -0.054905 255 0 0
0.129410 0.488333 0.482963 -0.588920 -0.081819 255 0 0
-0.250000 0.488333 0.433013 -0.752505 0.043704 255 0 0
-0.129409 0.488333 0.482963 -0.709691 -0.012092 255 0 0
-0.433013 0.488333 0.250000 -0.788599 0.178407 255 0 0
-0.353553 0.488333 0.353554 -0.779419 0.108680 255 0 0
-0.500000 0.488333 -0.000000 -0.752505 0.313110 255 0 0
-0.482963 0.488333 0.129409 -0.779419 0.248135 255 0 0
-0.433013 0.488333 -0.250000 -0.653896 0.411720 255 0 0
-0.482963 0.488333 -0.129410 -0.709692 0.368906 255 0 0
0.990000 -0.511667 -1.714731 -0.211513 0.329914 255 0 0
-0.206231 -0.511667 -1.859664 0.098807 0.329914 255 0 0
-0.206231 0.488333 -1.859664 0.098807 0.617726 255 0 0
0.491481 -0.511667 -0.064705 0.772197 0.329914 255 0 0
0.491481 0.488333 -0.064705 0.772197 0.617726 255 0 0
0.500000 0.488333 -0.000000 0.699890 0.617726 255 0 0
0.500000 -0.511667 -0.000000 0.699890 0.329914 255 0 0
1.946267 -0.511667 -0.256231 1.223189 0.329914 255 0 0
1.946267 0.488333 -0.256231 1.223190 0.617726 255 0 0
0.491481 0.488333 -0.064705 2.848899 0.617725 255 0 0
0.491481 -0.511667 -0.064705 2.848899 0.329913 255 0 0
1.944917 -0.511667 -0.266480 0.110260 0.329914 255 0 0
1.912533 0.488333 -0.512462 0.385143 0.617726 255 0 0
1.946267 0.488333 -0.256231 0.098807 0.617726 255 0 0
1.946267 -0.511667 -0.256231 0.098807 0.329914 255 0 0
1.714730 -0.511667 -0.990001 0.999695 0.329914 255 0 0
1.714730 0.488333 -0.990001 0.999695 0.617726 255 0 0
1.912533 -0.511667 -0.512462 0.385143 0.329914 255 0 0
1.400071 -0.511667 -1.400072 1.614247 0.329914 255 0 0
1.400071 0.488333 -1.400072 1.614247 0.617726 255 0 0
0.990000 -0.511667 -1.714731 2.186918 0.329914 255 0 0
0.990000 0.488333 -1.714731 2.186918 0.617725 255 0 0
-0.064705 -0.511667 -0.491481 1.548920 0.329914 255 0 0
-0.064705 0.488333 -0.491481 1.548920 0.617726 255 0 0
-0.206231 0.488333 -1.859664 3.054708 0.617725 255 0 0
-0.206231 -0.511667 -1.859664 3.054708 0.329913 255 0 0
-0.067293 -0.511667 -0.491141 0.775090 0.329914 255 0 0
-0.129410 0.488333 -0.482963 0.844504 0.617726 255 0 0
-0.064705 0.488333 -0.491481 0.772197 0.617726 255 0 0
-0.064705 -0.511667 -0.491481 0.772197 0.329914 255 0 0
-0.250000 -0.511667 -0.433013 0.999694 0.329914 255 0 0
-0.250000 0.488333 -0.433013 0.999694 0.617726 255 0 0
-0.129410 -0.511667 -0.482963 0.844504 0.329914 255 0 0
-0.353553 -0.511667 -0.353553 1.154884 0.329914 255 0 0
-0.353553 0.488333 -0.353553 1.154884 0.617726 255 0 0
-0.433013 -0.511667 -0.250000 1.299498 0.329914 255 0 0
-0.433013 0.488333 -0.250000 1.299498 0.617726 255 0 0
-0.482963 -0.511667 -0.129410 1.423681 0.329914 255 0 0
-0.482963 0.488333 -0.129410 1.423681 0.617726 255 0 0
-0.500000 -0.511667 -0.000000 1.299498 0.329914 255 0 0
-0.500000 0.488333 -0.000000 1.299498 0.617726 255 0 0
-0.482963 -0.511667 0.129409 1.154884 0.329914 255 0 0
-0.482963 0.488333 0.129409 1.154884 0.617726 255 0 0
-0.433013 -0.511667 0.250000 0.999694 0.329914 255 0 0
-0.433013 0.488333 0.250000 0.999694 0.617726 255 0 0
-0.353553 -0.511667 0.353554 0.844504 0.329914 255 0 0
-0.353553 0.488333 0.353554 0.844504 0.617726 255 0 0
-0.250000 -0.511667 0.433013 0.699890 0.329914 255 0 0
-0.250000 0.488333 0.433013 0.699890 0.617726 255 0 0
-0.129409 -0.511667 0.482963 0.575707 0.329914 255 0 0
-0.129409 0.488333 0.482963 0.575707 0.617726 255 0 0
0.000000 -0.511667 0.500000 1.299497 0.329914 255 0 0
0.000000 0.488333 0.500000 1.299498 0.617726 255 0 0
-0.129409 0.488333 0.482963 1.423681 0.617726 255 0 0
-0.129409 -0.511667 0.482963 1.423680 0.329914 255 0 0
0.129410 -0.511667 0.482963 1.154884 0.329914 255 0 0
0.129410 0.488333 0.482963 1.154884 0.617726 255 0 0
0.250000 -0.511667 0.433013 0.999694 0.329914 255 0 0
0.250000 0.488333 0.433013 0.999694 0.617726 255 0 0
0.167999 -0.511667 0.466979 1.105223 0.329914 255 0 0
0.353554 -0.511667 0.353553 0.844504 0.329914 255 0 0
0.353554 0.488333 0.353553 0.844504 0.617726 255 0 0
0.413943 -0.511667 0.274853 0.734597 0.329914 255 0 0
0.433013 0.488333 0.250000 0.699890 0.617726 255 0 0
0.372624 -0.511667 0.328700 0.809797 0.329914 255 0 0
0.482963 -0.511667 0.129409 0.575707 0.329914 255 0 0
0.482963 0.488333 0.129409 0.575707 0.617726 255 0 0
0.480965 -0.511667 0.134233 0.580674 0.329914 255 0 0
0.433013 -0.511667 0.250000 0.699890 0.329914 255 0 0
-0.129409 -0.511667 0.482963 -0.709691 -0.012092 255 255 255
-0.250000 -0.511667 0.433013 -0.752505 0.043704 255 255 255
-0.353553 -0.511667 0.353554 -0.779419 0.108680 255 255 255
-0.433013 -0.511667 0.250000 -0.788599 0.178407 255 255 255
-0.482963 -0.511667 0.129409 -0.779419 0.248135 255 255 255
-0.500000 -0.511667 -0.000000 -0.752505 0.313110 255 255 255
-0.482963 -0.511667 -0.129410 -0.709692 0.368906 255 255 255
-0.433013 -0.511667 -0.250000 -0.653896 0.411720 255 255 255
-0.353553 -0.511667 -0.353553 -0.588920 0.438633 255 255 255
-0.250000 -0.511667 -0.433013 -0.519193 0.447813 255 255 255
-0.129410 -0.511667 -0.482963 -0.449466 0.438633 255 255 255
-0.067293 -0.511667 -0.491141 -0.418277 0.425715 255 255 255
0.129410 -0.511667 0.482963 -0.588920 -0.081819 255 255 255
0.000000 -0.511667 0.500000 -0.653896 -0.054905 255 255 255
0.250000 -0.511667 0.433013 -0.519193 -0.090998 255 255 255
0.167999 -0.511667 0.466979 -0.566607 -0.084756 255 255 255
0.372624 -0.511667 0.328700 -0.433871 -0.075360 255 255 255
0.353554 -0.511667 0.353553 -0.449465 -0.081819 255 255 255
0.480965 -0.511667 0.134233 -0.330926 -0.013804 255 255 255
0.433013 -0.511667 0.250000 -0.384490 -0.054905 255 255 255
0.413943 -0.511667 0.274853 -0.400084 -0.061364 255 255 255
-0.064705 -0.511667 -0.491481 -0.416978 0.425176 255 255 255
-0.206231 -0.511667 -1.859664 -0.114421 1.101732 255 255 255
0.050000 -0.511667 -1.893398 0.014231 1.048443 255 255 255
0.512461 -0.511667 -1.912533 0.235182 0.932782 255 255 255
0.531563 -0.511667 -1.904621 0.241964 0.923944 255 255 255
0.990000 -0.511667 -1.714731 0.404724 0.711831 255 255 255
1.400071 -0.511667 -1.400072 0.511302 0.454528 255 255 255
1.714730 -0.511667 -0.990001 0.547654 0.178407 255 255 255
1.912533 -0.511667 -0.512462 0.511302 -0.097713 255 255 255
1.944917 -0.511667 -0.266480 0.460145 -0.221219 255 255 255
1.946267 -0.511667 -0.256231 0.458013 -0.226365 255 255 255
0.491481 -0.511667 -0.064705 -0.272424 0.076192 255 255 255
0.500000 -0.511667 -0.000000 -0.285881 0.043704 255 255 255
0.482963 -0.511667 0.129409 -0.328694 -0.012091 255 255 255
4 0 1 2 3
4 4 5 6 7
3 8 9 10
3 10 11 12
3 12 13 14
3 14 15 16
3 17 18 19
3 14 16 17
3 10 12 14
3 20 21 8
3 8 10 14
3 17 19 22
3 8 14 17
3 23 20 8
3 24 25 23
3 26 27 24
3 28 29 26
3 30 31 28
3 32 33 30
3 34 35 32
3 17 22 34
3 23 8 17
3 26 24 23
3 30 28 26
3 34 32 30
3 23 17 34
3 30 26 23
3 34 30 23
3 3 2 36
4 37 38 7 6
4 39 40 41 42
4 43 44 45 46
4 47 48 49 50
4 51 52 48 53
4 54 55 52 51
4 56 57 55 54
4 58 59 60 61
4 62 63 64 65
4 66 67 63 68
4 69 70 67 66
4 71 72 70 69
4 73 74 72 71
4 75 76 74 73
4 77 78 76 75
4 79 80 78 77
4 81 82 80 79
4 83 84 82 81
4 85 86 84 83
4 87 88 89 90
4 91 92 88 87
4 93 94 92 95
4 96 97 94 93
4 98 99 97 100
4 101 102 99 103
4 42 41 102 101
3 53 48 47
3 68 63 62
3 95 92 91
3 100 97 96
3 104 99 98
3 103 99 104
3 105 106 107
3 107 108 109
3 109 110 111
3 111 112 113
3 113 114 115
3 113 115 116
3 109 111 113
3 105 107 109
3 117 118 105
3 119 120 117
3 121 122 119
3 123 124 125
3 125 121 119
3 119 117 105
3 105 109 113
3 113 116 126
3 126 127 128
3 128 129 130
3 130 131 132
3 132 133 134
3 135 136 137
3 132 134 135
3 128 130 132
3 105 113 126
3 126 128 132
3 132 135 137
3 137 138 139
3 139 123 125
3 125 119 105
3 105 126 132
3 137 139 125
3 105 132 137
3 137 125 105
