ply
format ascii 1.0
comment Created by Blender 2.79 (sub 0) - www.blender.org, source file: '3x5spiral.blend'
element vertex 249
property float x
property float y
property float z
property float s
property float t
property uchar red
property uchar green
property uchar blue
element face 202
property list uchar uint vertex_indices
end_header
0.500000 0.490000 0.000000 0.500000 0.750000 255 0 0
0.482963 -0.510000 0.129410 0.564705 0.250000 255 0 0
0.500000 -0.510000 0.000000 0.500000 0.250000 255 0 0
0.433013 -0.510000 -0.250000 0.375000 0.716506 255 0 0
0.482963 -0.510000 -0.129410 0.435295 0.741481 255 0 0
0.000000 -0.510000 -0.000000 0.500000 0.500000 255 0 0
0.482963 0.490000 -0.129410 0.435295 0.750000 255 0 0
0.482963 -0.510000 -0.129410 0.435295 0.250000 255 0 0
0.353553 0.490000 0.353553 0.676777 0.676777 255 0 0
0.433013 0.490000 0.250000 0.625000 0.716506 255 0 0
-0.000000 0.490000 -0.000000 0.500000 0.500000 255 0 0
0.482963 0.490000 0.129410 0.564705 0.750000 255 0 0
0.433013 -0.510000 0.250000 0.625000 0.250000 255 0 0
0.433013 0.490000 0.250000 0.625000 0.750000 255 0 0
0.353553 -0.510000 0.353553 0.676777 0.250000 255 0 0
0.353553 0.490000 0.353553 0.676777 0.750000 255 0 0
0.250000 -0.510000 0.433013 0.625000 0.250000 255 0 0
0.250000 0.490000 0.433013 0.625000 0.750000 255 0 0
0.129409 -0.510000 0.482963 0.564705 0.250000 255 0 0
0.129409 0.490000 0.482963 0.564705 0.750000 255 0 0
-0.000000 -0.510000 0.500000 0.500000 0.250000 255 0 0
-0.000000 0.490000 0.500000 0.500000 0.750000 255 0 0
-0.129410 -0.510000 0.482963 0.435295 0.250000 255 0 0
-0.189705 0.240000 0.457988 0.405148 0.625000 255 0 0
-0.250000 0.240000 0.433013 0.375000 0.625000 255 0 0
-0.250000 -0.510000 0.433013 0.375000 0.250000 255 0 0
-0.353553 -0.510000 0.353553 0.323223 0.250000 255 0 0
-0.353553 0.240000 0.353553 0.323223 0.625000 255 0 0
-0.433013 -0.510000 0.250000 0.625000 0.250000 255 0 0
-0.353553 -0.510000 0.353553 0.676777 0.250000 255 0 0
-0.353553 -0.010000 0.353553 0.676777 0.500000 255 0 0
-0.433013 -0.010000 0.250000 0.625000 0.500000 255 0 0
-0.457988 -0.260000 0.189705 0.594852 0.375000 255 0 0
-0.482963 -0.260000 0.129410 0.564705 0.375000 255 0 0
-0.500000 -0.510000 -0.000000 0.500000 0.250000 255 0 0
-0.482963 -0.510000 0.129410 0.564705 0.250000 255 0 0
-0.129410 -0.510000 -0.482963 0.258519 0.435295 255 0 0
-0.000000 -0.510000 -0.500000 0.250000 0.500000 255 0 0
0.129409 -0.510000 -0.482963 0.564705 0.250000 255 0 0
-0.000000 -0.510000 -0.500000 0.500000 0.250000 255 0 0
-0.000000 -0.260000 -0.500000 0.500000 0.375000 255 0 0
0.129409 0.490000 -0.482963 0.564705 0.750000 255 0 0
0.250000 -0.510000 -0.433013 0.625000 0.250000 255 0 0
0.250000 0.490000 -0.433013 0.625000 0.750000 255 0 0
0.353553 -0.510000 -0.353554 0.676777 0.250000 255 0 0
0.353553 0.490000 -0.353554 0.323223 0.750000 255 0 0
0.433013 -0.510000 -0.250000 0.375000 0.250000 255 0 0
0.353553 -0.510000 -0.353554 0.323223 0.250000 255 0 0
0.433013 0.490000 -0.250000 0.375000 0.750000 255 0 0
-0.129410 0.490000 -0.482963 0.435295 0.750000 255 0 0
-0.129410 -0.260000 -0.482963 0.435295 0.375000 255 0 0
-0.189705 -0.010000 -0.457988 0.405148 0.500000 255 0 0
-0.250000 -0.010000 -0.433013 0.375000 0.500000 255 0 0
-0.353553 -0.010000 -0.353553 0.323223 0.500000 255 0 0
-0.353553 0.240000 -0.353553 0.323223 0.625000 255 0 0
-0.433013 0.240000 -0.250000 0.375000 0.625000 255 0 0
-0.353554 0.490000 -0.353553 0.323223 0.750000 255 0 0
-0.457988 0.490000 -0.189705 0.405148 0.750000 255 0 0
-0.457988 0.240000 -0.189705 0.405148 0.625000 255 0 0
-0.250000 0.490000 0.433013 0.716506 0.375000 255 0 0
-0.189705 0.490000 0.457988 0.728994 0.405148 255 0 0
-0.189705 0.240000 0.457988 -0.271006 0.625000 255 0 0
-0.751231 0.490000 1.813632 0.406816 0.750000 255 0 0
-0.751231 0.240000 1.813632 0.406816 0.625000 255 0 0
-0.250000 0.240000 0.433013 -0.283494 1.375000 255 0 0
-0.751231 0.240000 1.813632 0.406816 1.124385 255 0 0
-0.990000 0.240000 1.714730 0.357365 1.005000 255 0 0
-0.433013 -0.010000 0.250000 0.625000 1.283494 255 0 0
-1.400072 -0.010000 1.400071 1.200036 0.799964 255 0 0
-1.714730 -0.010000 0.990000 0.995000 0.642635 255 0 0
-0.353553 -0.010000 0.353553 -0.323223 0.500000 255 0 0
-1.400071 0.240000 1.400071 0.200036 0.625000 255 0 0
-1.400072 -0.010000 1.400071 0.200036 0.500000 255 0 0
-0.457988 -0.260000 0.189705 1.271006 0.375000 255 0 0
-1.813632 -0.010000 0.751231 0.593184 0.500000 255 0 0
-1.813632 -0.260000 0.751231 0.593184 0.375000 255 0 0
-0.482963 -0.260000 0.129410 0.564705 1.258519 255 0 0
-1.813632 -0.260000 0.751231 0.875615 0.593184 255 0 0
-1.912533 -0.260000 0.512462 0.756231 0.543733 255 0 0
-1.980000 -0.510000 -0.000000 0.510000 0.250000 255 0 0
-0.500000 -0.260000 -0.000000 1.250000 0.375000 255 0 0
-1.980000 -0.260000 0.000000 0.510000 0.375000 255 0 0
-0.250000 -0.510000 -0.433013 1.283494 0.375000 255 0 0
-0.353554 -0.510000 -0.353553 1.323223 0.323223 255 0 0
-0.990000 -0.510000 -1.714730 0.642635 0.005000 255 0 0
-0.129410 -0.260000 -0.482963 1.258519 0.435295 255 0 0
-0.000000 -0.260000 -1.980000 0.510000 0.500000 255 0 0
-0.512462 -0.260000 -1.912533 0.543734 0.243769 255 0 0
-0.000000 -0.260000 -0.500000 1.250000 0.375000 255 0 0
-0.000000 -0.510000 -1.980000 0.510000 0.250000 255 0 0
-0.000000 -0.260000 -1.980000 0.510000 0.375000 255 0 0
-0.189705 -0.010000 -0.457988 1.271006 0.500000 255 0 0
-0.751231 -0.260000 -1.813632 0.593184 0.375000 255 0 0
-0.751231 -0.010000 -1.813632 0.593184 0.500000 255 0 0
-0.250000 -0.010000 -0.433013 1.283494 1.375000 255 0 0
-0.751231 -0.010000 -1.813632 0.593184 1.124385 255 0 0
-0.990000 -0.010000 -1.714730 0.642635 1.005000 255 0 0
-0.433013 0.240000 -0.250000 0.375000 1.283494 255 0 0
-1.400072 0.240000 -1.400071 -0.200036 0.799964 255 0 0
-1.714731 0.240000 -0.990000 0.005000 0.642635 255 0 0
-0.353553 0.240000 -0.353553 1.323223 0.625000 255 0 0
-1.400071 -0.010000 -1.400072 0.799964 0.500000 255 0 0
-1.400072 0.240000 -1.400071 0.799964 0.625000 255 0 0
-0.457988 0.490000 -0.189705 1.271006 0.750000 255 0 0
-1.813632 0.240000 -0.751231 0.593184 0.625000 255 0 0
-1.813632 0.490000 -0.751231 0.593184 0.750000 255 0 0
-0.433013 0.490000 0.250000 -0.375000 0.283494 255 0 0
-0.482963 0.490000 0.129410 -0.435295 0.258519 255 0 0
-1.714730 0.490000 0.990000 -0.005000 -0.357365 255 0 0
-0.512462 -0.510000 -1.912533 0.243769 0.250000 255 0 0
-0.000000 -0.260000 -1.980000 0.500000 0.375000 255 0 0
-0.000000 -0.510000 -1.980000 0.500000 0.250000 255 0 0
-0.990000 -0.010000 -1.714730 0.005000 0.500000 255 0 0
-0.751231 -0.010000 -1.813632 0.124385 0.500000 255 0 0
-0.751231 -0.260000 -1.813632 0.124385 0.375000 255 0 0
-1.400072 -0.510000 -1.400071 -0.200036 0.250000 255 0 0
-1.400072 0.240000 -1.400071 -0.200036 0.625000 254 0 0
-1.400071 -0.010000 -1.400072 -0.200036 0.500000 255 0 0
-1.400072 -0.510000 -1.400071 0.799965 0.250000 255 0 0
-1.714731 0.240000 -0.990000 1.005000 0.625000 255 0 0
-1.912533 0.490000 -0.512461 0.243770 0.750000 255 0 0
-1.813632 0.490000 -0.751231 0.124385 0.750000 255 0 0
-1.813632 0.240000 -0.751231 0.124385 0.625000 255 0 0
-1.980000 -0.260000 0.000000 0.500000 0.375000 255 0 0
-1.980000 0.490000 0.000000 0.500000 0.750000 255 0 0
-1.912533 -0.260000 0.512462 0.756231 0.375000 255 0 0
-1.813632 -0.010000 0.751231 0.875615 0.500000 255 0 0
-1.714730 0.490000 0.990000 0.995000 0.750000 255 0 0
-1.912533 0.490000 0.512462 0.756231 0.750000 255 0 0
-1.400071 0.240000 1.400071 1.200036 0.625000 255 0 0
-1.400071 0.490000 1.400072 1.200036 0.750000 255 0 0
-0.990000 0.240000 1.714730 1.005000 0.625000 255 0 0
-1.400071 0.490000 1.400072 0.799964 0.750000 255 0 0
-1.400071 0.240000 1.400071 0.799964 0.625000 255 0 0
-0.751231 0.240000 1.813632 0.124385 0.625000 255 0 0
-0.990000 0.490000 1.714730 0.005000 0.750000 255 0 0
-0.990000 0.240000 1.714730 0.005000 0.625000 255 0 0
0.500000 -0.510000 0.000000 0.500000 0.750000 255 0 0
0.482963 -0.510000 0.129410 0.564705 0.741481 255 0 0
0.433013 -0.510000 0.250000 0.625000 0.716506 255 0 0
0.353553 -0.510000 0.353553 0.676777 0.676777 255 0 0
0.250000 -0.510000 0.433013 0.716506 0.625000 255 0 0
0.129409 -0.510000 0.482963 0.741481 0.564705 255 0 0
-0.000000 -0.510000 0.500000 0.750000 0.500000 255 0 0
-0.129410 -0.510000 0.482963 0.741481 0.435295 255 0 0
-0.250000 -0.510000 0.433013 0.716506 0.375000 255 0 0
-0.353553 -0.510000 0.353553 0.676777 0.323223 255 0 0
-0.433013 -0.510000 0.250000 0.625000 0.283494 255 0 0
-0.482963 -0.510000 0.129410 0.564705 0.258519 255 0 0
0.129409 -0.510000 -0.482963 0.258519 0.564705 255 0 0
0.250000 -0.510000 -0.433013 0.283494 0.625000 255 0 0
0.353553 -0.510000 -0.353554 0.323223 0.676777 255 0 0
0.482963 0.490000 0.129410 0.564705 0.741481 255 0 0
0.482963 0.490000 -0.129410 0.435295 0.741481 255 0 0
0.433013 0.490000 -0.250000 0.375000 0.716506 255 0 0
0.353553 0.490000 -0.353554 0.323223 0.676777 255 0 0
0.250000 0.490000 -0.433013 0.283494 0.625000 255 0 0
0.129409 0.490000 -0.482963 0.258519 0.564705 255 0 0
-0.000000 0.490000 -0.500000 0.250000 0.500000 255 0 0
-0.129410 0.490000 -0.482963 0.258519 0.435295 255 0 0
-0.250000 0.490000 -0.433013 0.283494 0.375000 255 0 0
-0.353554 0.490000 -0.353553 0.323223 0.323223 255 0 0
-0.433013 0.490000 -0.250000 0.375000 0.283494 255 0 0
-0.457988 0.490000 -0.189705 0.405148 0.271006 255 0 0
-0.129410 0.490000 0.482963 0.741481 0.435295 255 0 0
-0.000000 0.490000 0.500000 0.750000 0.500000 255 0 0
0.129409 0.490000 0.482963 0.741481 0.564705 255 0 0
0.250000 0.490000 0.433013 0.716506 0.625000 255 0 0
-0.129410 0.490000 0.482963 0.435295 0.750000 255 0 0
-0.189705 0.490000 0.457988 0.405148 0.750000 255 0 0
-0.353553 0.240000 0.353553 0.676777 0.625000 254 0 0
-0.457988 -0.010000 0.189705 0.594852 0.500000 255 0 0
-0.500000 -0.260000 -0.000000 0.500000 0.375000 255 0 0
-0.482963 -0.510000 -0.129409 0.435295 0.258519 255 0 0
-0.433013 -0.510000 -0.250000 0.375000 0.283494 255 0 0
-0.353554 -0.510000 -0.353553 0.323223 0.323223 255 0 0
-0.250000 -0.510000 -0.433013 0.283494 0.375000 255 0 0
-0.000000 0.490000 -0.500000 0.500000 0.750000 255 0 0
0.353553 0.490000 -0.353554 0.676777 0.750000 255 0 0
-0.189705 -0.260000 -0.457988 0.405148 0.375000 255 0 0
-0.250000 0.490000 -0.433013 0.375000 0.750000 255 0 0
-0.433013 0.490000 -0.250000 0.375000 0.750000 255 0 0
-0.482963 0.490000 -0.129409 0.435295 0.258519 255 0 0
-0.500000 0.490000 0.000000 0.500000 0.250000 255 0 0
-0.482963 0.490000 0.129410 0.564705 0.258519 255 0 0
-0.433013 0.490000 0.250000 0.625000 0.283494 255 0 0
-0.353553 0.490000 0.353553 0.676777 0.323223 255 0 0
-0.189705 0.490000 0.457988 -0.271006 0.750000 255 0 0
-1.400071 0.240000 1.400071 0.200036 0.799964 255 0 0
-0.353553 0.240000 0.353553 -0.323223 1.323223 255 0 0
-0.189705 0.240000 0.457988 -0.271006 1.405148 255 0 0
-1.813632 -0.010000 0.751231 0.875615 0.593184 255 0 0
-0.457988 -0.010000 0.189705 0.594852 1.271006 255 0 0
-0.353553 -0.010000 0.353553 0.676777 1.323223 255 0 0
-0.353553 0.240000 0.353553 -0.323223 0.625000 255 0 0
-0.457988 -0.010000 0.189705 1.271006 0.500000 255 0 0
-1.980000 -0.260000 0.000000 0.500000 0.510000 255 0 0
-0.500000 -0.260000 -0.000000 0.500000 1.250000 255 0 0
-0.457988 -0.260000 0.189705 0.594852 1.271006 255 0 0
-0.500000 -0.510000 -0.000000 1.250000 0.250000 255 0 0
-0.512462 -0.510000 -1.912533 0.543734 0.243769 255 0 0
-0.000000 -0.510000 -1.980000 0.510000 0.500000 255 0 0
-0.000000 -0.510000 -0.500000 1.250000 0.500000 255 0 0
-0.129410 -0.510000 -0.482963 1.258519 0.435295 255 0 0
-1.400072 -0.510000 -1.400071 0.799965 -0.200036 255 0 0
-0.433013 -0.510000 -0.250000 1.375000 0.283494 255 0 0
-1.714731 -0.510000 -0.990000 1.005000 -0.357365 255 0 0
-1.912533 -0.510000 -0.512461 1.243770 -0.456267 255 0 0
-0.482963 -0.510000 -0.129409 1.435295 0.258519 255 0 0
-0.500000 -0.510000 -0.000000 1.500000 0.250000 255 0 0
-1.980000 -0.510000 -0.000000 1.500000 -0.490000 255 0 0
-0.751231 -0.260000 -1.813632 0.593184 0.124385 255 0 0
-0.189705 -0.260000 -0.457988 1.271006 0.405148 255 0 0
-0.000000 -0.260000 -0.500000 1.250000 0.500000 255 0 0
-0.000000 -0.510000 -0.500000 1.250000 0.250000 255 0 0
-0.189705 -0.260000 -0.457988 1.271006 0.375000 255 0 0
-1.400071 -0.010000 -1.400072 0.799964 0.799964 255 0 0
-0.353553 -0.010000 -0.353553 1.323223 1.323223 255 0 0
-0.189705 -0.010000 -0.457988 1.271006 1.405148 255 0 0
-1.813632 0.240000 -0.751231 0.124385 0.593184 255 0 0
-0.457988 0.240000 -0.189705 0.405148 1.271006 255 0 0
-0.353553 0.240000 -0.353553 0.323223 1.323223 255 0 0
-0.353553 -0.010000 -0.353553 1.323223 0.500000 255 0 0
-0.457988 0.240000 -0.189705 1.271006 0.625000 255 0 0
-0.990000 0.490000 1.714730 0.357365 0.005000 255 0 0
-0.751231 0.490000 1.813632 0.406816 0.124385 255 0 0
-0.250000 0.490000 0.433013 -0.283494 0.375000 255 0 0
-0.189705 0.490000 0.457988 -0.271006 0.405148 255 0 0
-1.400071 0.490000 1.400072 0.200036 -0.200036 255 0 0
-0.353553 0.490000 0.353553 -0.323223 0.323223 255 0 0
-1.980000 0.490000 0.000000 -0.500000 -0.490000 255 0 0
-1.912533 0.490000 0.512462 -0.243769 -0.456267 255 0 0
-0.500000 0.490000 0.000000 -0.500000 0.250000 255 0 0
-1.813632 0.490000 -0.751231 -0.875615 -0.406816 255 0 0
-1.912533 0.490000 -0.512461 -0.756230 -0.456267 255 0 0
-0.482963 0.490000 -0.129409 -0.564705 0.258519 255 0 0
-0.457988 0.490000 -0.189705 -0.594852 0.271006 255 0 0
-0.512462 -0.260000 -1.912533 0.243769 0.375000 255 0 0
-0.990000 -0.510000 -1.714730 0.005000 0.250000 255 0 0
-1.714731 -0.510000 -0.990000 1.005000 0.250000 255 0 0
-1.714731 0.240000 -0.990000 0.005000 0.625000 255 0 0
-1.714731 -0.510000 -0.990000 0.005000 0.250000 255 0 0
-1.912533 -0.510000 -0.512461 0.243770 0.250000 255 0 0
-1.980000 -0.510000 -0.000000 0.500000 0.250000 255 0 0
-1.813632 -0.260000 0.751231 0.875615 0.375000 255 0 0
-1.714730 -0.010000 0.990000 0.995000 0.500000 255 0 0
-1.400072 -0.010000 1.400071 1.200036 0.500000 255 0 0
-0.990000 0.490000 1.714730 1.005000 0.750000 255 0 0
-0.751231 0.490000 1.813632 0.124385 0.750000 255 0 0
3 0 1 2
3 3 4 5
3 6 2 7
3 8 9 10
3 11 12 1
3 13 14 12
3 15 16 14
3 17 18 16
3 19 20 18
3 21 22 20
3 23 24 25
3 26 24 27
3 28 29 30
3 28 31 32
3 33 34 35
3 36 37 5
3 38 39 40
3 41 42 38
3 43 44 42
3 45 46 47
3 48 7 46
3 49 40 50
3 49 50 51
3 52 53 54
3 55 56 54
3 57 55 58
3 59 60 10
3 61 62 63
3 64 65 66
3 67 68 69
3 70 71 72
3 73 74 75
3 76 77 78
3 79 80 81
3 82 83 84
3 85 86 87
3 88 89 90
3 91 92 93
3 94 95 96
3 97 98 99
3 100 101 102
3 103 104 105
3 106 107 108
3 109 110 111
3 112 113 114
3 115 116 117
3 118 119 102
3 120 121 122
3 123 124 120
3 125 124 123
3 126 127 128
3 129 130 127
3 131 132 133
3 134 135 136
3 0 11 1
3 4 137 5
3 137 138 5
3 138 139 5
3 139 140 5
3 140 141 5
3 141 142 5
3 142 143 5
3 143 144 5
3 144 145 5
3 145 146 5
3 146 147 5
3 147 148 5
3 148 34 5
3 5 37 149
3 149 150 5
3 150 151 5
3 151 3 5
3 6 0 2
3 9 152 10
3 152 0 10
3 0 153 10
3 153 154 10
3 154 155 10
3 155 156 10
3 156 157 10
3 157 158 10
3 158 159 10
3 159 160 10
3 160 161 10
3 161 162 10
3 162 163 10
3 10 60 164
3 164 165 10
3 165 166 10
3 166 167 10
3 167 8 10
3 11 13 12
3 13 15 14
3 15 17 16
3 17 19 18
3 19 21 20
3 21 168 22
3 25 22 23
3 22 168 23
3 168 169 23
3 26 25 24
3 30 31 28
3 29 170 30
3 31 171 32
3 32 33 35
3 35 28 32
3 33 172 34
3 5 34 173
3 173 174 5
3 174 175 5
3 175 176 5
3 176 36 5
3 40 177 41
3 41 38 40
3 41 43 42
3 43 178 44
3 45 48 46
3 48 6 7
3 49 177 40
3 50 179 51
3 51 52 180
3 180 49 51
3 54 56 180
3 180 52 54
3 55 181 56
3 57 181 55
3 10 163 182
3 182 183 10
3 183 184 10
3 184 185 10
3 185 186 10
3 186 59 10
3 61 187 62
3 66 188 189
3 64 190 65
3 66 189 64
3 69 191 67
3 191 192 67
3 67 193 68
3 70 194 71
3 73 195 74
3 78 196 197
3 76 198 77
3 78 197 76
3 79 199 80
3 200 201 202
3 200 202 203
3 204 84 83
3 84 200 82
3 204 205 206
3 207 206 208
3 208 206 205
3 209 210 207
3 208 209 207
3 205 204 83
3 200 203 82
3 87 211 85
3 211 212 85
3 85 213 86
3 88 214 89
3 91 215 92
3 96 216 217
3 94 218 95
3 96 217 94
3 99 219 97
3 219 220 97
3 97 221 98
3 100 222 101
3 103 223 104
3 224 225 226
3 225 227 226
3 108 228 229
3 228 224 226
3 230 231 232
3 231 108 107
3 232 231 107
3 233 234 235
3 234 230 232
3 235 236 233
3 232 235 234
3 228 226 229
3 108 229 106
3 109 237 110
3 237 109 114
3 109 238 114
3 238 112 114
3 112 238 117
3 238 115 117
3 118 239 119
3 240 241 122
3 241 242 122
3 242 120 122
3 120 242 123
3 242 243 123
3 125 128 124
3 128 125 126
3 125 244 126
3 126 245 127
3 127 245 129
3 245 246 129
3 131 247 132
3 134 248 135
