ply
format ascii 1.0
comment Created by Blender 2.82 (sub 7) - www.blender.org, source file: ''
element vertex 69
property float x
property float y
property float z
property float s
property float t
property uchar red
property uchar green
property uchar blue
property uchar alpha
element face 48
property list uchar uint vertex_indices
end_header
0.500000 -0.500000 0.500000 0.999900 0.999900 255 255 255 255
-0.500000 -0.500000 0.500000 0.999900 0.000100 255 255 255 255
-0.500000 -0.500000 -0.500000 0.000100 0.000100 255 255 255 255
0.000000 0.000000 0.000000 0.500000 0.500000 255 255 255 255
-0.250000 -0.000000 0.250000 0.250000 0.250000 255 255 255 255
0.500000 -0.000000 0.250000 1.000000 0.250000 255 255 255 255
-0.500000 -0.500000 -0.500000 0.000000 0.000000 255 255 255 255
-0.500000 -0.500000 0.500000 1.000000 0.000000 255 255 255 255
-0.500000 -0.250000 0.500000 1.000000 0.250000 255 255 255 255
-0.500000 -0.500000 0.500000 0.000000 0.000000 255 255 255 255
0.500000 -0.500000 0.500000 1.000000 0.000000 255 255 255 255
0.500000 -0.250000 0.500000 1.000000 0.250000 255 255 255 255
0.250000 0.500000 -0.500000 0.750000 1.000000 255 255 255 255
0.250000 0.500000 -0.250000 0.750000 0.750000 255 255 255 255
0.500000 0.500000 -0.500000 1.000000 1.000000 255 255 255 255
0.500000 -0.500000 -0.500000 0.226919 0.226640 255 255 255 255
-0.250000 -0.250000 -0.500000 0.770855 0.045328 255 255 255 255
0.000000 0.000000 -0.500000 0.589543 -0.135984 255 255 255 255
0.500000 0.250000 -0.250000 0.750000 0.750000 255 255 255 255
0.500000 -0.500000 -0.500000 1.000000 0.000000 255 255 255 255
0.000000 0.250000 -0.500000 0.000000 0.750000 255 255 255 255
0.000000 0.000000 -0.500000 0.000000 0.500000 255 255 255 255
0.500000 0.500000 -0.250000 1.000000 0.750000 255 255 255 255
0.500000 0.000000 0.000000 1.000000 0.500000 255 255 255 255
0.500000 0.250000 0.000000 1.000000 0.750000 255 255 255 255
0.500000 0.250000 0.000000 1.000000 0.500000 255 255 255 255
0.500000 0.250000 -0.250000 1.000000 0.750000 255 255 255 255
0.250000 0.250000 -0.250000 0.750000 0.750000 255 255 255 255
-0.250000 -0.000000 0.250000 0.750000 0.500000 255 255 255 255
-0.250000 0.000000 -0.500000 0.000000 0.500000 255 255 255 255
-0.250000 -0.250000 -0.500000 0.000000 0.250000 255 255 255 255
0.500000 -0.000000 0.250000 1.000000 0.500000 255 255 255 255
-0.250000 -0.000000 0.250000 0.250000 0.500000 255 255 255 255
-0.250000 -0.250000 0.250000 0.250000 0.250000 255 255 255 255
0.250000 0.500000 -0.500000 0.000000 1.000000 255 255 255 255
0.250000 0.250000 -0.500000 0.000000 0.750000 255 255 255 255
0.250000 0.250000 -0.250000 0.250000 0.750000 255 255 255 255
0.500000 0.500000 -0.250000 1.000000 1.000000 255 255 255 255
0.500000 -0.250000 0.500000 1.000000 0.000000 255 255 255 255
0.500000 -0.250000 0.250000 1.000000 0.250000 255 255 255 255
-0.250000 -0.250000 -0.500000 0.250000 1.000000 255 255 255 255
-0.500000 -0.250000 -0.500000 0.000000 1.000000 255 255 255 255
0.000000 0.000000 -0.500000 0.500000 1.000000 255 255 255 255
-0.250000 0.000000 -0.500000 0.250000 1.000000 255 255 255 255
0.000000 0.250000 -0.500000 0.500000 1.000000 255 255 255 255
0.000000 0.250000 0.000000 0.500000 0.500000 255 255 255 255
0.500000 -0.500000 -0.500000 0.000100 0.999900 255 255 255 255
-0.500000 -0.250000 -0.500000 0.000000 0.250000 255 255 255 255
-0.500000 -0.250000 0.500000 0.000000 0.250000 255 255 255 255
-0.500000 -0.250000 -0.500000 0.952168 0.045328 255 255 255 255
-0.500000 -0.500000 -0.500000 0.952168 0.226640 255 255 255 255
0.250000 0.250000 -0.500000 0.408231 -0.317297 255 255 255 255
0.500000 0.500000 -0.500000 0.226919 -0.498609 255 255 255 255
0.250000 0.500000 -0.500000 0.408231 -0.498609 255 255 255 255
0.000000 0.250000 -0.500000 0.589543 -0.317297 255 255 255 255
-0.250000 0.000000 -0.500000 0.770855 -0.135984 255 255 255 255
0.500000 -0.250000 0.250000 0.250000 0.250000 255 255 255 255
0.500000 0.000000 0.000000 0.500000 0.500000 255 255 255 255
0.500000 -0.000000 0.250000 0.250000 0.500000 255 255 255 255
0.500000 0.250000 0.000000 0.500000 0.750000 255 255 255 255
0.500000 0.500000 -0.250000 0.750000 1.000000 255 255 255 255
0.500000 -0.500000 0.500000 0.000000 0.000000 255 255 255 255
0.500000 -0.250000 0.500000 0.000000 0.250000 255 255 255 255
0.000000 0.250000 0.000000 0.500000 0.750000 255 255 255 255
-0.250000 -0.250000 0.250000 0.750000 0.250000 255 255 255 255
0.250000 0.500000 -0.250000 0.250000 1.000000 255 255 255 255
0.250000 0.500000 -0.250000 0.750000 1.000000 255 255 255 255
-0.500000 -0.250000 0.500000 0.000000 0.000000 255 255 255 255
0.250000 0.250000 -0.500000 0.750000 1.000000 255 255 255 255
3 0 1 2
3 3 4 5
3 6 7 8
3 9 10 11
3 12 13 14
3 15 16 17
3 18 19 14
3 20 21 3
3 22 14 13
3 3 23 24
3 25 26 27
3 28 29 30
3 31 32 33
3 34 35 36
3 27 26 37
3 38 39 33
3 33 40 41
3 3 42 43
3 44 45 27
3 0 2 46
3 3 5 23
3 6 8 47
3 9 11 48
3 49 16 50
3 50 16 15
3 15 51 52
3 52 51 53
3 51 17 54
3 17 16 55
3 15 17 51
3 56 57 58
3 57 18 59
3 18 14 60
3 19 56 61
3 61 56 62
3 56 19 57
3 57 19 18
3 20 3 63
3 3 24 63
3 25 27 45
3 28 30 64
3 31 33 39
3 34 36 65
3 27 37 66
3 38 33 67
3 33 41 67
3 3 43 4
3 44 27 68
