ply
format ascii 1.0
comment Created by Blender 2.82 (sub 7) - www.blender.org, source file: ''
element vertex 68
property float x
property float y
property float z
property float s
property float t
property uchar red
property uchar green
property uchar blue
property uchar alpha
element face 48
property list uchar uint vertex_indices
end_header
-0.255583 -0.248695 0.246587 0.250000 0.250000 255 255 255 255
-0.500000 -0.250000 0.500000 0.000000 0.000000 255 255 255 255
-0.250000 -0.250000 0.500000 0.250000 0.000000 255 255 255 255
-0.255583 -0.248695 0.246587 0.748333 0.001667 255 255 255 255
-0.250000 -0.000000 0.500000 0.998333 0.251667 255 255 255 255
-0.255583 0.001305 0.246587 0.748333 0.251667 255 255 255 255
0.500000 -0.500000 0.500000 0.000000 0.000000 255 255 255 255
0.000000 -0.000000 0.500000 0.500000 0.500000 255 255 255 255
-0.250000 -0.250000 0.500000 0.750000 0.250000 255 255 255 255
-0.500000 -0.500000 0.500000 0.000000 1.000000 255 255 255 255
0.500000 -0.500000 -0.500000 1.000000 0.000000 255 255 255 255
0.500000 -0.500000 0.500000 1.000000 1.000000 255 255 255 255
-0.506318 0.000000 -0.004983 0.500000 0.500000 255 255 255 255
-0.500000 0.250000 -0.250000 0.250000 0.750000 255 255 255 255
-0.500000 -0.500000 -0.500000 0.000000 0.000000 255 255 255 255
-0.506318 0.250000 -0.004983 0.000333 0.749000 255 255 255 255
-0.006318 0.000000 -0.004983 0.500333 0.499000 255 255 255 255
-0.006318 0.250000 -0.004983 0.500333 0.749000 255 255 255 255
0.000000 -0.000000 0.500000 0.496667 0.000000 255 255 255 255
-0.006318 0.250000 -0.004983 0.746667 0.500000 255 255 255 255
-0.006318 0.000000 -0.004983 0.496667 0.500000 255 255 255 255
-0.500000 -0.500000 -0.500000 1.000000 0.000000 255 255 255 255
0.500000 0.500000 -0.500000 0.000000 1.000000 255 255 255 255
0.500000 -0.500000 -0.500000 0.000000 0.000000 255 255 255 255
-0.500000 0.250000 -0.250000 0.000000 0.750000 255 255 255 255
-0.506318 0.250000 -0.004983 0.000000 0.500000 255 255 255 255
-0.006318 0.250000 -0.004983 0.500000 0.500000 255 255 255 255
-0.505583 0.001305 0.246587 0.500000 0.250000 255 255 255 255
-0.255583 0.001305 0.246587 0.750000 0.250000 255 255 255 255
-0.255583 -0.248695 0.246587 0.751667 0.248667 255 255 255 255
-0.505583 0.001305 0.246587 0.501667 0.498667 255 255 255 255
-0.505583 -0.248695 0.246587 0.501667 0.248667 255 255 255 255
0.250000 0.250000 0.500000 0.750000 -0.001667 255 255 255 255
0.250000 0.500000 -0.250000 1.000000 0.748333 255 255 255 255
0.250000 0.250000 -0.250000 0.750000 0.748333 255 255 255 255
-0.500000 0.500000 -0.250000 0.000000 0.998333 255 255 255 255
-0.500000 0.250000 -0.250000 0.000000 0.748333 255 255 255 255
0.500000 0.500000 0.500000 0.000000 1.000000 255 255 255 255
-0.500000 0.500000 -0.500000 0.000000 1.000000 255 255 255 255
-0.500000 0.500000 -0.250000 0.000000 0.750000 255 255 255 255
0.250000 0.500000 -0.250000 0.750000 0.750000 255 255 255 255
-0.505583 -0.248695 0.246587 0.000000 0.250000 255 255 255 255
-0.250000 -0.250000 0.500000 0.998333 0.001667 255 255 255 255
-0.500000 -0.250000 0.500000 1.000000 0.250000 255 255 255 255
-0.500000 -0.500000 0.500000 1.000000 0.000000 255 255 255 255
0.250000 0.250000 0.500000 0.250000 0.750000 255 255 255 255
0.250000 0.500000 0.500000 0.250000 1.000000 255 255 255 255
0.000000 0.250000 0.500000 0.500000 0.750000 255 255 255 255
-0.250000 -0.000000 0.500000 0.750000 0.500000 255 255 255 255
-0.505583 -0.248695 0.246587 0.750000 0.250000 255 255 255 255
-0.505583 0.001305 0.246587 0.750000 0.500000 255 255 255 255
-0.500000 0.500000 -0.250000 0.250000 1.000000 255 255 255 255
-0.506318 0.250000 -0.004983 0.500000 0.750000 255 255 255 255
-0.506318 0.000000 -0.004983 0.000333 0.499000 255 255 255 255
0.000000 0.250000 0.500000 0.746667 0.000000 255 255 255 255
-0.500000 0.500000 -0.500000 1.000000 1.000000 255 255 255 255
0.000000 0.250000 0.500000 0.500000 0.000000 255 255 255 255
0.250000 0.250000 0.500000 0.750000 0.000000 255 255 255 255
0.250000 0.250000 -0.250000 0.750000 0.750000 255 255 255 255
-0.250000 -0.000000 0.500000 0.750000 0.000000 255 255 255 255
0.000000 -0.000000 0.500000 1.000000 0.000000 255 255 255 255
-0.006318 0.000000 -0.004983 1.000000 0.500000 255 255 255 255
-0.255583 0.001305 0.246587 0.751667 0.498667 255 255 255 255
0.250000 0.500000 0.500000 1.000000 -0.001667 255 255 255 255
0.250000 0.500000 -0.250000 0.750000 0.998333 255 255 255 255
0.500000 0.500000 -0.500000 1.000000 1.000000 255 255 255 255
0.250000 0.500000 0.500000 0.750000 0.000000 255 255 255 255
0.500000 0.500000 0.500000 1.000000 0.000000 255 255 255 255
3 0 1 2
3 3 4 5
3 6 7 8
3 9 10 11
3 12 13 14
3 15 16 17
3 18 19 20
3 21 22 23
3 24 25 26
3 12 27 28
3 29 30 31
3 32 33 34
3 34 35 36
3 10 37 6
3 38 39 40
3 0 41 1
3 3 42 4
3 8 43 44
3 6 37 45
3 37 46 45
3 45 47 7
3 8 44 6
3 7 48 8
3 6 45 7
3 9 14 10
3 14 44 49
3 44 43 49
3 49 50 12
3 51 38 13
3 38 14 13
3 12 52 13
3 14 49 12
3 15 53 16
3 18 54 19
3 21 55 22
3 56 57 26
3 57 58 26
3 58 24 26
3 59 60 28
3 60 61 28
3 61 12 28
3 29 62 30
3 32 63 33
3 34 64 35
3 10 65 37
3 66 67 40
3 67 65 40
3 65 38 40
