ply
format ascii 1.0
comment Created by Blender 2.82 (sub 7) - www.blender.org, source file: ''
element vertex 20
property float x
property float y
property float z
property float s
property float t
property uchar red
property uchar green
property uchar blue
property uchar alpha
element face 12
property list uchar uint vertex_indices
end_header
0.000001 -0.500000 0.500000 0.500001 1.000000 255 255 255 255
0.500000 -0.500000 -0.500000 0.999999 0.000000 255 255 255 255
0.500001 -0.500000 0.500000 1.000000 1.000000 255 255 255 255
0.500000 0.500000 -0.500000 -0.000000 1.000000 255 255 255 255
0.000000 -0.500000 -0.500000 0.500000 0.000000 255 255 255 255
0.000000 0.500000 -0.500000 0.500000 1.000000 255 255 255 255
0.000001 0.500000 0.500000 0.500000 1.000000 255 255 255 255
0.500001 -0.500000 0.500000 1.000000 0.000000 255 255 255 255
0.500001 0.500000 0.500000 1.000000 1.000000 255 255 255 255
0.500000 0.500000 -0.500000 1.000000 1.000000 255 255 255 255
0.500001 -0.500000 0.500000 0.000000 0.000000 255 255 255 255
0.000001 0.500000 0.500000 0.500001 0.000000 255 255 255 255
0.000000 0.500000 -0.500000 0.000000 1.000000 255 255 255 255
0.000001 -0.500000 0.500000 1.000000 0.000000 255 255 255 255
0.000001 0.500000 0.500000 1.000000 1.000000 255 255 255 255
0.500000 -0.500000 -0.500000 -0.000000 0.000000 255 255 255 255
0.000001 -0.500000 0.500000 0.500000 0.000000 255 255 255 255
0.500001 0.500000 0.500000 0.000000 1.000000 255 255 255 255
0.500001 0.500000 0.500000 1.000000 0.000000 255 255 255 255
0.000000 -0.500000 -0.500000 0.000000 0.000000 255 255 255 255
3 0 1 2
3 3 4 5
3 6 7 8
3 9 10 1
3 11 9 5
3 12 13 14
3 0 4 1
3 3 15 4
3 6 16 7
3 9 17 10
3 11 18 9
3 12 19 13
