# Blender v2.78 (sub 0) OBJ File: ''
# www.blender.org
mtllib windowz-.mtl
o bedx+.042
v 0.500000 0.500000 -0.499999
v -0.500000 0.500000 -0.499999
v -0.500000 0.500000 -0.399999
v 0.499999 0.500000 -0.399999
v -0.500000 -0.500000 -0.399999
v -0.500000 -0.500000 -0.499999
v 0.500000 -0.500000 -0.499999
v 0.500000 -0.500000 -0.399999
v -0.450000 -0.450000 -0.499999
v 0.450000 -0.450000 -0.499999
v -0.450000 0.450000 -0.499999
v 0.450000 0.450000 -0.499999
v -0.450000 0.450000 -0.399999
v -0.450000 -0.450000 -0.399999
v 0.449999 0.450000 -0.399999
v 0.450000 -0.450000 -0.399999
vt 0.8333 0.0252
vt 0.7778 0.4752
vt 0.7778 0.0252
vt 0.8333 0.0000
vt 0.8333 0.4752
vt 0.7222 0.0000
vt 0.7222 0.5000
vt 0.6667 0.5000
vt 0.0000 0.5000
vt 0.0278 0.9750
vt 0.0000 1.0000
vt 0.6111 0.5000
vt 0.5556 0.5000
vt 0.5556 0.0000
vt 0.0000 0.0000
vt 0.0278 0.4750
vt 0.0000 0.5000
vt 0.7778 0.5000
vt 0.7222 0.5000
vt 0.6667 0.0000
vt 0.6111 0.0000
vt 0.5556 0.0000
vt 0.0278 0.0250
vt 0.7778 0.0000
vt 0.6667 0.0000
vt 0.6667 0.5000
vt 0.6111 0.5000
vt 0.5556 1.0000
vt 0.5278 0.9750
vt 0.5278 0.4750
vt 0.5556 0.5000
vt 0.5278 0.0250
vt 0.5278 0.5250
vt 0.0278 0.5250
vt 0.5556 0.5000
vt 1.0000 0.0000
vt 0.9444 0.4500
vt 0.9444 0.0000
vt 0.8889 0.0000
vt 0.8333 0.4500
vt 0.8333 0.0000
vt 0.8889 0.4500
vt 0.9444 0.0000
vt 0.9444 0.4500
vt 1.0000 0.4500
vt 0.8889 0.4500
vt 0.8889 0.0000
vn 1.0000 -0.0000 0.0000
vn 0.7071 0.7071 -0.0000
vn -0.0000 1.0000 0.0000
vn 0.0000 0.0000 1.0000
vn -1.0000 0.0000 0.0000
vn -0.0000 -0.0000 -1.0000
vn 0.0000 -1.0000 0.0000
vn -0.7071 -0.7071 -0.0000
vn -0.7071 0.7071 -0.0000
usemtl None.046
s off
f 13/1/1 9/2/1 11/3/1
f 11/3/2 3/4/2 13/1/2
f 13/1/1 14/5/1 9/2/1
s 1
f 1/6/3 2/7/3 3/8/3
f 4/9/4 16/10/4 8/11/4
f 3/12/5 2/13/5 6/14/5
f 6/15/6 10/16/6 7/17/6
f 8/18/1 7/19/1 1/6/1
f 4/20/3 1/6/3 3/8/3
f 5/21/5 3/12/5 6/14/5
f 2/22/6 9/23/6 6/15/6
f 4/24/1 8/18/1 1/6/1
f 5/21/7 6/25/7 7/26/7
f 8/27/7 5/21/7 7/26/7
f 5/28/4 16/10/4 14/29/4
f 7/17/6 12/30/6 1/31/6
f 1/31/6 11/32/6 2/22/6
f 4/9/4 13/33/4 15/34/4
f 5/28/4 13/33/4 3/35/4
f 15/36/8 11/37/7 12/38/8
f 16/39/9 12/40/8 10/41/9
f 10/42/9 14/43/3 16/44/9
f 4/9/4 15/34/4 16/10/4
f 6/15/6 9/23/6 10/16/6
f 2/22/6 11/32/6 9/23/6
f 5/28/4 8/11/4 16/10/4
f 7/17/6 10/16/6 12/30/6
f 1/31/6 12/30/6 11/32/6
f 4/9/4 3/35/4 13/33/4
f 5/28/4 14/29/4 13/33/4
f 15/36/8 13/45/7 11/37/7
f 16/39/9 15/46/8 12/40/8
f 10/42/9 9/47/3 14/43/3
