# Blender v2.78 (sub 0) OBJ File: ''
# www.blender.org
mtllib woodfencecornerz-.mtl
o bedx+.000_bedx+.000
v 0.400000 0.500000 -0.469999
v 0.300000 0.500000 -0.469999
v 0.300000 0.500000 -0.399999
v 0.399999 0.500000 -0.399999
v 0.300000 -0.500000 -0.399999
v 0.300000 -0.500000 -0.469999
v 0.400000 -0.500000 -0.469999
v 0.400000 -0.500000 -0.399999
v -0.300000 0.500000 -0.469999
v -0.400000 0.500000 -0.469999
v -0.400000 0.500000 -0.399999
v -0.300001 0.500000 -0.399999
v -0.400000 -0.500000 -0.399999
v -0.400000 -0.500000 -0.469999
v -0.300000 -0.500000 -0.469999
v -0.300000 -0.500000 -0.399999
v 0.500000 0.400000 -0.499999
v -0.500000 0.400000 -0.499999
v -0.470846 0.400000 -0.470874
v 0.499999 0.400000 -0.469999
v -0.469971 0.400000 -0.469999
v -0.469971 0.303003 -0.469999
v 0.500000 0.300000 -0.499999
v 0.500000 0.300000 -0.469999
v -0.500000 0.300000 -0.499999
v -0.469971 0.300000 -0.469999
v -0.470846 0.300000 -0.470874
v 0.500000 0.100000 -0.499999
v -0.500000 0.100000 -0.499999
v -0.470846 0.100000 -0.470874
v 0.499999 0.100000 -0.469999
v -0.469971 0.100000 -0.469999
v -0.469971 0.003003 -0.469999
v 0.500000 0.000000 -0.499999
v 0.500000 0.000000 -0.469999
v -0.500000 0.000000 -0.499999
v -0.469971 0.000000 -0.469999
v -0.470846 0.000000 -0.470874
v 0.500000 -0.200000 -0.499999
v -0.500000 -0.200000 -0.499999
v -0.470846 -0.200000 -0.470874
v 0.499999 -0.200000 -0.469999
v -0.469971 -0.200000 -0.469999
v -0.469971 -0.296997 -0.469999
v 0.500000 -0.300000 -0.499999
v 0.500000 -0.300000 -0.469999
v -0.500000 -0.300000 -0.499999
v -0.469971 -0.300000 -0.469999
v -0.470846 -0.300000 -0.470874
v -0.469999 0.500000 -0.400000
v -0.469999 0.500000 -0.300000
v -0.399999 0.500000 -0.300000
v -0.399999 0.500000 -0.399999
v -0.399999 -0.500000 -0.300000
v -0.469999 -0.500000 -0.300000
v -0.469999 -0.500000 -0.400000
v -0.399999 -0.500000 -0.400000
v -0.469999 0.500000 0.300000
v -0.469999 0.500000 0.400000
v -0.399999 0.500000 0.400000
v -0.399999 0.500000 0.300001
v -0.399999 -0.500000 0.400000
v -0.469999 -0.500000 0.400000
v -0.469999 -0.500000 0.300000
v -0.399999 -0.500000 0.300000
v -0.499999 0.400000 -0.500000
v -0.499999 0.400000 0.500000
v -0.469999 0.400000 0.500000
v -0.499999 0.300000 0.500000
v -0.499999 0.300000 -0.500000
v -0.469999 0.300000 0.500000
v -0.469999 0.300000 -0.470170
v -0.469999 0.397017 -0.470170
v -0.499999 0.100000 -0.500000
v -0.499999 0.100000 0.500000
v -0.469999 0.100000 0.500000
v -0.499999 -0.000000 0.500000
v -0.499999 0.000000 -0.500000
v -0.469999 -0.000000 0.500000
v -0.469999 0.000000 -0.470170
v -0.469999 0.097017 -0.470170
v -0.499999 -0.200000 -0.500000
v -0.499999 -0.200000 0.500000
v -0.469999 -0.200000 0.500000
v -0.499999 -0.300000 0.500000
v -0.499999 -0.300000 -0.500000
v -0.469999 -0.300000 0.500000
v -0.469999 -0.300000 -0.470170
v -0.469999 -0.202983 -0.470170
v -0.469999 -0.200000 -0.470170
v -0.469999 0.400000 -0.470170
v -0.469999 0.100000 -0.470170
vt 0.0479 0.9091
vt 0.0479 1.0000
vt 0.0000 1.0000
vt 0.3425 0.0000
vt 0.4110 0.0000
vt 0.4110 0.9091
vt 0.8288 0.0000
vt 0.8767 0.0000
vt 0.8767 0.9091
vt 0.0685 0.0000
vt 0.1370 0.0000
vt 0.1370 0.9091
vt 0.7329 0.9091
vt 0.6849 0.9091
vt 0.6849 0.0000
vt 0.0000 0.9091
vt 0.8288 0.9091
vt 0.0685 0.9091
vt 0.7329 0.0000
vt 0.1644 1.0000
vt 0.1164 1.0000
vt 0.1164 0.9091
vt 0.1644 0.9091
vt 0.3425 0.9091
vt 0.1164 0.9091
vt 0.1164 1.0000
vt 0.0685 1.0000
vt 0.1370 0.0000
vt 0.2055 0.0000
vt 0.2055 0.9091
vt 0.7329 0.0000
vt 0.7808 0.0000
vt 0.7808 0.9091
vt 0.0000 0.0000
vt 0.0685 0.0000
vt 0.0685 0.9091
vt 0.8288 0.9091
vt 0.7808 0.9091
vt 0.7808 0.0000
vt 0.0685 0.9091
vt 0.7329 0.9091
vt 0.0000 0.9091
vt 0.8288 0.0000
vt 0.2123 1.0000
vt 0.1644 1.0000
vt 0.1644 0.9091
vt 0.2123 0.9091
vt 0.1370 0.9091
vt 0.9178 0.0000
vt 0.9178 0.9091
vt 0.8979 0.8826
vt 0.4110 0.9091
vt 0.4110 0.0273
vt 0.4774 0.0273
vt 0.6164 0.0000
vt 0.6164 0.9091
vt 0.5479 0.9091
vt 0.2534 1.0000
vt 0.2329 1.0000
vt 0.2329 0.9091
vt 0.8973 0.8818
vt 0.8973 0.0000
vt 0.5479 0.0000
vt 0.2534 0.9091
vt 0.9589 0.8818
vt 0.9384 0.0000
vt 0.9589 0.0000
vt 0.9384 0.0000
vt 0.9384 0.9091
vt 0.9184 0.8826
vt 0.2055 0.9091
vt 0.2055 0.0273
vt 0.2719 0.0273
vt 0.6849 0.0000
vt 0.6849 0.9091
vt 0.6164 0.9091
vt 0.2740 1.0000
vt 0.2534 1.0000
vt 0.2534 0.9091
vt 0.9178 0.8818
vt 0.9178 0.0000
vt 0.6164 0.0000
vt 0.2740 0.9091
vt 0.9795 0.8818
vt 0.9589 0.0000
vt 0.9795 0.0000
vt 0.8973 0.0000
vt 0.8973 0.9091
vt 0.8773 0.8826
vt 0.2740 0.9091
vt 0.2740 0.0273
vt 0.3404 0.0273
vt 0.5479 0.0000
vt 0.5479 0.9091
vt 0.4795 0.9091
vt 0.2329 1.0000
vt 0.2123 1.0000
vt 0.2123 0.9091
vt 0.8767 0.8818
vt 0.8767 0.0000
vt 0.4795 0.0000
vt 0.2329 0.9091
vt 1.0000 0.8818
vt 0.9795 0.0000
vt 1.0000 0.0000
vt 0.9994 0.8826
vt 0.9795 0.9091
vt 0.3425 0.9091
vt 0.9583 0.8826
vt 0.9384 0.9091
vt 0.4795 0.9091
vt 0.9789 0.8826
vt 0.9589 0.9091
vt 0.2740 0.9091
vt 0.0479 0.9091
vt 0.0479 1.0000
vt 0.0000 1.0000
vt 0.3425 0.0000
vt 0.4110 0.0000
vt 0.4110 0.9091
vt 0.8288 0.0000
vt 0.8767 0.0000
vt 0.8767 0.9091
vt 0.0685 0.0000
vt 0.1370 0.0000
vt 0.1370 0.9091
vt 0.7329 0.9091
vt 0.6849 0.9091
vt 0.6849 0.0000
vt 0.0000 0.9091
vt 0.8288 0.9091
vt 0.0685 0.9091
vt 0.7329 0.0000
vt 0.1644 1.0000
vt 0.1164 1.0000
vt 0.1164 0.9091
vt 0.1644 0.9091
vt 0.3425 0.9091
vt 0.1164 0.9091
vt 0.1164 1.0000
vt 0.0685 1.0000
vt 0.1370 0.0000
vt 0.2055 0.0000
vt 0.2055 0.9091
vt 0.7329 0.0000
vt 0.7808 0.0000
vt 0.7808 0.9091
vt 0.0000 0.0000
vt 0.0685 0.0000
vt 0.0685 0.9091
vt 0.8288 0.9091
vt 0.7808 0.9091
vt 0.7808 0.0000
vt 0.0685 0.9091
vt 0.7329 0.9091
vt 0.0000 0.9091
vt 0.8288 0.0000
vt 0.2123 1.0000
vt 0.1644 1.0000
vt 0.1644 0.9091
vt 0.2123 0.9091
vt 0.1370 0.9091
vt 0.9178 0.0000
vt 0.9178 0.9091
vt 0.8973 0.9091
vt 0.0479 0.9091
vt 0.0685 0.9091
vt 0.0685 1.0000
vt 0.6164 0.0000
vt 0.6164 0.9091
vt 0.5479 0.9091
vt 0.0479 1.0000
vt 0.5479 0.0000
vt 0.9589 0.9091
vt 0.9384 0.9091
vt 0.9384 0.0000
vt 0.4795 0.0000
vt 0.4795 0.8820
vt 0.4130 0.8820
vt 0.9384 0.0000
vt 0.9384 0.9091
vt 0.9178 0.9091
vt 0.2740 0.9091
vt 0.2945 0.9091
vt 0.2945 1.0000
vt 0.6849 0.0000
vt 0.6849 0.9091
vt 0.6164 0.9091
vt 0.2740 1.0000
vt 0.6164 0.0000
vt 0.9795 0.9091
vt 0.9589 0.9091
vt 0.9589 0.0000
vt 0.2740 0.0000
vt 0.2740 0.8820
vt 0.2075 0.8820
vt 0.8973 0.0000
vt 0.8973 0.9091
vt 0.8767 0.9091
vt 0.2945 0.9091
vt 0.3151 0.9091
vt 0.3151 1.0000
vt 0.5479 0.0000
vt 0.5479 0.9091
vt 0.4795 0.9091
vt 0.2945 1.0000
vt 0.4795 0.0000
vt 1.0000 0.9091
vt 0.9795 0.9091
vt 0.9795 0.0000
vt 0.3425 0.0000
vt 0.3425 0.8820
vt 0.2760 0.8820
vt 0.8767 0.0271
vt 0.9589 0.0271
vt 0.9795 0.0271
vt 1.0000 0.0271
vt 0.4110 0.0000
vt 0.8973 0.0271
vt 0.2055 0.0000
vt 0.9178 0.0271
vt 0.2740 0.0000
vt 0.3425 0.0273
vt 0.4795 0.0273
vt 0.2740 0.0273
vt 0.4110 0.8820
vt 0.2055 0.8820
vt 0.2740 0.8820
vn 0.0000 1.0000 0.0000
vn 0.0000 -0.0000 1.0000
vn -1.0000 -0.0000 0.0000
vn 0.0000 0.0000 -1.0000
vn 1.0000 0.0000 0.0000
vn 0.0000 -1.0000 0.0000
usemtl None.033
s 1
f 1/1/1 2/2/1 3/3/1
f 4/4/2 3/5/2 5/6/2
f 3/7/3 2/8/3 6/9/3
f 2/10/4 1/11/4 7/12/4
f 8/13/5 7/14/5 1/15/5
f 4/16/1 1/1/1 3/3/1
f 5/17/3 3/7/3 6/9/3
f 6/18/4 2/10/4 7/12/4
f 4/19/5 8/13/5 1/15/5
f 5/20/6 6/21/6 7/22/6
f 8/23/6 5/20/6 7/22/6
f 5/6/2 8/24/2 4/4/2
f 9/25/1 10/26/1 11/27/1
f 12/28/2 11/29/2 13/30/2
f 11/31/3 10/32/3 14/33/3
f 10/34/4 9/35/4 15/36/4
f 16/37/5 15/38/5 9/39/5
f 12/40/1 9/25/1 11/27/1
f 13/41/3 11/31/3 14/33/3
f 14/42/4 10/34/4 15/36/4
f 12/43/5 16/37/5 9/39/5
f 13/44/6 14/45/6 15/46/6
f 16/47/6 13/44/6 15/46/6
f 13/30/2 16/48/2 12/28/2
f 17/49/1 18/50/1 19/51/1
f 20/52/2 21/53/2 22/54/2
f 18/55/4 17/56/4 23/57/4
f 24/58/5 23/59/5 17/60/5
f 17/49/1 21/61/1 20/62/1
f 25/63/4 18/55/4 23/57/4
f 20/64/5 24/58/5 17/60/5
f 26/65/6 23/66/6 24/67/6
f 28/68/1 29/69/1 30/70/1
f 31/71/2 32/72/2 33/73/2
f 29/74/4 28/75/4 34/76/4
f 35/77/5 34/78/5 28/79/5
f 28/68/1 32/80/1 31/81/1
f 36/82/4 29/74/4 34/76/4
f 31/83/5 35/77/5 28/79/5
f 37/84/6 34/85/6 35/86/6
f 39/87/1 40/88/1 41/89/1
f 42/90/2 43/91/2 44/92/2
f 40/93/4 39/94/4 45/95/4
f 46/96/5 45/97/5 39/98/5
f 39/87/1 43/99/1 42/100/1
f 47/101/4 40/93/4 45/95/4
f 42/102/5 46/96/5 39/98/5
f 48/103/6 45/104/6 46/105/6
f 49/106/6 47/107/6 45/104/6
f 44/92/2 46/108/2 42/90/2
f 27/109/6 25/110/6 23/66/6
f 22/54/2 24/111/2 20/52/2
f 38/112/6 36/113/6 34/85/6
f 33/73/2 35/114/2 31/71/2
f 50/115/1 51/116/1 52/117/1
f 53/118/5 52/119/5 54/120/5
f 52/121/2 51/122/2 55/123/2
f 51/124/3 50/125/3 56/126/3
f 57/127/4 56/128/4 50/129/4
f 53/130/1 50/115/1 52/117/1
f 54/131/2 52/121/2 55/123/2
f 55/132/3 51/124/3 56/126/3
f 53/133/4 57/127/4 50/129/4
f 54/134/6 55/135/6 56/136/6
f 57/137/6 54/134/6 56/136/6
f 54/120/5 57/138/5 53/118/5
f 58/139/1 59/140/1 60/141/1
f 61/142/5 60/143/5 62/144/5
f 60/145/2 59/146/2 63/147/2
f 59/148/3 58/149/3 64/150/3
f 65/151/4 64/152/4 58/153/4
f 61/154/1 58/139/1 60/141/1
f 62/155/2 60/145/2 63/147/2
f 63/156/3 59/148/3 64/150/3
f 61/157/4 65/151/4 58/153/4
f 62/158/6 63/159/6 64/160/6
f 65/161/6 62/158/6 64/160/6
f 62/144/5 65/162/5 61/142/5
f 66/163/1 67/164/1 68/165/1
f 68/166/2 67/167/2 69/168/2
f 67/169/3 66/170/3 70/171/3
f 71/172/2 68/166/2 69/168/2
f 69/173/3 67/169/3 70/171/3
f 71/174/6 69/175/6 70/176/6
f 71/177/5 72/178/5 73/179/5
f 74/180/1 75/181/1 76/182/1
f 76/183/2 75/184/2 77/185/2
f 75/186/3 74/187/3 78/188/3
f 79/189/2 76/183/2 77/185/2
f 77/190/3 75/186/3 78/188/3
f 79/191/6 77/192/6 78/193/6
f 79/194/5 80/195/5 81/196/5
f 82/197/1 83/198/1 84/199/1
f 84/200/2 83/201/2 85/202/2
f 83/203/3 82/204/3 86/205/3
f 87/206/2 84/200/2 85/202/2
f 85/207/3 83/203/3 86/205/3
f 87/208/6 85/209/6 86/210/6
f 87/211/5 88/212/5 89/213/5
f 90/214/1 82/197/1 84/199/1
f 70/176/6 72/215/6 71/174/6
f 78/193/6 80/216/6 79/191/6
f 86/210/6 88/217/6 87/208/6
f 73/179/5 68/218/5 71/177/5
f 91/219/1 66/163/1 68/165/1
f 81/196/5 76/220/5 79/194/5
f 92/221/1 74/180/1 76/182/1
f 89/213/5 84/222/5 87/211/5
f 17/49/1 19/51/1 21/61/1
f 26/65/6 27/109/6 23/66/6
f 28/68/1 30/70/1 32/80/1
f 37/84/6 38/112/6 34/85/6
f 39/87/1 41/89/1 43/99/1
f 48/103/6 49/106/6 45/104/6
f 44/92/2 48/223/2 46/108/2
f 22/54/2 26/224/2 24/111/2
f 33/73/2 37/225/2 35/114/2
f 73/179/5 91/226/5 68/218/5
f 81/196/5 92/227/5 76/220/5
f 89/213/5 90/228/5 84/222/5
