# Blender v2.78 (sub 0) OBJ File: ''
# www.blender.org
mtllib woodsupportz-.mtl
o bedx+
v 0.400000 0.500000 -0.499999
v 0.300000 0.500000 -0.499999
v 0.300000 0.430000 -0.429999
v 0.399999 0.430000 -0.429999
v 0.300000 -0.500000 -0.429999
v 0.300000 -0.500000 -0.499999
v 0.400000 -0.500000 -0.499999
v 0.400000 -0.500000 -0.429999
v -0.300000 0.500000 -0.499999
v -0.400000 0.500000 -0.499999
v -0.400000 0.430000 -0.429999
v -0.300001 0.430000 -0.429999
v -0.400000 -0.500000 -0.429999
v -0.400000 -0.500000 -0.499999
v -0.300000 -0.500000 -0.499999
v -0.300000 -0.500000 -0.429999
v -0.300000 0.500042 0.499812
v -0.300000 0.430042 0.499812
v -0.400000 0.430042 0.499812
v -0.400000 0.500042 0.499812
v -0.300001 0.500042 -0.500188
v -0.400000 0.500042 -0.500188
v -0.400000 0.430042 -0.430188
v -0.300000 0.430042 -0.430188
v 0.400000 0.500042 0.499812
v 0.400000 0.430042 0.499812
v 0.300000 0.430042 0.499812
v 0.300000 0.500042 0.499812
v 0.399999 0.500042 -0.500188
v 0.300000 0.500042 -0.500188
v 0.300000 0.430042 -0.430188
v 0.400000 0.430042 -0.430188
v -0.310000 0.482124 0.326084
v -0.310000 0.439038 0.381252
v -0.390000 0.439038 0.381252
v -0.390000 0.482124 0.326084
v -0.310001 -0.294402 -0.485667
v -0.390000 -0.294402 -0.485667
v -0.390000 -0.345485 -0.439035
v -0.310000 -0.345485 -0.439035
v 0.390000 0.482124 0.326084
v 0.390000 0.439038 0.381252
v 0.310000 0.439038 0.381252
v 0.310000 0.482124 0.326084
v 0.389999 -0.294402 -0.485667
v 0.310000 -0.294402 -0.485667
v 0.310000 -0.345485 -0.439035
v 0.390000 -0.345485 -0.439035
v 0.351234 0.346288 0.208634
v 0.360324 0.321107 0.231022
v 0.360324 0.370871 0.283056
v 0.351234 0.396052 0.260667
v -0.360516 0.346102 0.208813
v -0.360516 0.395866 0.260846
v -0.361954 0.370763 0.283160
v -0.361954 0.320998 0.231126
v 0.351234 -0.146020 -0.307712
v 0.360324 -0.171201 -0.285323
v 0.360324 -0.121436 -0.233290
v 0.351234 -0.096255 -0.255678
v -0.360516 -0.146205 -0.307533
v -0.360516 -0.096442 -0.255500
v -0.361954 -0.121545 -0.233186
v -0.361954 -0.171309 -0.285220
v 0.351234 0.488172 0.151138
v 0.360324 0.442852 0.151275
v 0.360324 0.442918 0.245902
v 0.351234 0.488238 0.246098
v -0.360516 0.487914 0.151139
v -0.360516 0.487980 0.246098
v -0.361954 0.442768 0.245902
v -0.361954 0.442702 0.151275
v 0.351234 0.488172 -0.248862
v 0.360324 0.442852 -0.248725
v 0.360324 0.442918 -0.154098
v 0.351234 0.488238 -0.153902
v -0.360516 0.487914 -0.248861
v -0.360516 0.487980 -0.153902
v -0.361954 0.442768 -0.154098
v -0.361954 0.442702 -0.248725
v 0.351234 0.187073 -0.486353
v 0.360324 0.187210 -0.441033
v 0.360324 0.281837 -0.441099
v 0.351234 0.282033 -0.486419
v -0.360516 0.187074 -0.486095
v -0.360516 0.282033 -0.486161
v -0.361954 0.281837 -0.440949
v -0.361954 0.187210 -0.440883
v 0.351234 -0.212927 -0.486353
v 0.360324 -0.212790 -0.441033
v 0.360324 -0.118163 -0.441099
v 0.351234 -0.117967 -0.486419
v -0.360517 -0.212926 -0.486095
v -0.360516 -0.117967 -0.486161
v -0.361954 -0.118163 -0.440949
v -0.361954 -0.212790 -0.440883
vt 0.5471 0.0009
vt 0.5846 0.0000
vt 0.5846 0.6111
vt 0.4342 0.5007
vt 0.3799 0.5007
vt 0.3799 0.0000
vt 0.6226 0.0377
vt 0.6606 0.0000
vt 0.6606 0.5384
vt 0.2171 0.5384
vt 0.1628 0.5384
vt 0.1628 0.0000
vt 0.6986 0.5384
vt 0.6606 0.5384
vt 0.6606 0.0000
vt 0.9320 0.4366
vt 0.9754 0.4366
vt 0.9754 0.8731
vt 0.6226 0.5384
vt 0.2171 0.0000
vt 0.6986 0.0377
vt 0.5231 0.7188
vt 0.5611 0.7188
vt 0.5611 0.7726
vt 0.5231 0.7726
vt 0.4342 0.0000
vt 0.4719 0.6103
vt 0.4718 0.0054
vt 0.5094 0.6111
vt 0.2171 0.0000
vt 0.2714 0.0000
vt 0.2714 0.5007
vt 0.5846 0.0377
vt 0.6226 0.0000
vt 0.6226 0.5384
vt 0.1628 0.5384
vt 0.1086 0.5384
vt 0.1086 0.0000
vt 0.7366 0.5384
vt 0.6986 0.5384
vt 0.6986 0.0000
vt 0.9320 0.4420
vt 0.9320 0.8841
vt 0.8886 0.4420
vt 0.5846 0.5384
vt 0.1628 0.0000
vt 0.7366 0.0377
vt 0.5611 0.6650
vt 0.5231 0.6650
vt 0.5231 0.6111
vt 0.5611 0.6111
vt 0.2171 0.5007
vt 0.5231 0.8265
vt 0.5231 0.7726
vt 0.5611 0.8265
vt 0.8126 0.0000
vt 0.8506 0.0000
vt 0.8506 0.5007
vt 0.8886 0.0000
vt 0.8886 0.5384
vt 0.8506 0.0000
vt 0.3257 0.0000
vt 0.3257 0.5007
vt 0.2714 0.0000
vt 0.8126 0.5384
vt 0.0543 0.5384
vt 0.0000 0.5384
vt 0.0000 0.0000
vt 0.2714 0.5007
vt 0.5470 0.6057
vt 0.5611 0.7726
vt 0.5094 0.0000
vt 0.0543 0.0000
vt 0.8506 0.5007
vt 0.3257 0.5007
vt 0.3257 0.0000
vt 0.3799 0.5007
vt 0.3799 0.0000
vt 0.8886 0.8841
vt 0.7746 0.0000
vt 0.7746 0.5384
vt 0.7366 0.0377
vt 0.5231 0.7188
vt 0.5231 0.6650
vt 0.5611 0.7188
vt 0.5611 0.6650
vt 0.7366 0.5384
vt 0.8126 0.0000
vt 0.8126 0.5384
vt 0.7746 0.0000
vt 0.1086 0.5384
vt 0.0543 0.5384
vt 0.0543 0.0000
vt 0.9320 0.8731
vt 0.1086 0.0000
vt 0.7746 0.5007
vt 0.9320 0.0000
vt 0.9320 0.4420
vt 0.8886 0.0000
vt 0.8886 0.4420
vt 0.4343 0.6103
vt 0.4342 0.0054
vt 0.4718 0.6111
vt 0.4718 0.0000
vt 0.5094 0.6057
vt 0.5095 0.0009
vt 0.5470 0.6111
vt 0.9754 0.4365
vt 0.9320 0.4366
vt 0.9320 0.0000
vt 0.9754 0.0000
vt 0.5470 0.0000
vt 0.4719 0.6119
vt 0.4855 0.6111
vt 0.4855 1.0000
vt 0.6324 0.5384
vt 0.6606 0.5384
vt 0.6606 0.9216
vt 0.7135 0.9265
vt 0.7135 0.5433
vt 0.7271 0.9273
vt 0.5846 0.9273
vt 0.5846 0.5384
vt 0.6129 0.9273
vt 0.4718 0.9951
vt 0.7271 0.5384
vt 0.6129 0.5384
vt 0.6324 0.9216
vt 0.5095 0.6119
vt 0.5231 0.6111
vt 0.5231 1.0000
vt 0.7366 0.5384
vt 0.7648 0.5384
vt 0.7648 0.9216
vt 0.6187 0.9265
vt 0.6187 0.5433
vt 0.6324 0.9273
vt 0.6606 0.9273
vt 0.6606 0.5384
vt 0.6889 0.9273
vt 0.5094 0.9951
vt 0.6324 0.5384
vt 0.6889 0.5384
vt 0.7366 0.9216
vt 0.8238 0.5392
vt 0.8484 0.5384
vt 0.8484 0.9273
vt 0.1058 0.9216
vt 0.0543 0.9216
vt 0.0543 0.5384
vt 0.9755 0.7770
vt 0.9754 0.3938
vt 1.0000 0.7778
vt 0.3227 0.5007
vt 0.3227 0.8896
vt 0.2714 0.5007
vt 0.8238 0.9224
vt 1.0000 0.3889
vt 0.2714 0.8896
vt 0.1058 0.5384
vt 0.7992 0.5392
vt 0.8238 0.5384
vt 0.8238 0.9273
vt 0.1628 0.9216
vt 0.1113 0.9216
vt 0.1113 0.5384
vt 0.4343 0.9992
vt 0.4342 0.6160
vt 0.4588 1.0000
vt 0.2685 0.5007
vt 0.2685 0.8896
vt 0.2171 0.5007
vt 0.7992 0.9224
vt 0.4588 0.6111
vt 0.2171 0.8896
vt 0.1628 0.5384
vt 0.6889 0.5392
vt 0.7135 0.5384
vt 0.7135 0.9273
vt 0.0000 0.5384
vt 0.0515 0.5384
vt 0.0515 0.9216
vt 0.9755 0.3881
vt 0.9754 0.0049
vt 1.0000 0.3889
vt 0.3257 0.8896
vt 0.3257 0.5007
vt 0.3770 0.8896
vt 0.6889 0.9224
vt 1.0000 0.0000
vt 0.3770 0.5007
vt 0.0000 0.9216
vt 0.7746 0.5392
vt 0.7992 0.5384
vt 0.7992 0.9273
vt 0.1628 0.5384
vt 0.2144 0.5384
vt 0.2144 0.9216
vt 0.8506 0.9265
vt 0.8506 0.5433
vt 0.8752 0.9273
vt 0.3770 0.8896
vt 0.3770 0.5007
vt 0.4284 0.8896
vt 0.7746 0.9224
vt 0.8752 0.5384
vt 0.4284 0.5007
vt 0.1628 0.9216
vn -1.0000 0.0000 0.0000
vn 0.0000 0.0000 1.0000
vn 0.0000 0.0000 -1.0000
vn 1.0000 -0.0000 0.0000
vn -0.0000 0.7226 -0.6913
vn 0.0000 -1.0000 0.0000
vn 0.0000 -0.7227 0.6912
vn -0.0000 1.0000 0.0000
vn 0.0000 0.6644 0.7474
vn 0.0000 0.6645 0.7473
vn -0.0004 0.7227 -0.6912
vn -0.0000 -0.6643 -0.7474
vn -0.0000 -0.6645 -0.7473
vn 0.0002 -0.7227 0.6912
vn -0.0000 -0.6644 -0.7474
vn 0.0000 -0.0043 1.0000
vn -0.0004 1.0000 -0.0007
vn -0.0000 -0.0030 -1.0000
vn 0.0002 -1.0000 0.0007
vn 0.0000 1.0000 0.0043
vn -0.0004 -0.0007 -1.0000
vn -0.0000 -1.0000 0.0030
vn 0.0002 0.0007 1.0000
usemtl None
s 1
f 38/1/1 39/2/1 35/3/1
f 4/4/2 3/5/2 5/6/2
f 3/7/1 2/8/1 6/9/1
f 2/10/3 1/11/3 7/12/3
f 8/13/4 7/14/4 1/15/4
f 37/16/5 38/17/5 36/18/5
f 5/19/1 3/7/1 6/9/1
f 6/20/3 2/10/3 7/12/3
f 4/21/4 8/13/4 1/15/4
f 5/22/6 6/23/6 7/24/6
f 8/25/6 5/22/6 7/24/6
f 5/6/2 8/26/2 4/4/2
f 37/27/4 33/28/4 40/29/4
f 12/30/2 11/31/2 13/32/2
f 11/33/1 10/34/1 14/35/1
f 10/36/3 9/37/3 15/38/3
f 16/39/4 15/40/4 9/41/4
f 35/42/7 39/43/7 34/44/7
f 13/45/1 11/33/1 14/35/1
f 14/46/3 10/36/3 15/38/3
f 12/47/4 16/39/4 9/41/4
f 13/48/6 14/49/6 15/50/6
f 16/51/6 13/48/6 15/50/6
f 13/32/2 16/52/2 12/30/2
f 17/53/2 20/54/2 18/55/2
f 17/56/4 18/57/4 24/58/4
f 20/59/1 22/60/1 19/61/1
f 19/62/6 23/63/6 18/64/6
f 21/65/4 17/56/4 24/58/4
f 20/66/8 17/67/8 21/68/8
f 23/63/6 24/69/6 18/64/6
f 36/70/1 38/1/1 35/3/1
f 20/54/2 19/71/2 18/55/2
f 33/28/4 34/72/4 40/29/4
f 21/68/8 22/73/8 20/66/8
f 22/60/1 23/74/1 19/61/1
f 27/75/6 31/76/6 26/77/6
f 31/76/6 32/78/6 26/77/6
f 39/43/7 40/79/7 34/44/7
f 29/80/4 25/81/4 32/82/4
f 25/83/2 28/84/2 26/85/2
f 28/84/2 27/86/2 26/85/2
f 25/81/4 26/87/4 32/82/4
f 28/88/1 30/89/1 27/90/1
f 28/91/8 25/92/8 29/93/8
f 36/18/5 33/94/5 37/16/5
f 29/93/8 30/95/8 28/91/8
f 30/89/1 31/96/1 27/90/1
f 43/97/7 47/98/7 42/99/7
f 47/98/7 48/100/7 42/99/7
f 45/101/4 41/102/4 48/103/4
f 41/102/4 42/104/4 48/103/4
f 44/105/1 46/106/1 43/107/1
f 44/108/5 41/109/5 45/110/5
f 45/110/5 46/111/5 44/108/5
f 46/106/1 47/112/1 43/107/1
f 54/113/9 55/114/9 51/115/10
f 53/116/11 54/117/11 52/118/11
f 53/119/12 49/120/13 56/121/12
f 51/122/14 55/123/14 50/124/14
f 52/125/10 54/113/9 51/115/10
f 49/120/13 50/126/13 56/121/12
f 55/123/14 56/127/14 50/124/14
f 52/118/11 49/128/11 53/116/11
f 62/129/9 63/130/9 59/131/10
f 61/132/11 62/133/11 60/134/11
f 61/135/12 57/136/13 64/137/15
f 59/138/14 63/139/14 58/140/14
f 60/141/10 62/129/9 59/131/10
f 57/136/13 58/142/13 64/137/15
f 63/139/14 64/143/14 58/140/14
f 60/134/11 57/144/11 61/132/11
f 70/145/16 71/146/16 67/147/16
f 69/148/17 70/149/17 68/150/17
f 69/151/18 65/152/18 72/153/18
f 67/154/19 71/155/19 66/156/19
f 68/157/16 70/145/16 67/147/16
f 65/152/18 66/158/18 72/153/18
f 71/155/19 72/159/19 66/156/19
f 68/150/17 65/160/17 69/148/17
f 78/161/16 79/162/16 75/163/16
f 77/164/17 78/165/17 76/166/17
f 77/167/18 73/168/18 80/169/18
f 75/170/19 79/171/19 74/172/19
f 76/173/16 78/161/16 75/163/16
f 73/168/18 74/174/18 80/169/18
f 79/171/19 80/175/19 74/172/19
f 76/166/17 73/176/17 77/164/17
f 86/177/20 87/178/20 83/179/20
f 85/180/21 86/181/21 84/182/21
f 85/183/22 81/184/22 88/185/22
f 83/186/23 87/187/23 82/188/23
f 84/189/20 86/177/20 83/179/20
f 81/184/22 82/190/22 88/185/22
f 87/187/23 88/191/23 82/188/23
f 84/182/21 81/192/21 85/180/21
f 94/193/20 95/194/20 91/195/20
f 93/196/21 94/197/21 92/198/21
f 93/199/22 89/200/22 96/201/22
f 91/202/23 95/203/23 90/204/23
f 92/205/20 94/193/20 91/195/20
f 89/200/22 90/206/22 96/201/22
f 95/203/23 96/207/23 90/204/23
f 92/198/21 89/208/21 93/196/21
