# Blender v2.78 (sub 0) OBJ File: ''
# www.blender.org
mtllib woodfencez+.mtl
o bedx+.018
v -0.400000 0.500000 0.469999
v -0.300000 0.500000 0.469999
v -0.300000 0.500000 0.399999
v -0.399999 0.500000 0.399999
v -0.300000 -0.500000 0.399999
v -0.300000 -0.500000 0.469999
v -0.400000 -0.500000 0.469999
v -0.400000 -0.500000 0.399999
v 0.300000 0.500000 0.469999
v 0.400000 0.500000 0.469999
v 0.400000 0.500000 0.399999
v 0.300001 0.500000 0.399999
v 0.400000 -0.500000 0.399999
v 0.400000 -0.500000 0.469999
v 0.300000 -0.500000 0.469999
v 0.300000 -0.500000 0.399999
v -0.500000 0.400000 0.499999
v 0.500000 0.400000 0.499999
v 0.500000 0.400000 0.469999
v -0.499999 0.400000 0.469999
v 0.500000 0.300000 0.469999
v 0.500000 0.300000 0.499999
v -0.500000 0.300000 0.499999
v -0.500000 0.300000 0.469999
v -0.500000 0.100000 0.499999
v 0.500000 0.100000 0.499999
v 0.500000 0.100000 0.469999
v -0.499999 0.100000 0.469999
v 0.500000 0.000000 0.469999
v 0.500000 0.000000 0.499999
v -0.500000 -0.000000 0.499999
v -0.500000 -0.000000 0.469999
v -0.500000 -0.200000 0.499999
v 0.500000 -0.200000 0.499999
v 0.500000 -0.200000 0.469999
v -0.499999 -0.200000 0.469999
v 0.500000 -0.300000 0.469999
v 0.500000 -0.300000 0.499999
v -0.500000 -0.300000 0.499999
v -0.500000 -0.300000 0.469999
vt 0.0479 0.9091
vt 0.0479 1.0000
vt 0.0000 1.0000
vt 0.3425 0.0000
vt 0.4110 0.0000
vt 0.4110 0.9091
vt 0.8288 0.0000
vt 0.8767 0.0000
vt 0.8767 0.9091
vt 0.0685 0.0000
vt 0.1370 0.0000
vt 0.1370 0.9091
vt 0.7329 0.9091
vt 0.6849 0.9091
vt 0.6849 0.0000
vt 0.0000 0.9091
vt 0.8288 0.9091
vt 0.0685 0.9091
vt 0.7329 0.0000
vt 0.1644 1.0000
vt 0.1164 1.0000
vt 0.1164 0.9091
vt 0.1644 0.9091
vt 0.3425 0.9091
vt 0.1164 0.9091
vt 0.1164 1.0000
vt 0.0685 1.0000
vt 0.1370 0.0000
vt 0.2055 0.0000
vt 0.2055 0.9091
vt 0.7329 0.0000
vt 0.7808 0.0000
vt 0.7808 0.9091
vt 0.0000 0.0000
vt 0.0685 0.0000
vt 0.0685 0.9091
vt 0.8288 0.9091
vt 0.7808 0.9091
vt 0.7808 0.0000
vt 0.0685 0.9091
vt 0.7329 0.9091
vt 0.0000 0.9091
vt 0.8288 0.0000
vt 0.2123 1.0000
vt 0.1644 1.0000
vt 0.1644 0.9091
vt 0.2123 0.9091
vt 0.1370 0.9091
vt 0.9178 0.0000
vt 0.9178 0.9091
vt 0.8973 0.9091
vt 0.4110 0.9091
vt 0.4110 0.0000
vt 0.4795 0.0000
vt 0.0479 0.9091
vt 0.0685 0.9091
vt 0.0685 1.0000
vt 0.6164 0.0000
vt 0.6164 0.9091
vt 0.5479 0.9091
vt 0.2534 1.0000
vt 0.2329 1.0000
vt 0.2329 0.9091
vt 0.8973 0.0000
vt 0.0479 1.0000
vt 0.5479 0.0000
vt 0.2534 0.9091
vt 0.9589 0.9091
vt 0.9384 0.9091
vt 0.9384 0.0000
vt 0.9589 0.0000
vt 0.4795 0.9091
vt 0.9384 0.0000
vt 0.9384 0.9091
vt 0.9178 0.9091
vt 0.2055 0.9091
vt 0.2055 0.0000
vt 0.2740 0.0000
vt 0.2740 0.9091
vt 0.2945 0.9091
vt 0.2945 1.0000
vt 0.6849 0.0000
vt 0.6849 0.9091
vt 0.6164 0.9091
vt 0.2740 1.0000
vt 0.2534 1.0000
vt 0.2534 0.9091
vt 0.9178 0.0000
vt 0.2740 1.0000
vt 0.6164 0.0000
vt 0.2740 0.9091
vt 0.9795 0.9091
vt 0.9589 0.9091
vt 0.9589 0.0000
vt 0.9795 0.0000
vt 0.2740 0.9091
vt 0.8973 0.0000
vt 0.8973 0.9091
vt 0.8767 0.9091
vt 0.2740 0.9091
vt 0.2740 0.0000
vt 0.3425 0.0000
vt 0.2945 0.9091
vt 0.3151 0.9091
vt 0.3151 1.0000
vt 0.5479 0.0000
vt 0.5479 0.9091
vt 0.4795 0.9091
vt 0.2329 1.0000
vt 0.2123 1.0000
vt 0.2123 0.9091
vt 0.8767 0.0000
vt 0.2945 1.0000
vt 0.4795 0.0000
vt 0.2329 0.9091
vt 1.0000 0.9091
vt 0.9795 0.9091
vt 0.9795 0.0000
vt 1.0000 0.0000
vt 0.3425 0.9091
vn 0.0000 1.0000 0.0000
vn 0.0000 0.0000 -1.0000
vn 1.0000 0.0000 0.0000
vn 0.0000 0.0000 1.0000
vn -1.0000 -0.0000 -0.0000
vn 0.0000 -1.0000 0.0000
usemtl None.018
s 1
f 1/1/1 2/2/1 3/3/1
f 4/4/2 3/5/2 5/6/2
f 3/7/3 2/8/3 6/9/3
f 2/10/4 1/11/4 7/12/4
f 8/13/5 7/14/5 1/15/5
f 4/16/1 1/1/1 3/3/1
f 5/17/3 3/7/3 6/9/3
f 6/18/4 2/10/4 7/12/4
f 4/19/5 8/13/5 1/15/5
f 5/20/6 6/21/6 7/22/6
f 8/23/6 5/20/6 7/22/6
f 5/6/2 8/24/2 4/4/2
f 9/25/1 10/26/1 11/27/1
f 12/28/2 11/29/2 13/30/2
f 11/31/3 10/32/3 14/33/3
f 10/34/4 9/35/4 15/36/4
f 16/37/5 15/38/5 9/39/5
f 12/40/1 9/25/1 11/27/1
f 13/41/3 11/31/3 14/33/3
f 14/42/4 10/34/4 15/36/4
f 12/43/5 16/37/5 9/39/5
f 13/44/6 14/45/6 15/46/6
f 16/47/6 13/44/6 15/46/6
f 13/30/2 16/48/2 12/28/2
f 17/49/1 18/50/1 19/51/1
f 20/52/2 19/53/2 21/54/2
f 19/55/3 18/56/3 22/57/3
f 18/58/4 17/59/4 23/60/4
f 24/61/5 23/62/5 17/63/5
f 20/64/1 17/49/1 19/51/1
f 21/65/3 19/55/3 22/57/3
f 22/66/4 18/58/4 23/60/4
f 20/67/5 24/61/5 17/63/5
f 21/68/6 22/69/6 23/70/6
f 24/71/6 21/68/6 23/70/6
f 21/54/2 24/72/2 20/52/2
f 25/73/1 26/74/1 27/75/1
f 28/76/2 27/77/2 29/78/2
f 27/79/3 26/80/3 30/81/3
f 26/82/4 25/83/4 31/84/4
f 32/85/5 31/86/5 25/87/5
f 28/88/1 25/73/1 27/75/1
f 29/89/3 27/79/3 30/81/3
f 30/90/4 26/82/4 31/84/4
f 28/91/5 32/85/5 25/87/5
f 29/92/6 30/93/6 31/94/6
f 32/95/6 29/92/6 31/94/6
f 29/78/2 32/96/2 28/76/2
f 33/97/1 34/98/1 35/99/1
f 36/100/2 35/101/2 37/102/2
f 35/103/3 34/104/3 38/105/3
f 34/106/4 33/107/4 39/108/4
f 40/109/5 39/110/5 33/111/5
f 36/112/1 33/97/1 35/99/1
f 37/113/3 35/103/3 38/105/3
f 38/114/4 34/106/4 39/108/4
f 36/115/5 40/109/5 33/111/5
f 37/116/6 38/117/6 39/118/6
f 40/119/6 37/116/6 39/118/6
f 37/102/2 40/120/2 36/100/2
