# Blender v2.78 (sub 0) OBJ File: ''
# www.blender.org
mtllib woodsupportcube.mtl
o bedx+
v -0.500000 -0.500000 -0.499999
v -0.400000 -0.500000 -0.499999
v -0.400000 -0.430000 -0.429999
v -0.499999 -0.430000 -0.429999
v -0.400000 0.430000 -0.429999
v -0.400000 0.500000 -0.499999
v -0.500000 0.500000 -0.499999
v -0.500000 0.430000 -0.429999
v 0.400000 -0.500000 -0.499999
v 0.500000 -0.500000 -0.499999
v 0.500000 -0.430000 -0.429999
v 0.400001 -0.430000 -0.429999
v 0.500000 0.430000 -0.429999
v 0.500000 0.500000 -0.499999
v 0.400000 0.500000 -0.499999
v 0.400000 0.430000 -0.429999
v 0.400000 -0.500042 0.499812
v 0.400000 -0.430042 0.429812
v 0.500000 -0.430042 0.429812
v 0.500000 -0.500042 0.499812
v 0.400001 -0.500042 -0.500188
v 0.500000 -0.500042 -0.500188
v 0.500000 -0.430042 -0.430188
v 0.400000 -0.430042 -0.430188
v -0.500000 -0.500042 0.499812
v -0.500000 -0.430042 0.429812
v -0.400000 -0.430042 0.429812
v -0.400000 -0.500042 0.499812
v -0.499999 -0.500042 -0.500189
v -0.400000 -0.500042 -0.500188
v -0.400000 -0.430042 -0.430188
v -0.500000 -0.430042 -0.430188
v -0.500000 0.429784 0.430021
v -0.400000 0.429784 0.430021
v -0.400000 0.499784 0.500021
v -0.499999 0.499784 0.500021
v -0.400000 0.499784 -0.499979
v -0.400000 0.429784 -0.429979
v -0.500000 0.429784 -0.429979
v -0.500000 0.499784 -0.499979
v 0.400000 0.429784 0.430021
v 0.500000 0.429784 0.430021
v 0.500000 0.499784 0.500021
v 0.400001 0.499784 0.500021
v 0.500000 0.499783 -0.499979
v 0.500000 0.429784 -0.429979
v 0.400000 0.429784 -0.429979
v 0.400000 0.499783 -0.499979
v 0.400000 -0.430258 0.429832
v 0.400000 -0.500258 0.499832
v 0.500000 -0.500258 0.499832
v 0.500000 -0.430258 0.429832
v 0.400001 0.429742 0.429832
v 0.500000 0.429742 0.429832
v 0.500000 0.499742 0.499832
v 0.400000 0.499742 0.499832
v -0.500000 -0.430258 0.429832
v -0.500000 -0.500258 0.499832
v -0.400000 -0.500258 0.499832
v -0.400000 -0.430258 0.429832
v -0.499999 0.429742 0.429832
v -0.400000 0.429742 0.429832
v -0.400000 0.499742 0.499832
v -0.500000 0.499742 0.499832
v -0.451234 -0.488172 0.151137
v -0.460324 -0.442852 0.151275
v -0.460324 -0.442918 0.245902
v -0.451234 -0.488238 0.246097
v 0.460516 -0.487914 0.151139
v 0.460516 -0.487980 0.246098
v 0.461954 -0.442768 0.245903
v 0.461954 -0.442702 0.151275
v -0.451234 -0.488172 -0.248863
v -0.460324 -0.442852 -0.248725
v -0.460324 -0.442918 -0.154098
v -0.451234 -0.488238 -0.153903
v 0.460517 -0.487914 -0.248861
v 0.460517 -0.487980 -0.153902
v 0.461954 -0.442768 -0.154097
v 0.461954 -0.442702 -0.248725
v -0.451234 -0.187073 -0.486353
v -0.460324 -0.187210 -0.441033
v -0.460324 -0.281837 -0.441099
v -0.451234 -0.282033 -0.486419
v 0.460517 -0.187074 -0.486095
v 0.460517 -0.282033 -0.486161
v 0.461954 -0.281837 -0.440949
v 0.461954 -0.187210 -0.440883
v -0.451234 0.212927 -0.486353
v -0.460324 0.212790 -0.441033
v -0.460324 0.118163 -0.441100
v -0.451234 0.117967 -0.486419
v 0.460517 0.212926 -0.486095
v 0.460517 0.117967 -0.486161
v 0.461954 0.118163 -0.440949
v 0.461954 0.212790 -0.440883
v -0.426118 0.212790 -0.450161
v -0.426184 0.118163 -0.450161
v -0.471396 0.117967 -0.448723
v -0.471330 0.212926 -0.448723
v -0.471654 0.117967 0.463027
v -0.426334 0.118163 0.472117
v -0.426268 0.212790 0.472117
v -0.471588 0.212927 0.463027
v -0.426118 -0.187210 -0.450161
v -0.426184 -0.281837 -0.450161
v -0.471396 -0.282033 -0.448723
v -0.471330 -0.187074 -0.448723
v -0.471654 -0.282033 0.463027
v -0.426334 -0.281837 0.472117
v -0.426268 -0.187210 0.472117
v -0.471588 -0.187073 0.463027
v -0.447394 0.212790 0.440805
v -0.447394 0.118163 0.440871
v -0.445956 0.117967 0.486083
v -0.445956 0.212926 0.486017
v 0.465794 0.117967 0.486342
v 0.474884 0.118163 0.441022
v 0.474884 0.212790 0.440956
v 0.465794 0.212927 0.486276
v -0.447394 -0.187210 0.440805
v -0.447394 -0.281837 0.440871
v -0.445956 -0.282033 0.486083
v -0.445956 -0.187074 0.486017
v 0.465794 -0.282033 0.486342
v 0.474884 -0.281837 0.441022
v 0.474884 -0.187210 0.440956
v 0.465794 -0.187073 0.486276
v 0.426067 0.212790 0.476693
v 0.426133 0.118163 0.476693
v 0.471345 0.117967 0.475255
v 0.471279 0.212926 0.475255
v 0.471603 0.117967 -0.436495
v 0.426284 0.118163 -0.445585
v 0.426217 0.212790 -0.445585
v 0.471537 0.212927 -0.436495
v 0.426067 -0.187210 0.476693
v 0.426133 -0.281837 0.476693
v 0.471345 -0.282033 0.475255
v 0.471279 -0.187074 0.475255
v 0.471603 -0.282033 -0.436495
v 0.426284 -0.281837 -0.445585
v 0.426217 -0.187210 -0.445585
v 0.471537 -0.187073 -0.436495
v -0.487063 0.450759 0.400034
v -0.487063 0.450825 0.494661
v -0.485625 0.496037 0.494857
v -0.485625 0.495971 0.399898
v 0.426125 0.496296 0.494857
v 0.435215 0.450976 0.494661
v 0.435215 0.450910 0.400034
v 0.426125 0.496230 0.399897
v -0.456331 0.450759 -0.498503
v -0.456331 0.450825 -0.403875
v -0.454893 0.496037 -0.403680
v -0.454894 0.495971 -0.498639
v 0.456857 0.496296 -0.403680
v 0.465947 0.450976 -0.403875
v 0.465947 0.450910 -0.498503
v 0.456857 0.496230 -0.498640
v -0.451234 0.448414 0.151137
v -0.460324 0.493733 0.151275
v -0.460324 0.493667 0.245902
v -0.451234 0.448348 0.246097
v 0.460516 0.448672 0.151139
v 0.460516 0.448606 0.246098
v 0.461954 0.493818 0.245903
v 0.461954 0.493884 0.151275
v -0.451234 0.448414 -0.248863
v -0.460324 0.493733 -0.248725
v -0.460324 0.493667 -0.154098
v -0.451234 0.448348 -0.153903
v 0.460517 0.448672 -0.248861
v 0.460517 0.448606 -0.153902
v 0.461954 0.493818 -0.154097
v 0.461954 0.493884 -0.248725
v -0.487063 -0.497539 0.400034
v -0.487063 -0.497473 0.494661
v -0.485625 -0.452261 0.494857
v -0.485625 -0.452327 0.399898
v 0.426125 -0.452003 0.494857
v 0.435215 -0.497322 0.494661
v 0.435215 -0.497388 0.400034
v 0.426125 -0.452069 0.399897
v -0.456331 -0.497539 -0.498503
v -0.456331 -0.497473 -0.403875
v -0.454893 -0.452261 -0.403680
v -0.454894 -0.452327 -0.498639
v 0.456857 -0.452003 -0.403680
v 0.465947 -0.497322 -0.403875
v 0.465947 -0.497388 -0.498503
v 0.456857 -0.452069 -0.498640
vt 0.1055 0.3515
vt 0.0703 0.3515
vt 0.0703 0.0000
vt 0.7906 0.0000
vt 0.8258 0.0000
vt 0.8258 0.3023
vt 0.4573 0.6731
vt 0.4819 0.6485
vt 0.4819 1.0000
vt 0.1407 0.0000
vt 0.1759 0.0000
vt 0.1759 0.3515
vt 0.9015 0.6512
vt 0.8769 0.6758
vt 0.8769 0.3242
vt 0.7925 0.9781
vt 0.7925 0.6266
vt 0.8171 0.9535
vt 0.4573 0.9754
vt 0.1407 0.3515
vt 0.9015 0.3488
vt 0.1284 0.7072
vt 0.1037 0.7072
vt 0.1037 0.6721
vt 0.1284 0.6721
vt 0.7906 0.3023
vt 0.9754 0.6758
vt 0.9508 0.6512
vt 0.9508 0.3488
vt 0.7925 0.3242
vt 0.8276 0.3242
vt 0.8276 0.6266
vt 0.7239 0.6694
vt 0.7485 0.6448
vt 0.7485 0.9963
vt 0.2110 0.0000
vt 0.2462 0.0000
vt 0.2462 0.3515
vt 0.6483 0.6694
vt 0.6729 0.6448
vt 0.6729 0.9963
vt 0.3517 0.0000
vt 0.3517 0.0246
vt 0.3166 0.0246
vt 0.7239 0.9717
vt 0.2110 0.3515
vt 0.6483 0.9717
vt 0.1407 0.6721
vt 0.1653 0.6721
vt 0.1653 0.7072
vt 0.1407 0.7072
vt 0.7925 0.6266
vt 0.3166 0.3269
vt 0.2814 0.3269
vt 0.3166 0.3023
vt 0.7222 0.9963
vt 0.6976 0.9717
vt 0.6976 0.6694
vt 1.0000 0.3242
vt 1.0000 0.6758
vt 0.9754 0.3488
vt 0.2814 0.3023
vt 0.2814 0.0000
vt 0.7222 0.6448
vt 0.2110 0.3515
vt 0.1759 0.3515
vt 0.1759 0.0000
vt 0.3166 0.0000
vt 0.3517 0.3269
vt 0.3166 0.3269
vt 0.7925 0.3242
vt 0.7925 0.6266
vt 0.7573 0.3242
vt 0.2110 0.0000
vt 0.9754 0.6512
vt 0.3517 0.3023
vt 0.3517 0.0000
vt 0.3869 0.3023
vt 0.3869 0.0000
vt 0.1055 0.0000
vt 0.6729 0.9963
vt 0.6729 0.6448
vt 0.6976 0.9717
vt 0.3869 0.3269
vt 0.3517 0.3269
vt 0.6976 0.6694
vt 0.8276 0.6758
vt 0.8276 0.3242
vt 0.8523 0.6512
vt 0.2462 0.0000
vt 0.2814 0.0000
vt 0.2814 0.3515
vt 0.7573 0.6266
vt 0.2462 0.3515
vt 0.8523 0.3488
vt 0.4573 0.3023
vt 0.4221 0.3023
vt 0.4221 0.0000
vt 0.3166 0.0000
vt 0.8171 0.6512
vt 0.4221 0.3269
vt 0.9754 0.3242
vt 0.9015 0.6512
vt 0.9015 0.3488
vt 0.9261 0.6758
vt 0.4573 0.3269
vt 0.4221 0.3023
vt 0.3869 0.3023
vt 0.3869 0.0000
vt 0.3869 0.3269
vt 0.9261 0.3242
vt 0.7573 0.6512
vt 0.7819 0.6266
vt 0.7819 0.9781
vt 0.4573 0.0000
vt 0.7573 0.9535
vt 0.0352 0.3515
vt 0.0000 0.3515
vt 0.0000 0.0000
vt 0.0352 0.0000
vt 0.6237 0.6694
vt 0.6483 0.6448
vt 0.6483 0.9963
vt 0.4221 0.0000
vt 0.1407 0.0000
vt 0.1407 0.3515
vt 0.1055 0.0000
vt 0.9261 0.3488
vt 0.9508 0.3242
vt 0.9508 0.6758
vt 0.1055 0.3515
vt 0.9261 0.6512
vt 0.6237 0.9717
vt 0.4221 0.3269
vt 0.5066 0.6490
vt 0.5225 0.6485
vt 0.5225 0.9727
vt 0.2462 0.6721
vt 0.2128 0.6721
vt 0.2128 0.3515
vt 0.3639 0.9749
vt 0.3639 0.6544
vt 0.3798 0.9754
vt 0.4906 0.0000
vt 0.4906 0.3242
vt 0.4573 0.0000
vt 0.5065 0.9695
vt 0.3798 0.6512
vt 0.4573 0.3242
vt 0.2462 0.3515
vt 0.9055 0.0005
vt 0.9214 0.0000
vt 0.9214 0.3242
vt 0.2796 0.6721
vt 0.2462 0.6721
vt 0.2462 0.3515
vt 0.9693 0.3237
vt 0.9692 0.0032
vt 0.9852 0.3242
vt 0.5571 0.0000
vt 0.5571 0.3242
vt 0.5238 0.0000
vt 0.9055 0.3210
vt 0.9852 0.0000
vt 0.5238 0.3242
vt 0.2796 0.3515
vt 0.5384 0.6490
vt 0.5543 0.6485
vt 0.5543 0.9727
vt 0.6905 0.6448
vt 0.6571 0.6448
vt 0.6571 0.3242
vt 0.0638 0.9958
vt 0.0638 0.6753
vt 0.0797 0.9963
vt 0.4145 0.3269
vt 0.4145 0.6512
vt 0.3812 0.3269
vt 0.5384 0.9695
vt 0.0797 0.6721
vt 0.3812 0.6512
vt 0.6905 0.3242
vt 0.5225 0.6490
vt 0.5384 0.6485
vt 0.5384 0.9727
vt 0.7238 0.0000
vt 0.7572 0.0000
vt 0.7572 0.3205
vt 0.5731 0.9722
vt 0.5731 0.6516
vt 0.5890 0.9727
vt 0.4906 0.6485
vt 0.4906 0.3242
vt 0.5238 0.6485
vt 0.5225 0.9695
vt 0.5890 0.6485
vt 0.5238 0.3242
vt 0.7238 0.3205
vt 0.5065 0.6485
vt 0.5065 1.0000
vt 0.4819 0.6731
vt 0.2128 0.7072
vt 0.2128 0.6721
vt 0.2374 0.7072
vt 0.2374 0.6721
vt 0.4819 0.9754
vt 0.8769 0.3242
vt 0.8769 0.6758
vt 0.8523 0.3488
vt 0.0703 0.3515
vt 0.0352 0.3515
vt 0.0352 0.0000
vt 0.0703 0.0000
vt 0.8523 0.6512
vt 0.6904 0.0000
vt 0.7238 0.0000
vt 0.7238 0.3205
vt 0.3480 0.3269
vt 0.3812 0.3269
vt 0.3812 0.6512
vt 0.0478 0.6753
vt 0.0638 0.6721
vt 0.0638 0.9963
vt 0.8895 0.3210
vt 0.8896 0.0005
vt 0.9055 0.3242
vt 0.3480 0.6512
vt 0.0479 0.9958
vt 0.6904 0.3205
vt 0.9055 0.0000
vt 0.6905 0.3242
vt 0.7239 0.3242
vt 0.7239 0.6448
vt 0.6237 0.0000
vt 0.6570 0.0000
vt 0.6570 0.3242
vt 0.0000 0.6753
vt 0.0159 0.6721
vt 0.0159 0.9963
vt 0.9533 0.3210
vt 0.9533 0.0005
vt 0.9692 0.3242
vt 0.6237 0.3242
vt 0.0000 0.9958
vt 0.6905 0.6448
vt 0.9692 0.0000
vt 0.1741 0.6721
vt 0.1407 0.6721
vt 0.1407 0.3515
vt 0.6237 0.6485
vt 0.5904 0.6485
vt 0.5904 0.3242
vt 0.6049 0.6516
vt 0.6209 0.6485
vt 0.6209 0.9727
vt 0.8258 0.3210
vt 0.8258 0.0005
vt 0.8417 0.3242
vt 0.6237 0.3242
vt 0.6050 0.9722
vt 0.1741 0.3515
vt 0.8417 0.0000
vt 0.6904 0.3205
vt 0.6570 0.3205
vt 0.6570 0.0000
vt 0.4554 0.6512
vt 0.4221 0.6512
vt 0.4221 0.3269
vt 0.0319 0.6753
vt 0.0478 0.6721
vt 0.0478 0.9963
vt 0.8417 0.3210
vt 0.8417 0.0005
vt 0.8576 0.3242
vt 0.4554 0.3269
vt 0.0319 0.9958
vt 0.6904 0.0000
vt 0.8576 0.0000
vt 0.0703 0.3515
vt 0.1037 0.3515
vt 0.1037 0.6721
vt 0.3147 0.3269
vt 0.3480 0.3269
vt 0.3480 0.6512
vt 0.4221 0.6544
vt 0.4380 0.6512
vt 0.4380 0.9754
vt 0.3812 0.9722
vt 0.3813 0.6517
vt 0.3972 0.9754
vt 0.3147 0.6512
vt 0.4221 0.9749
vt 0.0703 0.6721
vt 0.3972 0.6512
vt 0.1037 0.3515
vt 0.1372 0.3515
vt 0.1372 0.6721
vt 0.4906 0.6485
vt 0.4573 0.6485
vt 0.4573 0.3242
vt 0.3480 0.6544
vt 0.3639 0.6512
vt 0.3639 0.9754
vt 0.0159 0.9931
vt 0.0160 0.6726
vt 0.0319 0.9963
vt 0.4906 0.3242
vt 0.3480 0.9749
vt 0.1038 0.6721
vt 0.0319 0.6721
vt 0.7573 0.6448
vt 0.7239 0.6448
vt 0.7239 0.3242
vt 0.5904 0.3242
vt 0.5571 0.3242
vt 0.5571 0.0000
vt 0.9373 0.0032
vt 0.9533 0.0000
vt 0.9533 0.3242
vt 0.3306 0.9722
vt 0.3307 0.6517
vt 0.3466 0.9754
vt 0.5904 0.0000
vt 0.9374 0.3237
vt 0.7573 0.3242
vt 0.3466 0.6512
vt 0.0334 0.6721
vt 0.0000 0.6721
vt 0.0000 0.3515
vt 0.5571 0.6485
vt 0.5238 0.6485
vt 0.5238 0.3242
vt 0.8736 0.0032
vt 0.8895 0.0000
vt 0.8895 0.3242
vt 0.3147 0.9722
vt 0.3147 0.6517
vt 0.3306 0.9754
vt 0.5571 0.3242
vt 0.8736 0.3237
vt 0.0334 0.3515
vt 0.3306 0.6512
vt 0.8577 0.0005
vt 0.8736 0.0000
vt 0.8736 0.3242
vt 0.6571 0.6448
vt 0.6237 0.6448
vt 0.6237 0.3242
vt 0.4062 0.9749
vt 0.4062 0.6544
vt 0.4221 0.9754
vt 0.5238 0.0000
vt 0.5238 0.3242
vt 0.4906 0.0000
vt 0.8576 0.3210
vt 0.4221 0.6512
vt 0.4906 0.3242
vt 0.6571 0.3242
vt 0.2974 0.6517
vt 0.3133 0.6512
vt 0.3133 0.9754
vt 0.2110 0.6721
vt 0.1776 0.6721
vt 0.1776 0.3515
vt 0.5890 0.9722
vt 0.5890 0.6516
vt 0.6049 0.9727
vt 0.2814 0.6512
vt 0.2814 0.3269
vt 0.3147 0.6512
vt 0.2973 0.9722
vt 0.6049 0.6485
vt 0.3147 0.3269
vt 0.2110 0.3515
vt 0.7906 0.3205
vt 0.7572 0.3205
vt 0.7572 0.0000
vt 0.5571 0.3242
vt 0.5904 0.3242
vt 0.5904 0.6485
vt 0.9214 0.0032
vt 0.9373 0.0000
vt 0.9373 0.3242
vt 0.5571 0.9695
vt 0.5572 0.6490
vt 0.5731 0.9727
vt 0.5571 0.6485
vt 0.9214 0.3237
vt 0.7906 0.0000
vt 0.5731 0.6485
vt 0.0668 0.6721
vt 0.0334 0.6721
vt 0.0334 0.3515
vt 0.6237 0.3242
vt 0.5904 0.3242
vt 0.5904 0.0000
vt 0.4394 0.6544
vt 0.4554 0.6512
vt 0.4554 0.9754
vt 0.2814 0.9722
vt 0.2814 0.6517
vt 0.2973 0.9754
vt 0.6237 0.0000
vt 0.4395 0.9749
vt 0.0668 0.3515
vt 0.2973 0.6512
vn 0.0000 1.0000 -0.0000
vn -0.0000 -0.0000 1.0000
vn 1.0000 -0.0000 0.0000
vn 0.0000 0.0000 -1.0000
vn -1.0000 -0.0000 0.0000
vn -0.0000 0.7071 0.7071
vn -0.0000 -0.7071 -0.7071
vn 0.0000 -1.0000 0.0000
vn -0.0000 0.0043 1.0000
vn 0.0003 -1.0000 -0.0007
vn 0.0000 0.0030 -1.0000
vn -0.0002 1.0000 0.0007
vn -0.0000 -1.0000 0.0043
vn 0.0003 0.0007 -1.0000
vn 0.0000 1.0000 0.0030
vn -0.0002 -0.0007 1.0000
vn -1.0000 0.0007 -0.0003
vn 1.0000 -0.0007 0.0002
vn 0.0030 1.0000 0.0000
vn 0.0043 -1.0000 0.0000
vn -0.0003 0.0007 1.0000
vn 0.0002 -0.0007 -1.0000
vn 0.0000 1.0000 -0.0030
vn 0.0000 -1.0000 -0.0043
vn 1.0000 0.0007 0.0003
vn -1.0000 -0.0007 -0.0002
vn -0.0030 1.0000 -0.0000
vn -0.0043 -1.0000 -0.0000
vn -0.0003 1.0000 -0.0007
vn 0.0002 -1.0000 0.0007
vn 0.0000 -0.0030 -1.0000
vn 0.0000 -0.0043 1.0000
usemtl None
s 1
f 45/1/1 48/2/1 44/3/1
f 4/4/2 3/5/2 5/6/2
f 3/7/3 2/8/3 6/9/3
f 2/10/4 1/11/4 7/12/4
f 8/13/5 7/14/5 1/15/5
f 44/16/5 48/17/5 41/18/5
f 5/19/3 3/7/3 6/9/3
f 6/20/4 2/10/4 7/12/4
f 4/21/5 8/13/5 1/15/5
f 5/22/6 6/23/6 7/24/6
f 8/25/6 5/22/6 7/24/6
f 5/6/2 8/26/2 4/4/2
f 43/27/3 42/28/3 46/29/3
f 12/30/2 11/31/2 13/32/2
f 11/33/3 10/34/3 14/35/3
f 10/36/4 9/37/4 15/38/4
f 16/39/5 15/40/5 9/41/5
f 45/42/7 46/43/7 47/44/7
f 13/45/3 11/33/3 14/35/3
f 14/46/4 10/36/4 15/38/4
f 12/47/5 16/39/5 9/41/5
f 13/48/6 14/49/6 15/50/6
f 16/51/6 13/48/6 15/50/6
f 13/32/2 16/52/2 12/30/2
f 17/53/6 20/54/6 18/55/6
f 17/56/5 18/57/5 24/58/5
f 20/59/3 22/60/3 19/61/3
f 19/62/1 23/63/1 18/55/1
f 21/64/5 17/56/5 24/58/5
f 20/65/8 17/66/8 21/67/8
f 23/63/1 24/68/1 18/55/1
f 42/69/8 41/70/8 47/44/8
f 20/54/6 19/62/6 18/55/6
f 38/71/8 34/72/8 39/73/8
f 21/67/8 22/74/8 20/65/8
f 22/60/3 23/75/3 19/61/3
f 27/76/1 31/77/1 26/78/1
f 31/77/1 32/79/1 26/78/1
f 44/3/1 43/80/1 45/1/1
f 29/81/5 25/82/5 32/83/5
f 25/84/6 28/85/6 26/78/6
f 28/85/6 27/76/6 26/78/6
f 25/82/5 26/86/5 32/83/5
f 28/87/3 30/88/3 27/89/3
f 28/90/8 25/91/8 29/92/8
f 34/72/8 33/93/8 39/73/8
f 29/92/8 30/94/8 28/90/8
f 30/88/3 31/95/3 27/89/3
f 52/96/4 49/97/4 53/98/4
f 48/99/7 45/42/7 47/44/7
f 48/17/5 47/100/5 41/18/5
f 46/43/8 42/69/8 47/44/8
f 49/97/7 52/96/7 50/101/7
f 45/102/3 43/27/3 46/29/3
f 53/103/5 49/104/5 56/105/5
f 52/96/7 51/106/7 50/101/7
f 60/107/4 57/108/4 61/109/4
f 57/108/7 60/107/7 58/110/7
f 49/104/5 50/111/5 56/105/5
f 54/112/3 55/113/3 51/114/3
f 53/98/4 54/115/4 52/96/4
f 52/116/3 54/112/3 51/114/3
f 55/117/2 56/118/2 50/119/2
f 51/120/2 55/117/2 50/119/2
f 62/121/3 63/122/3 59/123/3
f 61/109/4 62/124/4 60/107/4
f 59/125/2 63/126/2 58/127/2
f 57/128/5 58/129/5 64/130/5
f 63/126/2 64/131/2 58/127/2
f 61/132/5 57/128/5 64/130/5
f 60/133/3 62/121/3 59/123/3
f 60/107/7 59/134/7 58/110/7
f 70/135/9 71/136/9 67/137/9
f 69/138/10 70/139/10 68/140/10
f 69/141/11 65/142/11 72/143/11
f 67/144/12 71/145/12 66/146/12
f 68/147/9 70/135/9 67/137/9
f 65/142/11 66/148/11 72/143/11
f 71/145/12 72/149/12 66/146/12
f 68/140/10 65/150/10 69/138/10
f 78/151/9 79/152/9 75/153/9
f 77/154/10 78/155/10 76/156/10
f 77/157/11 73/158/11 80/159/11
f 75/160/12 79/161/12 74/162/12
f 76/163/9 78/151/9 75/153/9
f 73/158/11 74/164/11 80/159/11
f 79/161/12 80/165/12 74/162/12
f 76/156/10 73/166/10 77/154/10
f 86/167/13 87/168/13 83/169/13
f 85/170/14 86/171/14 84/172/14
f 85/173/15 81/174/15 88/175/15
f 83/176/16 87/177/16 82/178/16
f 84/179/13 86/167/13 83/169/13
f 81/174/15 82/180/15 88/175/15
f 87/177/16 88/181/16 82/178/16
f 84/172/14 81/182/14 85/170/14
f 94/183/13 95/184/13 91/185/13
f 93/186/14 94/187/14 92/188/14
f 93/189/15 89/190/15 96/191/15
f 91/192/16 95/193/16 90/194/16
f 92/195/13 94/183/13 91/185/13
f 89/190/15 90/196/15 96/191/15
f 95/193/16 96/197/16 90/194/16
f 92/188/14 89/198/14 93/186/14
f 36/199/5 40/200/5 33/201/5
f 40/202/7 37/203/7 39/204/7
f 37/203/7 38/205/7 39/204/7
f 40/200/5 39/206/5 33/201/5
f 37/207/3 35/208/3 38/209/3
f 37/210/1 40/211/1 36/212/1
f 36/212/1 35/213/1 37/210/1
f 35/208/3 34/214/3 38/209/3
f 101/215/17 104/216/17 100/217/17
f 98/218/18 97/219/18 103/220/18
f 104/221/19 103/222/19 97/223/19
f 101/224/20 99/225/20 102/226/20
f 102/227/18 98/218/18 103/220/18
f 100/228/19 104/221/19 97/223/19
f 100/217/17 99/229/17 101/215/17
f 99/225/20 98/230/20 102/226/20
f 109/231/17 112/232/17 108/233/17
f 106/234/18 105/235/18 111/236/18
f 112/237/19 111/238/19 105/239/19
f 109/240/20 107/241/20 110/242/20
f 110/243/18 106/234/18 111/236/18
f 108/244/19 112/237/19 105/239/19
f 108/233/17 107/245/17 109/231/17
f 107/241/20 106/246/20 110/242/20
f 117/247/21 120/248/21 116/249/21
f 114/250/22 113/251/22 119/252/22
f 120/253/23 119/254/23 113/255/23
f 117/256/24 115/257/24 118/258/24
f 118/259/22 114/250/22 119/252/22
f 116/260/23 120/253/23 113/255/23
f 116/249/21 115/261/21 117/247/21
f 115/257/24 114/262/24 118/258/24
f 125/263/21 128/264/21 124/265/21
f 122/266/22 121/267/22 127/268/22
f 128/269/23 127/270/23 121/271/23
f 125/272/24 123/273/24 126/274/24
f 126/275/22 122/266/22 127/268/22
f 124/276/23 128/269/23 121/271/23
f 124/265/21 123/277/21 125/263/21
f 123/273/24 122/278/24 126/274/24
f 133/279/25 136/280/25 132/281/25
f 130/282/26 129/283/26 135/284/26
f 136/285/27 135/286/27 129/287/27
f 133/288/28 131/289/28 134/290/28
f 134/291/26 130/282/26 135/284/26
f 132/292/27 136/285/27 129/287/27
f 132/281/25 131/293/25 133/279/25
f 131/289/28 130/294/28 134/290/28
f 141/295/25 144/296/25 140/297/25
f 138/298/26 137/299/26 143/300/26
f 144/301/27 143/302/27 137/303/27
f 141/304/28 139/305/28 142/306/28
f 142/307/26 138/298/26 143/300/26
f 140/308/27 144/301/27 137/303/27
f 140/297/25 139/309/25 141/295/25
f 139/305/28 138/310/28 142/306/28
f 149/311/29 152/312/29 148/313/29
f 146/314/30 145/315/30 151/316/30
f 152/317/31 151/318/31 145/319/31
f 149/320/32 147/321/32 150/322/32
f 150/323/30 146/314/30 151/316/30
f 148/324/31 152/317/31 145/319/31
f 148/313/29 147/325/29 149/311/29
f 147/321/32 146/326/32 150/322/32
f 157/327/29 160/328/29 156/329/29
f 154/330/30 153/331/30 159/332/30
f 160/333/31 159/334/31 153/335/31
f 157/336/32 155/337/32 158/338/32
f 158/339/30 154/330/30 159/332/30
f 156/340/31 160/333/31 153/335/31
f 156/329/29 155/341/29 157/327/29
f 155/337/32 154/342/32 158/338/32
f 166/343/9 167/344/9 163/345/9
f 165/346/10 166/347/10 164/348/10
f 165/349/11 161/350/11 168/351/11
f 163/352/12 167/353/12 162/354/12
f 164/355/9 166/343/9 163/345/9
f 161/350/11 162/356/11 168/351/11
f 167/353/12 168/357/12 162/354/12
f 164/348/10 161/358/10 165/346/10
f 174/359/9 175/360/9 171/361/9
f 173/362/10 174/363/10 172/364/10
f 173/365/11 169/366/11 176/367/11
f 171/368/12 175/369/12 170/370/12
f 172/371/9 174/359/9 171/361/9
f 169/366/11 170/372/11 176/367/11
f 175/369/12 176/373/12 170/370/12
f 172/364/10 169/374/10 173/362/10
f 181/375/29 184/376/29 180/377/29
f 178/378/30 177/379/30 183/380/30
f 184/381/31 183/382/31 177/383/31
f 181/384/32 179/385/32 182/386/32
f 182/387/30 178/378/30 183/380/30
f 180/388/31 184/381/31 177/383/31
f 180/377/29 179/389/29 181/375/29
f 179/385/32 178/390/32 182/386/32
f 189/391/29 192/392/29 188/393/29
f 186/394/30 185/395/30 191/396/30
f 192/397/31 191/398/31 185/399/31
f 189/400/32 187/401/32 190/402/32
f 190/403/30 186/394/30 191/396/30
f 188/404/31 192/397/31 185/399/31
f 188/393/29 187/405/29 189/391/29
f 187/401/32 186/406/32 190/402/32
